<?xml version="1.0" encoding="utf-8"?>
<!-- Generator: Adobe Illustrator 23.0.1, SVG Export Plug-In . SVG Version: 6.00 Build 0)  -->
<svg version="1.2" baseProfile="tiny" id="Layer_1" xmlns="http://www.w3.org/2000/svg" xmlns:xlink="http://www.w3.org/1999/xlink"
	 x="0px" y="0px" viewBox="0 0 80 50" xml:space="preserve">
<g id="XMLID_2521_">
	<g id="XMLID_2601_">
		<g id="XMLID_2624_">
			<path id="XMLID_2625_" fill="#B2B2B2" d="M68.2,20.8c0-0.1-0.1-0.2-0.1-0.3L68,20.2c-0.1-0.3-0.3-0.7-0.4-1
				c-0.2-0.3-0.4-0.7-0.6-1c-0.4-0.6-1-1-1.2-1.1c-0.5-0.3-1.1-0.5-1.6-0.7c-0.5-0.2-1.1-0.3-1.6-0.4c-1-0.2-2.1-0.3-3-0.3
				c-1,0-1.9,0-2.7,0c-0.9,0-1.7,0-2.5,0.1c-3.2,0.1-6.4,0.1-9.4,0.2c-1.6,0-3.2,0.1-4.8,0.2l-0.3-0.2c-0.5,0.1-1,0.2-1.1,0.3
				c-0.3,0-0.5,0-0.8,0.1c-0.8-0.1-1.4,0-1.9,0.2c-0.6-0.1-0.2-0.2-0.5-0.2c-0.9,0.1-1.8,0.1-2.8,0.1C32.4,16.1,32,16,31.1,16l0,0.1
				c-2.9-0.2-5.8-0.6-7.3-1c-1.6,0.6-3.6,0.1-5.4,0.4c-1.1,0.1-2.3,0.3-3.4,0.4c-0.6,0.1-1.1,0.1-1.7,0.2c-0.6,0.1-1.1,0.2-1.6,0.3
				c-0.6,0.1-1.2,0.4-1.6,0.8c-0.5,0.4-0.9,0.8-1.2,1.2c-0.6,0.9-0.9,1.7-1.2,2.6c-0.2,0.6-0.3,1.3-0.4,1.9c0,0.1,0,0.1,0,0.2
				c0,0.1,0,0.2,0,0.3c0,0.9,0.1,1.7,0.4,2.4c0.1,0.4,0.4,0.7,0.6,1c0.1,0.1,0.2,0.2,0.3,0.3c0.6,0.9,1.4,2,1.4,2.4
				c1.7,1.3,4.1,1.3,6.3,1.3c3.3-0.1,6.6-0.2,9.9-0.3c0.3,0,0.6,0.1,0.9,0.2l0.1-0.2c1.3,0,2.6-0.1,3.9-0.1c2.7,0.3,6.5,0.2,9.8,0.2
				c0.7,0,1.2-0.4,1.9-0.4c0.3,0.1,0.7,0.1,1,0.2c0.7,0,1.8-0.1,2.1,0c1.3,0.3,3.2,0.3,5.2,0.3c2,0,4-0.1,5.6-0.1
				c1.1,0,2.2-0.1,3.3-0.3c1.1-0.2,2.3-0.5,3.6-1c0.3-0.1,0.6-0.2,0.8-0.4c0.1-0.1,0.3-0.2,0.5-0.3c0.2-0.1,0.3-0.2,0.5-0.3
				c0.6-0.4,1.2-1,1.6-1.7c0.5-0.7,0.9-1.5,1.1-2.3c0.3-0.8,0.4-1.7,0.4-2.6C68.4,21.3,68.3,21,68.2,20.8z"/>
		</g>
		<g id="XMLID_2622_">
			<path id="XMLID_2623_" fill="#F8C5CE" d="M40.2,31.3c-0.2,0-0.3,0-0.5,0C39.9,31.3,40,31.3,40.2,31.3z"/>
		</g>
		<g id="XMLID_2620_">
			<path id="XMLID_2621_" fill="#F8C5CE" d="M40,30.9c0,0.1,1.2,0.4,0.2,0.4c0.6,0,1.1,0,0.6,0.2c1.1,0,0.1-0.3,0.8-0.5
				C41,31.2,40.5,30.9,40,30.9z"/>
		</g>
		<g id="XMLID_2618_">
			<path id="XMLID_2619_" fill="#F8C5CE" d="M44.2,31.1c-0.6,0-1.1-0.2-1.5,0C43.2,31.1,43.9,31.2,44.2,31.1z"/>
		</g>
		<g id="XMLID_2616_">
			<polygon id="XMLID_2617_" fill="#F8C5CE" points="42.9,31.8 43.2,31.7 42.4,31.5 			"/>
		</g>
		<g id="XMLID_2614_">
			<path id="XMLID_2615_" fill="#F8C5CE" d="M46,31.5c0.2,0,0.4,0.1,0.4,0.2l-2,0.1l1.8,0.1C47.3,31.7,46.8,31.6,46,31.5z"/>
		</g>
		<g id="XMLID_2612_">
			<path id="XMLID_2613_" fill="#F8C5CE" d="M43.7,31.3c0,0.1,0.9,0,1.6,0.1c-0.5-0.1-1-0.1-1-0.2L43.7,31.3z"/>
		</g>
		<g id="XMLID_2610_">
			<path id="XMLID_2611_" fill="#F8C5CE" d="M46,31.5c-0.2,0-0.4-0.1-0.7-0.1C45.6,31.5,45.8,31.5,46,31.5z"/>
		</g>
		<g id="XMLID_2608_">
			<path id="XMLID_2609_" fill="#F8C5CE" d="M47.9,32l0.3,0l0.1-0.3C47.7,31.7,47.9,31.9,47.9,32z"/>
		</g>
		<g id="XMLID_2606_">
			<path id="XMLID_2607_" fill="#F8C5CE" d="M50.1,32.2c0.8,0,0.2,0.2,0.2,0.3c0.5,0.2,1.6-0.1,2-0.1C51.6,32.2,50.9,32.2,50.1,32.2
				z"/>
		</g>
		<g id="XMLID_2604_">
			<path id="XMLID_2605_" fill="#F8C5CE" d="M52.7,32.8l-1.7,0C51.4,33.2,52,32.9,52.7,32.8z"/>
		</g>
		<g id="XMLID_2602_">
			<path id="XMLID_2603_" fill="#F8C5CE" d="M54.5,32.4l0.9,0.3c0.2,0,0-0.1,0.3-0.2C55.5,32.3,54.9,32.4,54.5,32.4z"/>
		</g>
	</g>
	<g id="XMLID_2549_">
		<g id="XMLID_2596_">
			<path id="XMLID_2597_" fill="#020203" d="M30,35.6h0.9c0.2,0,0.4,0.1,0.5,0.2c0.1,0.1,0.2,0.2,0.2,0.4c0,0.2-0.1,0.4-0.4,0.5
				c0.1,0,0.3,0.1,0.3,0.2c0.1,0.1,0.1,0.2,0.1,0.4c0,0.2-0.1,0.3-0.2,0.4c-0.1,0.1-0.3,0.2-0.5,0.2H30V35.6z M30.4,35.9v0.6h0.4
				c0.1,0,0.2,0,0.2-0.1c0.1,0,0.1-0.1,0.1-0.2c0-0.1,0-0.2-0.1-0.2c-0.1-0.1-0.1-0.1-0.2-0.1H30.4z M30.4,37.4h0.4
				c0.1,0,0.2,0,0.2-0.1c0.1-0.1,0.1-0.1,0.1-0.2c0-0.1,0-0.2-0.1-0.2c-0.1-0.1-0.1-0.1-0.2-0.1h-0.4V37.4z"/>
		</g>
		<g id="XMLID_2592_">
			<path id="XMLID_2593_" fill="#020203" d="M35.5,37.8l-0.1-0.4h-0.9l-0.1,0.4h-0.5l0.8-2.2h0.5l0.8,2.2H35.5z M34.6,37h0.6
				l-0.3-0.9L34.6,37z"/>
		</g>
		<g id="XMLID_2588_">
			<path id="XMLID_2589_" fill="#020203" d="M38.7,36.9v0.9h-0.4v-2.2h0.8c0.3,0,0.4,0.1,0.6,0.2c0.1,0.1,0.2,0.3,0.2,0.5
				c0,0.1,0,0.3-0.1,0.4s-0.2,0.2-0.4,0.2l0.6,0.9h-0.5l-0.5-0.9H38.7z M38.7,35.9v0.6h0.4c0.1,0,0.2,0,0.3-0.1
				c0.1-0.1,0.1-0.1,0.1-0.2c0-0.1,0-0.2-0.1-0.2c-0.1-0.1-0.1-0.1-0.3-0.1H38.7z"/>
		</g>
		<g id="XMLID_2584_">
			<path id="XMLID_2585_" fill="#020203" d="M42.9,37.8c-0.2,0-0.4-0.1-0.5-0.2c-0.1-0.1-0.2-0.3-0.2-0.5c0-0.2,0.1-0.3,0.2-0.5
				c0.1-0.1,0.2-0.2,0.4-0.2c-0.1-0.2-0.2-0.3-0.2-0.5s0.1-0.3,0.2-0.4c0.1-0.1,0.3-0.2,0.4-0.2c0.2,0,0.3,0.1,0.5,0.2
				c0.1,0.1,0.2,0.2,0.2,0.4c0,0.1,0,0.1,0,0.2h-0.4c0,0,0-0.1,0-0.1c0-0.1,0-0.1-0.1-0.1c0,0-0.1-0.1-0.1-0.1c-0.1,0-0.1,0-0.1,0.1
				c0,0-0.1,0.1-0.1,0.1c0,0.1,0,0.1,0.1,0.2l1.2,1.5h-0.5l-0.2-0.3c-0.1,0.1-0.1,0.2-0.2,0.3C43.1,37.7,43,37.8,42.9,37.8z
				 M42.7,37.3c0.1,0.1,0.1,0.1,0.2,0.1s0.2,0,0.2-0.1c0.1-0.1,0.1-0.1,0.1-0.2c0-0.1,0-0.2-0.1-0.2c-0.1-0.1-0.1-0.1-0.2-0.1
				s-0.2,0-0.2,0.1c-0.1,0.1-0.1,0.1-0.1,0.2C42.6,37.2,42.6,37.3,42.7,37.3z"/>
		</g>
		<g id="XMLID_2580_">
			<path id="XMLID_2581_" fill="#020203" d="M18.4,42v0.9H18v-2.2h0.8c0.3,0,0.4,0.1,0.6,0.2c0.1,0.1,0.2,0.3,0.2,0.5
				c0,0.1,0,0.3-0.1,0.4c-0.1,0.1-0.2,0.2-0.4,0.2l0.6,0.9h-0.5L18.5,42H18.4z M18.4,41v0.6h0.4c0.1,0,0.2,0,0.3-0.1
				c0.1-0.1,0.1-0.1,0.1-0.2c0-0.1,0-0.2-0.1-0.2C19,41.1,18.9,41,18.8,41H18.4z"/>
		</g>
		<g id="XMLID_2577_">
			<path id="XMLID_2578_" fill="#020203" d="M23.3,40.7V41h-0.8v0.6h0.7v0.3h-0.7v0.6h0.8v0.3H22v-2.2H23.3z"/>
		</g>
		<g id="XMLID_2574_">
			<path id="XMLID_2575_" fill="#020203" d="M26.5,41c-0.1,0-0.2,0-0.2,0.1c-0.1,0-0.1,0.1-0.1,0.2c0,0.1,0,0.1,0.1,0.2
				c0,0,0.1,0.1,0.2,0.1c0.1,0,0.1,0,0.2,0.1c0.1,0,0.2,0,0.2,0.1c0.1,0,0.2,0.1,0.2,0.1c0.1,0,0.1,0.1,0.2,0.2
				c0,0.1,0.1,0.2,0.1,0.3c0,0.2-0.1,0.3-0.2,0.5c-0.1,0.1-0.3,0.2-0.6,0.2c-0.2,0-0.4-0.1-0.6-0.2c-0.1-0.1-0.2-0.3-0.2-0.5h0.5
				c0,0.2,0.1,0.3,0.3,0.3c0.1,0,0.2,0,0.2-0.1c0.1-0.1,0.1-0.1,0.1-0.2c0-0.1,0-0.2-0.1-0.2C26.6,42,26.5,42,26.4,42
				c-0.1,0-0.2-0.1-0.3-0.1c-0.1,0-0.2-0.1-0.3-0.2c-0.1-0.1-0.1-0.2-0.1-0.4c0-0.2,0.1-0.4,0.2-0.5c0.1-0.1,0.3-0.2,0.6-0.2
				c0.2,0,0.4,0.1,0.5,0.2c0.1,0.1,0.2,0.3,0.2,0.5h-0.5c0-0.1,0-0.2-0.1-0.2C26.6,41,26.5,41,26.5,41z"/>
		</g>
		<g id="XMLID_2571_">
			<path id="XMLID_2572_" fill="#020203" d="M29.6,41v-0.3h1.6V41h-0.6v1.9h-0.4V41H29.6z"/>
		</g>
		<g id="XMLID_2567_">
			<path id="XMLID_2568_" fill="#020203" d="M35,42.9l-0.1-0.4H34l-0.1,0.4h-0.5l0.8-2.2h0.5l0.8,2.2H35z M34.1,42.1h0.6l-0.3-0.9
				L34.1,42.1z"/>
		</g>
		<g id="XMLID_2564_">
			<path id="XMLID_2565_" fill="#020203" d="M37.8,42v-1.4h0.4V42c0,0.2,0,0.3,0.1,0.3c0.1,0.1,0.2,0.1,0.3,0.1c0.1,0,0.3,0,0.3-0.1
				c0.1-0.1,0.1-0.2,0.1-0.3v-1.4h0.4V42c0,0.3-0.1,0.5-0.3,0.6c-0.2,0.2-0.4,0.2-0.6,0.2c-0.2,0-0.5-0.1-0.6-0.2
				C37.9,42.5,37.8,42.3,37.8,42z"/>
		</g>
		<g id="XMLID_2560_">
			<path id="XMLID_2561_" fill="#020203" d="M42.5,42v0.9h-0.4v-2.2h0.8c0.3,0,0.4,0.1,0.6,0.2c0.1,0.1,0.2,0.3,0.2,0.5
				c0,0.1,0,0.3-0.1,0.4c-0.1,0.1-0.2,0.2-0.4,0.2l0.6,0.9h-0.5L42.6,42H42.5z M42.5,41v0.6h0.4c0.1,0,0.2,0,0.3-0.1
				c0.1-0.1,0.1-0.1,0.1-0.2c0-0.1,0-0.2-0.1-0.2C43.1,41.1,43,41,42.9,41H42.5z"/>
		</g>
		<g id="XMLID_2556_">
			<path id="XMLID_2557_" fill="#020203" d="M47.6,42.9l-0.1-0.4h-0.9l-0.1,0.4h-0.5l0.8-2.2h0.5l0.8,2.2H47.6z M46.7,42.1h0.6
				L47,41.2L46.7,42.1z"/>
		</g>
		<g id="XMLID_2553_">
			<path id="XMLID_2554_" fill="#020203" d="M51.8,40.7h0.4v2.2h-0.4l-1-1.5v1.5h-0.4v-2.2h0.4l1,1.5V40.7z"/>
		</g>
		<g id="XMLID_2550_">
			<path id="XMLID_2551_" fill="#020203" d="M54.6,41v-0.3h1.6V41h-0.6v1.9h-0.4V41H54.6z"/>
		</g>
	</g>
	<g id="XMLID_2522_">
		<g id="XMLID_2543_">
			<path id="XMLID_2544_" fill="#020203" d="M9.2,12.8c0.2-0.2,0.3-0.4,0.5-0.7c0.5-0.7,1.1-1.1,1.8-1.3c0.2-0.1,0.5,0,0.7,0.1
				c0.3,0.1,0.6,0.2,1,0.1c0.4-0.1,0.7,0,0.8,0.2c0,0.1-0.1,0.4,0,0.4c0,0.2,0,0.4-0.2,0.7c-0.1,0,0,0.1,0,0.2
				c0,0.8,0.2,0.1-0.2,0.9c-0.2,0.4-0.2,0.7-0.3,1c-1.6,4.1,0.1,2.1,1.4,0.3c0.1-0.4,0.4-0.7,0.7-1c0.5-0.7,1-1.3,1.5-2
				c0.8-1,1.7-1.9,2.7-2.6c0.4-0.2,0.7-0.6,1-0.5c0.3,0,0.7,0.2,0.9,0.4c0.2,0.2,0.4,0.4,0.6,0.7c0.1,0,0.1,0.1,0.1,0.1
				c0.5,0.1,0.5,0.6,0.5,1c0,0.1-0.1,0.2-0.1,0.3c-0.4,1-0.9,1.9-1,2.8c-0.1,0.5-0.1,1-0.2,1.4c-0.1,0.4-0.1,0.9-0.2,1.5
				c-0.1,0.4-0.1,0.9-0.4,1.3c0,0,0,0.1,0,0.1c0.2,0.2-0.1,0.4-0.2,0.7c0,0.1-0.1,0.2,0,0.3c0.1,0.4,0.1,0.7-0.2,1.1
				c0,0,0,0.1,0,0.2c-0.1,0.3-0.2,0.6-0.2,0.8c0,0,0,0,0.2-0.1c-0.1,0.5-0.7,0.9-0.5,1.3c0.2,0,0.2,0.2,0.1,0.5
				c-0.2,0.7-0.2,1.3-0.5,2c0,0,0,0.1,0,0.1c0.2,0.3-0.2,0.8-0.1,1.2c0,0.3-0.2,0.6,0,0.9c0,0.2-0.1,0.4-0.4,0.7
				c-0.1,0.1-0.2,0.2-0.4,0.4c-0.2,0.5-0.2,0.5-0.7,0.5c-0.1,0-0.2,0-0.4,0.1c-0.2,0-0.4,0-0.5-0.1c0-0.1-0.1-0.1-0.3-0.1
				c-0.4-0.1-0.6-0.5-0.4-0.9c0.3-1.2,0.5-2.3,0.6-3.4c0.1-0.3,0.2-0.6,0.2-0.9c0.1-0.4,0.2-0.9,0.4-1.3c0,0.1-0.1,0.3-0.1,0.5
				c0.1-0.1,0.1-0.1,0.1-0.1c0.1-0.2,0.2-0.5,0.2-0.7c0.1-0.6,0.4-1.2,0.3-1.8c0,0,0-0.1,0-0.1c0.3-0.3,0-0.7,0.3-1
				c0.1-0.1,0.1-0.2,0.1-0.3c-0.1-0.4,0.1-0.7,0.3-1.1c0-0.1,0-0.1,0-0.2c0,0,0,0,0,0c-0.2,0.5-0.4,1-0.6,1.5c0,0-0.1,0-0.1,0
				c0.5-3,0.6-3.3-1.7-0.1c0,0-0.1-0.1-0.1-0.1c-0.1,0-0.1,0-0.1,0c0,0.1-0.1,0.2-0.1,0.3c-0.2,0.4-0.3,0.6-0.8,0.9
				c-0.1,0-0.2,0.1-0.2,0.2c-0.2,0.1-0.2,0.3-0.3,0.4c-0.4,1-2.6,4.2-3.2,5.2c-0.3,0.5-0.7,0.7-1.1,1.2c0-0.2,0-0.3,0.1-0.5
				c0,0-0.1,0-0.1,0c-0.1,0.2-0.3,0.4-0.5,0.7c0,0,0,0-0.1-0.1c-0.2,0.5-0.5,0.6-0.9,0.7C8.4,28,7.8,28,7.3,27.8
				c-0.3-0.1-0.8-0.1-1-0.4c-0.2-0.2-0.3-0.1,0-0.5c0.3-0.5,0.6-1.1,1-1.6c0.4-0.5,0.6-1,0.5-1.5c0.7-3.7,2.8-8.5,0.1-4.2
				c-0.3,0.5-0.7,1.1-1.1,1.7c-1.1,2.3-3.7,5.8-4.2,8.3c0,0.2-0.1,0.5-0.2,0.7c-0.2,0.3-0.4,0.3-0.5,0.2c-0.1,0-0.1,0-0.2-0.1
				c-0.2-0.4-0.5-0.5-0.9-0.5c-0.3,0-0.4-0.2-0.6-0.3c0,0,0-0.2,0-0.3c0.6-1.1,0.9-2.2,1.2-3.3c0.1-0.4,0.1-0.8,0.3-1.3
				c0.1-0.5,0.9-2.5,1.1-3c0.1-0.5,0.3-1.1,0.4-1.6c0.3-1,0.5-2.1,0.8-3.1c0-0.2,0.1-0.4,0.1-0.7c0-0.8,0.3-1.6,0.6-2.4
				c0.1-0.2,0.1-0.5,0.3-0.8C4.9,13,5,12.7,5.1,12.5c0.1-0.2,0.2-0.3,0.4-0.3c0.2,0.2,0.4,0.3,0.6,0.5c0.1,0.1,0.1,0.3,0.1,0.5
				c-0.1,0.7-0.3,1.3-0.5,2c-0.8,3.7,2.1-0.5,2.5-1.1C8.5,13.7,8.9,13.3,9.2,12.8z M7.4,26.3c0-0.1,0.1-0.1,0.2-0.3c0,0,0-0.1,0-0.2
				C7.5,26,7.4,26,7.3,26.1C7.3,26.2,7.3,26.2,7.4,26.3C7.3,26.3,7.3,26.3,7.4,26.3z M12,19.7c0.2-0.2,0.3-0.5,0.5-0.8
				c0.2-0.5,0.5-0.9,1-1.4c0.1-0.1,0.2-0.3,0.2-0.5c-0.5,0.4-1.6,2.1-1.9,2.9C11.9,19.9,11.9,19.8,12,19.7z M15.3,15.2
				c0-0.1,0.1-0.2,0.1-0.3c0.5-0.5,0.7-1.1,1.1-1.7c-0.4,0.3-1.5,1.9-1.7,2.4C15.1,15.5,15.2,15.3,15.3,15.2z"/>
		</g>
		<g id="XMLID_2538_">
			<path id="XMLID_2539_" fill="#020203" d="M22.5,20.5c-0.4-0.6-0.5-1.3-0.6-2.1c-0.1-0.6,0.1-1.1,0.4-1.7c0-0.1,0.1-0.1,0.2-0.2
				c0.3-0.2,0.6-0.4,1-0.7c0.3-0.2,0.7-0.2,1.1-0.2c0.3,0,1,0.7,1.2,0.8c0.2,0.2,0.4,0.4,0.6,0.5c0.3,0.3,0.5,0.6,0.7,1
				c0.1,0.3,0.2,0.5,0.3,0.7c0.1,0.3,0.1,0.6,0.2,1c0,0.3,0,0.5,0.1,0.8c0,0,0,0,0,0.1c-0.1-0.5,0,0.2,0,0.3c0,0.4,0.1,0.8,0,1.1
				c-0.1,0.2,0.1,0.4,0.4,0.4c1.7-0.1,2.3,0.1,3.9-0.1c0.2-0.1,0.3-0.2,0.5-0.3c0.1,0,0.2-0.1,0.2-0.1c0.1,0.1,0,0.2,0,0.3
				c-0.1,0.2,0.2,0.2,0.1,0.4c-1,1.1-4.1,1-5.3,1c0,0-0.1,0-0.1,0c-0.1,0-0.2,0-0.2,0.1c0,0.1,0,0.1-0.1,0.2
				c-0.1,0.6-0.4,1.1-0.6,1.7c-0.2,0.4-0.4,0.7-0.6,1c-0.1,0.2-0.3,0.4-0.5,0.6c-0.1,0-0.1,0.1-0.2,0.2c-0.1,0-0.2,0.1-0.2,0.2
				c-0.3,0.3-0.6,0.5-0.9,0.6c-0.1,0-0.2,0.1-0.3,0.1c-0.5,0.1-0.9,0.1-1.4,0c-0.6-0.1-1-0.5-1.4-1.1c-0.1-0.3-0.2-0.6-0.3-0.9
				c-0.1-0.6-0.1-1.2,0-1.9c0.1-0.6,0.3-1.2,0.6-1.9c0.3-0.7,0.7-1.4,1.2-2c0.1,0,0.1-0.1,0.1-0.2C22.5,20.5,22.5,20.5,22.5,20.5z
				 M26.5,19.1c-0.1-0.4-0.1-0.7-0.2-1.1c-0.1-0.3-0.2-0.6-0.5-0.8c-0.1-0.1-0.2-0.3-0.4-0.4c-0.2-0.2-0.4-0.3-0.6-0.4
				c-0.4-0.3-1.1,0.4-1.4,0.6c-0.9,1.3,0,3,0.8,3.9c1,1.9,2.8,1.2,2.4-1C26.6,19.6,26.6,19.3,26.5,19.1z M23.5,25.7
				c0,0.2,0,0.4,0,0.5c-0.1,0.1,0,0.1,0,0.2c0.1,0.2,0.2,0.3,0.4,0.4c0,0,0,0,0.1,0c0,0,0.1-0.1,0.1-0.1c0.6-0.6,1-1.4,1.3-2.2
				c0.2-0.3,0.2-0.6,0.3-0.8c-0.8-0.3-1.1,0-1.6,0.5C23.7,24.8,23.7,25.1,23.5,25.7z"/>
		</g>
		<g id="XMLID_2535_">
			<path id="XMLID_2536_" fill="#020203" d="M41.9,22.4c-0.2,0.3-0.4,0.6-0.6,0.8c-0.2,0.3-0.4,0.7-0.6,1c0,0,0,0.1,0,0.1
				c-0.2,0.3-0.4,0.7-0.7,0.9c-0.4,0.4-0.7,0.8-1.1,1.1c-0.4,0.3-0.7,0.6-1.1,0.8c-0.2,0.1-1.5,0.8-1.7,0.8c-0.3,0-1.4-0.1-1.7,0
				c-0.5,0.1-1.5-0.3-1.9-0.5c-0.5-0.2-0.9-0.4-1.3-0.7c-0.6-0.5-1-1.2-1.1-2.2c-0.1-0.6-0.1-1.1,0-1.7c0-0.3,0.1-0.7,0.2-1
				c0.1-0.2,0.2-0.5,0.3-0.7c0.2-0.7,0.6-1.3,1-2c0.1-0.1,0.2-0.3,0.3-0.4c0.3-0.4,0.5-0.8,0.9-1c0.4-0.3,0.8-0.7,1.2-1
				c0.2-0.2,0.5-0.2,0.7-0.2c0.1,0,0.2,0,0.3-0.1c0.3-0.1,0.5-0.2,0.8-0.2c0,0,0,0,0,0c0.4,0,0.8,0.1,1.1,0.3c0,0,0.1,0,0.1,0
				c0,0,0.1,0,0.1,0c0.1-0.1,0.2-0.1,0.3,0c0.1,0.1,0.2,0.2,0.1,0.4c-0.1,0.2,0,0.3,0,0.4c0,0,0,0.1,0,0.1c-0.1,0.1-0.1,0.2-0.2,0.3
				c0,0.2,0.1,0.4,0.1,0.6c0.1,0.3,0.1,0.6,0.1,0.9c0,0.2,0,0.3,0,0.5c-0.1,0.6-0.3,1.2-0.6,1.7c-0.1,0.2-0.2,0.4-0.4,0.4
				c-0.1,0-0.1,0-0.2,0c-0.1,0-0.2,0-0.2-0.1c-0.2-0.2-0.4-0.3-0.6-0.4c0,0-0.1,0-0.1-0.1c-0.1-0.1-0.2-0.2-0.1-0.3
				c0-0.2,0.1-0.3,0.1-0.5c0.2-0.7,0.4-1.3,0.6-2c0,0,0-0.1,0-0.2c-0.1,0.1-0.1,0.1-0.1,0.1c-0.2,0.4-0.5,0.8-0.8,1.1
				c-0.3,0.4-0.5,0.8-0.7,1.2c-0.3,0.6-0.5,1.1-0.8,1.7c-0.3,0.5-0.4,1.1-0.6,1.7c-0.1,0.2-0.1,0.3-0.1,0.5c0,0.2,0,0.5,0.1,0.7
				c0.1,0.2,0.2,0.4,0.3,0.7c0.1,0.1,0.2,0.3,0.3,0.4c0.2,0.2,1-0.1,1.2-0.2c0.7-0.1,2.3-0.8,3-1.4c0.5-0.4,1.5-1.1,1.9-1.6
				c0.2-0.2,0.3-0.4,0.5-0.6c0.3-0.4,1.2-1.1,1.6-1.5c0.2-0.2,0.7-0.5,0.9-0.8c0.1-0.1,0,0.5,0.2,0.4C42.6,21.4,42.1,22.2,41.9,22.4
				z"/>
		</g>
		<g id="XMLID_2530_">
			<path id="XMLID_2531_" fill="#020203" d="M47,27.2c0.2,0.3,0.4,0.7,0.6,0.9c0.1,0.3,0.3,0.4,0.6,0.4c0.4,0.1,0.7,0,1.1-0.1
				c0.3-0.1,1.6-1.1,1.9-1.2c0.1-0.1,1.5-1.6,1.7-1.7c0.5-0.6,0.9-1.3,1.4-2c0.3-0.5,0.6-1.1,0.9-1.7c0.1-0.1,0.1-0.3,0.2-0.4
				c0-0.2,0.1-0.3,0.1-0.4c0.2,0.5,0.6,0.1,0.5,0.4c-0.1,0.2-0.1,0.3-0.1,0.4c0,0.3-0.5,1-0.6,1.2c-0.2,0.5-0.3,0.9-0.6,1.3v0.1
				c-0.2,0.4-0.5,0.8-0.7,1.3c-0.2,0.3-1.8,2-2.1,2.3c-0.2,0.2-0.4,0.3-0.6,0.3c-0.5,0.3-1.8,1.4-2.3,1.5c-0.3,0.1-0.7,0.2-1,0.2
				c-0.5,0-1.1-0.2-1.5-0.5c-0.2-0.2-0.4-0.4-0.5-0.7c-0.4-0.6-0.8-1.4-1.2-2.1c-0.3-0.4-0.4-0.7-0.7-0.2C44,26.7,44,26.9,43.9,27
				c-0.1,0.2-0.2,0.4-0.3,0.6c-0.1,0.2-0.2,0.5-0.3,0.6c-0.1,0.1-0.2,0.2-0.4,0.2c-0.1,0-0.3,0-0.5,0.2c-0.7,0.3-1,0.3-1.5-0.1
				c-0.6-0.4-0.9-1.1-1-1.9c0-0.1,0-0.1,0-0.2c0.1-0.5,0-1,0-1.6c-0.1-0.7,0-1.3,0-2c0-0.3,0.1-0.6,0.1-0.9c0-0.9,0.3-1.9,0.5-2.8
				c0.2-0.5,0.3-1.1,0.5-1.6c0.3-0.9,0.7-1.9,1.1-2.8c0.2-0.4,0.4-0.8,0.6-1.2c0.6-1.2,1.3-2.5,2-3.6c0.5-0.7,1-1.4,1.6-1.9
				c0.2-0.2,0.5-0.4,0.7-0.6c0.2-0.2,0.5-0.2,0.8-0.2c0,0,0.1,0.1,0.2,0.1c0.2,0.4,0.6,0.6,0.9,0.9c0.6,0.4,1.1,1,1.6,1.7
				c0.2,0.3,0.3,0.7,0.3,1.1c0,0.1,0,0.2,0,0.3c0,0.2-0.2,0.3-0.3,0.3c-0.1-0.1-0.2-0.1-0.2-0.1c-0.1-0.1-0.2-0.2-0.3-0.3
				c-0.3-0.3-0.6-0.2-1,0.1c-0.3,0.3-0.6,0.6-0.9,0.9c0,0.1-0.1,0.2-0.2,0.3c-0.3,0.5-0.7,1-1,1.5c0,0.1-0.1,0.2-0.1,0.2
				c-0.1,0.3-0.3,0.7-0.5,1c-0.2,0.5-0.5,0.9-0.7,1.5c-0.1,0.2-0.2,0.4-0.4,0.7c-0.3,0.6-0.6,1.3-0.9,2c-0.4,0.8-0.7,1.7-0.9,2.5
				c0,0.2-0.1,0.3-0.1,0.5c-0.1,0.4-0.2,0.9-0.3,1.3c-0.1,1.1,0.2,1,0.4,0.7c0.5-0.8,0.9-1.7,1.5-2.5c0.6-0.8,1.2-1.6,1.9-2.3
				c0.7-0.6,1.4-0.8,2.2-0.6c0.2,0,0.3,0.1,0.4,0.3c0,0.1,0.1,0.1,0.1,0.2c0.3,0.4,0.4,0.8,0.4,1.2c0,0.8-0.1,1.6-0.4,2.5
				c0,0.1,0,0.2-0.1,0.3c-0.2,0.4-0.3,0.8-0.6,1.2c-0.2,0.2-0.3,0.4-0.5,0.5c-0.2,0.3-0.5,0.5-0.8,0.6c-0.1,0-0.3,0.1-0.4,0.2
				c-0.1,0-0.1,0.1-0.2,0.2C46.7,26.7,46.9,27,47,27.2z M39.9,24.1c0,0,0,0,0,0.1c0,0.2,0,0.4,0,0.6C40,24.4,40,24.4,39.9,24.1z
				 M46,22c-0.1,0.3-0.2,0.6-0.4,0.9c-0.1,0.3-0.3,0.6-0.4,0.9c-0.4,0.5,0.7,0.2,0.9,0c0.8-0.6,1.4-1.6,1.8-2.6
				c0.5-1.8-0.1-1.6-0.9-0.5C46.6,21.1,46.3,21.5,46,22z"/>
		</g>
		<g id="XMLID_2527_">
			<path id="XMLID_2528_" fill="#020203" d="M57.3,25.1c-0.6,0.3-1.3,0.3-1.7,0.4c-0.3,0-1.1-0.2-1.3-0.3c-0.8-0.5-0.9-0.7-1-1.9
				c-0.1-0.3,0-0.9,0.2-1.4c0.2-0.8,2-3.6,2.3-4.3c0.2-0.4,0.3-0.7,0.6-1.1c0.1-0.2,0.3-0.3,0.4-0.4c0.2-0.1,0.5-0.1,0.6-0.3
				c0.5-0.3,0.1-0.5,0.5-0.5c0.3,0,0.6,0.1,0.7,0.4c0.1,0,0.1,0.2,0.3,0.3C59,16,59,16.1,59,16.3c-0.2,0.8-0.9,2.4-1.1,3.2
				c-0.2,0.2-0.2,1.2-0.3,1.4c-0.1,0.3-0.1,0.6-0.3,1c-0.1,0.3-0.2,0.8-0.1,0.9c0.1,0.2,0.2,0.7,0.4,0.7c0.8-0.4,1.9-0.5,2.3-1
				c0.3-0.4,0.4-0.2,0.7-0.5c0.2-0.2,0.3-0.4,0.4-0.6c0.2-0.4,0.2-0.3,0.4-0.7c0.2-0.4,0.5-0.8,0.8-1.2c0.1-0.3,0.2-0.5,0.4-0.8
				c0.3-0.1,0.3-0.1,0.4,0c0.5,0,0.1,0,0.4,0.2c0.1,0.1,0,0.3,0.1,0.3c-0.2,0.6-0.3,1.3-0.6,2.1c-0.1,0.2,0,0-0.2,0.3
				c0,0.2-0.1,0.5-0.2,0.8c-0.1,0.3-0.1,0.7-0.3,0.9c-0.3,1.1-0.4,1.8-0.4,1.9c-0.1,0.4,1.1,0.7,2.3,0.4c0.8-0.3,2.2-1.7,2.8-2.7
				c0.2-0.4,0.4-0.8,0.8-1.4c0.3-0.6,0.6,0.4,0.5,0.6c-0.1,0.2-0.2,0.3-0.2,0.4c-0.3,0.2-0.6,1.3-0.8,1.5c-0.1,0.1,0,0.2-0.2,0.2
				c-0.4,0.6-1.3,1.5-2,2.1c-0.3,0.1-0.3,0.2-0.6,0.3C64,26.8,64,26.8,63.7,27c-0.2,0.1-0.3,0.1-0.4,0.2c-0.3-0.1-0.3,0-0.4,0.1
				c-0.6,0.4-3.4,0.5-3.6-0.6c-0.2-1-0.3-1.6,0-2.8c0-0.1,0-0.1,0-0.1C58.8,24.2,57.9,24.7,57.3,25.1z"/>
		</g>
		<g id="XMLID_2523_">
			<path id="XMLID_2524_" fill="#020203" d="M76,22.5c0,0.8,0.3,0.5,1.6,0.3c0.4-0.1,1-0.2,1.6-0.8c0.3-0.3,0.7,0.1,0.8,0.2
				c0,0.1-0.4,0.8-0.5,0.9c-1.4,0.8-2.2,0.8-3.2,1c-0.8,0.2-0.9,0.6-1.2,1.3l-0.1,0.3c-0.1,0.4-0.3,0.7-0.5,1
				c-0.1,0.1-0.1,0.2-0.2,0.2l-0.3,0.4c-0.1,0.2-0.3,0.5-0.6,0.7l-0.2,0.3l-0.3,0.3c-0.1,0-0.2,0-0.3,0c-0.1-0.1-0.2-0.2-0.3-0.2
				c0-0.1,0-0.2,0-0.3c-0.1-0.3-0.2-0.6-0.5-0.6c-0.1-0.1-0.2-0.2-0.3-0.3c-0.1-0.2-0.2-0.3-0.4-0.4c-0.3-0.2-0.4-0.7-0.1-1.2
				c0.1-0.3,0.3-0.5,0.5-0.6c0.2-0.2,0.4-0.3,0.7-0.4c0.4-0.3,0.8-0.3,1.2-0.5c0.2-0.1,0.4-0.4,0.5-0.7c0.2-0.9,0.5-2.2,0.6-3.1
				v-1.1c0-0.1,0-0.1,0-0.2c0-0.2-0.2-0.2-0.3-0.1c-0.1,0-0.1,0.1-0.1,0.2c-0.2,0.4-0.5,0.7-0.6,1.1c-0.5,1-1,2-1.5,3
				c-0.4,0.7-0.7,1.3-1,2.1c-0.5,1.2-1.7,2.4-2.1,3.7c-0.1,0.2-0.2,0.5-0.4,0.6c-0.2,0.1-0.2,0.3-0.2,0.5c0,0.2,0,0.5-0.1,0.7
				c-0.1,0.1-0.1,0.3-0.2,0.3c-0.2,0.2-0.3,0.4-0.4,0.6c-0.3,0.8-0.6,1.7-0.7,2.6c0,0.4,0,0.8-0.1,1.2c0,0.3-0.2,0.5-0.4,0.6
				c-0.2,0.1-0.3,0.2-0.4,0.5c0,0-0.1,0.2-0.2,0.2c-0.1,0-0.1,0.2-0.2,0.3h0c-0.5,0.1-0.9-0.3-1.1-0.9c-0.2-0.6-0.3-1.3-0.3-2
				c-0.1-1.6,0-3.2,0.2-4.8c0.1-0.6,0.2-1.3,0.3-1.9c0.1-1,0.4-2.1,0.6-3.1c0.4-1.5,0.8-2.9,1.2-4.4c0.1-0.3,0.2-0.6,0.3-1
				c0.4-1,0.7-2.1,1.1-3.1c0.2-0.5,0.4-1.1,0.7-1.6c0.2-0.1,0.3-0.1,0.5,0l0.8,0.5l0,0c0.5,0.6,0.8,1.3,0.9,2.4
				c0.1,0.5,0,1.1-0.1,1.7c-0.2,0.8-0.4,1.7-0.7,2.5c-0.2,0.5-0.4,1.2-0.6,1.8c-0.5,1.9,0.5,1.7,0.8,1.1c0.1-0.3,0.6-0.9,0.7-1.3
				l1.1-2.3c0.2-0.4,0.3-0.7,0.6-1.1c0.2-0.3,0.5-0.6,0.7-0.9c0.2-0.2,0.5-0.4,0.7-0.4h0.6c0.3-0.1,0.6,0.2,0.8,0.4
				c0.2,0.1,0.3,0.4,0.3,0.6c0,0.3,0.1,0.6,0.1,0.8l0.1,1L76,22.5z M72,25.2c-0.2,0.1-0.3,0.3-0.3,0.7c0,0.2,0.1,0.3,0.2,0.3
				c0.1-0.1,0.2-0.1,0.2-0.1c0.2-0.1,0.3-0.2,0.4-0.4c0.4-0.5,0.5-1,0.4-0.8C72.6,25,72.3,25,72,25.2z"/>
		</g>
	</g>
</g>
</svg>
