<?xml version="1.0" encoding="utf-8"?>
<!-- Generator: Adobe Illustrator 23.0.1, SVG Export Plug-In . SVG Version: 6.00 Build 0)  -->
<svg version="1.2" baseProfile="tiny" id="Layer_1" xmlns="http://www.w3.org/2000/svg" xmlns:xlink="http://www.w3.org/1999/xlink"
	 x="0px" y="0px" viewBox="0 0 80 50" xml:space="preserve">
<g id="XMLID_2445_">
	<g id="XMLID_2487_">
		<g id="XMLID_2518_">
			<path id="XMLID_2519_" d="M13.8,40.3c-0.3-0.3-0.4-0.6-0.4-1c0-0.4,0.1-0.7,0.4-1c0.3-0.3,0.6-0.4,1-0.4c0.3,0,0.6,0.1,0.8,0.2
				c0.2,0.2,0.4,0.4,0.5,0.6h-0.7c-0.1-0.2-0.3-0.4-0.6-0.4c-0.2,0-0.5,0.1-0.6,0.2C14,38.8,14,39,14,39.3s0.1,0.5,0.2,0.7
				c0.2,0.2,0.4,0.2,0.6,0.2c0.3,0,0.5-0.1,0.6-0.4h0.7c-0.1,0.3-0.3,0.5-0.5,0.6c-0.2,0.2-0.5,0.2-0.8,0.2
				C14.4,40.7,14.1,40.5,13.8,40.3z"/>
		</g>
		<g id="XMLID_2514_">
			<path id="XMLID_2515_" d="M20.4,40.7c-0.4,0-0.7-0.1-1-0.4c-0.3-0.3-0.4-0.6-0.4-1c0-0.4,0.1-0.7,0.4-1c0.3-0.3,0.6-0.4,1-0.4
				c0.4,0,0.7,0.1,1,0.4c0.3,0.3,0.4,0.6,0.4,1c0,0.4-0.1,0.7-0.4,1C21.1,40.5,20.8,40.7,20.4,40.7z M21,39.9
				c0.2-0.2,0.2-0.4,0.2-0.7c0-0.3-0.1-0.5-0.2-0.7c-0.2-0.2-0.4-0.2-0.6-0.2c-0.2,0-0.5,0.1-0.6,0.2c-0.2,0.2-0.2,0.4-0.2,0.7
				s0.1,0.5,0.2,0.7c0.2,0.2,0.4,0.2,0.6,0.2C20.6,40.2,20.8,40.1,21,39.9z"/>
		</g>
		<g id="XMLID_2511_">
			<path id="XMLID_2512_" d="M24.7,40.6v-2.8h1.7v0.4h-1.1V39h0.9v0.4h-0.9v1.2H24.7z"/>
		</g>
		<g id="XMLID_2508_">
			<path id="XMLID_2509_" d="M29.4,40.6v-2.8h1.7v0.4H30V39h0.9v0.4H30v1.2H29.4z"/>
		</g>
		<g id="XMLID_2505_">
			<path id="XMLID_2506_" d="M35.7,37.9v0.4h-1V39h0.9v0.4h-0.9v0.8h1v0.4h-1.6v-2.8H35.7z"/>
		</g>
		<g id="XMLID_2502_">
			<path id="XMLID_2503_" d="M40.4,37.9v0.4h-1V39h0.9v0.4h-0.9v0.8h1v0.4h-1.6v-2.8H40.4z"/>
		</g>
		<g id="XMLID_2499_">
			<path id="XMLID_2500_" d="M48.1,38.3c-0.1,0-0.2,0-0.3,0.1c-0.1,0.1-0.1,0.1-0.1,0.2c0,0.1,0,0.2,0.1,0.2
				c0.1,0.1,0.1,0.1,0.2,0.1c0.1,0,0.2,0.1,0.3,0.1c0.1,0,0.2,0.1,0.3,0.1c0.1,0,0.2,0.1,0.3,0.1c0.1,0.1,0.2,0.1,0.2,0.2
				c0.1,0.1,0.1,0.2,0.1,0.3c0,0.2-0.1,0.4-0.3,0.6c-0.2,0.2-0.4,0.2-0.7,0.2c-0.3,0-0.5-0.1-0.7-0.2c-0.2-0.1-0.3-0.3-0.3-0.6h0.6
				c0,0.2,0.2,0.4,0.4,0.4c0.1,0,0.2,0,0.3-0.1c0.1-0.1,0.1-0.2,0.1-0.3s0-0.2-0.1-0.3c-0.1-0.1-0.2-0.1-0.4-0.1s-0.3-0.1-0.4-0.1
				c-0.1,0-0.3-0.1-0.4-0.2c-0.1-0.1-0.1-0.3-0.1-0.4c0-0.3,0.1-0.5,0.3-0.6c0.2-0.2,0.4-0.2,0.7-0.2c0.3,0,0.5,0.1,0.7,0.2
				c0.2,0.1,0.3,0.3,0.3,0.6h-0.6c0-0.1,0-0.2-0.1-0.3C48.3,38.3,48.2,38.3,48.1,38.3z"/>
		</g>
		<g id="XMLID_2496_">
			<path id="XMLID_2497_" d="M53.9,37.9h0.6v2.8h-0.6v-1.2h-1.2v1.2h-0.6v-2.8h0.6V39h1.2V37.9z"/>
		</g>
		<g id="XMLID_2492_">
			<path id="XMLID_2493_" d="M58.8,40.7c-0.4,0-0.7-0.1-1-0.4c-0.3-0.3-0.4-0.6-0.4-1c0-0.4,0.1-0.7,0.4-1c0.3-0.3,0.6-0.4,1-0.4
				c0.4,0,0.7,0.1,1,0.4c0.3,0.3,0.4,0.6,0.4,1c0,0.4-0.1,0.7-0.4,1S59.2,40.7,58.8,40.7z M59.5,39.9c0.2-0.2,0.2-0.4,0.2-0.7
				c0-0.3-0.1-0.5-0.2-0.7c-0.2-0.2-0.4-0.2-0.6-0.2c-0.2,0-0.5,0.1-0.6,0.2C58.1,38.8,58,39,58,39.3s0.1,0.5,0.2,0.7
				c0.2,0.2,0.4,0.2,0.6,0.2C59.1,40.2,59.3,40.1,59.5,39.9z"/>
		</g>
		<g id="XMLID_2488_">
			<path id="XMLID_2489_" d="M65,39.3c-0.1,0.1-0.2,0.2-0.3,0.2c-0.1,0.1-0.3,0.1-0.5,0.1h-0.5v1.1h-0.6v-2.8h1
				c0.3,0,0.6,0.1,0.7,0.2c0.2,0.2,0.3,0.3,0.3,0.6S65.2,39.1,65,39.3z M63.8,39.1h0.5c0.1,0,0.2,0,0.3-0.1c0.1-0.1,0.1-0.2,0.1-0.3
				c0-0.1,0-0.2-0.1-0.3c-0.1-0.1-0.2-0.1-0.3-0.1h-0.5V39.1z"/>
		</g>
	</g>
	<g id="XMLID_2457_">
		<g id="XMLID_2484_">
			<path id="XMLID_2485_" d="M0.1,31.6C0,31.4,0,31.1,0,30.8c0-0.4,0.1-0.8,0.2-1.3c0.1-0.5,0.3-1,0.5-1.5c0.2-0.5,0.4-1,0.6-1.5
				c0.2-0.5,0.4-0.9,0.5-1.3c0.2-0.4,0.3-0.7,0.3-0.8c0.1-0.2,0.2-0.4,0.3-0.7c0.1-0.3,0.3-0.7,0.4-1c0.2-0.4,0.3-0.8,0.5-1.2
				c0.2-0.4,0.3-0.8,0.5-1.2c0.2-0.4,0.3-0.7,0.4-1c0.1-0.3,0.2-0.6,0.3-0.7c0.3-0.1,0.4-0.1,0.5,0c0.1,0.1,0.1,0.3,0.1,0.5
				c0,0.2-0.1,0.5-0.2,0.8c-0.1,0.3-0.3,0.7-0.4,1.1c-0.2,0.4-0.3,0.8-0.5,1.2c-0.2,0.4-0.3,0.8-0.5,1.1c-0.1,0.4-0.3,0.7-0.3,1
				c-0.1,0.3-0.1,0.5-0.1,0.7c0.2,0,0.4,0,0.7,0c0.3,0,0.5-0.1,0.8-0.1c0.3,0,0.6-0.1,0.8-0.2c0.3-0.1,0.5-0.1,0.7-0.1
				c1.1-0.2,1.9-0.4,2.5-0.7c0.6-0.3,1.2-0.7,1.6-1.2c0.4-0.5,0.8-1.1,1.1-1.8c0.3-0.7,0.7-1.5,1.1-2.5c0.1-0.2,0.2-0.3,0.3-0.3
				c0.1,0,0.1,0.1,0.2,0.2c0.1,0.1,0.1,0.3,0.1,0.4c0,0.2,0,0.3,0,0.3c0,0,0,0.1-0.1,0.2c-0.1,0.1-0.1,0.2-0.2,0.4
				c-0.1,0.1-0.1,0.3-0.2,0.4c-0.1,0.1-0.1,0.2-0.1,0.2c0,0-0.1,0.1-0.1,0.2c0,0.1-0.1,0.2-0.1,0.4c0,0.1-0.1,0.2-0.1,0.4
				c0,0.1-0.1,0.2-0.1,0.2c0.1,0,0.1,0.1,0.2,0.2c0.1,0.1,0.2,0.2,0.2,0.2c0,0.2,0,0.4-0.2,0.7c-0.2,0.2-0.4,0.5-0.6,0.8
				c-0.2,0.3-0.5,0.5-0.7,0.8c-0.2,0.3-0.4,0.5-0.5,0.7c-0.5,1.2-0.9,2.3-1.2,3.5c-0.3,1.2-0.6,2.4-0.8,3.6c0,0.1-0.1,0.1-0.2,0.2
				c-0.1,0.1-0.1,0.1-0.2,0c0-0.3,0-0.6,0.1-1.1c0.1-0.4,0.1-0.9,0.3-1.5c0.1-0.5,0.2-1.1,0.3-1.6c0.1-0.5,0.2-1,0.4-1.5
				c0.1-0.5,0.2-0.8,0.3-1.1c0.1-0.3,0.1-0.5,0.1-0.5c-0.2,0-0.6-0.1-0.9,0c-0.4,0-0.8,0.1-1.3,0.2c-0.5,0.1-0.9,0.2-1.4,0.3
				c-0.5,0.1-1,0.2-1.4,0.3c-0.5,0.1-0.9,0.2-1.3,0.3c-0.4,0.1-0.7,0.2-1,0.3c-0.2,0.4-0.4,0.9-0.5,1.4c-0.1,0.5-0.3,1.1-0.4,1.6
				c-0.1,0.5-0.3,1-0.4,1.5c-0.2,0.5-0.4,0.9-0.6,1.3c0,0-0.1,0-0.1-0.1C0.2,31.6,0.2,31.6,0.1,31.6z"/>
		</g>
		<g id="XMLID_2480_">
			<path id="XMLID_2481_" d="M12.5,31.6c-0.5-0.2-0.8-0.5-0.9-0.9c-0.1-0.4-0.1-0.8,0-1.3c0.1-0.5,0.3-1,0.7-1.5
				c0.3-0.5,0.7-1,1-1.4c0.4-0.4,0.8-0.8,1.2-1.1c0.4-0.3,0.7-0.5,1-0.5c0.7-0.1,1.3,0,1.7,0.1c0.4,0.2,0.7,0.5,0.8,0.8
				c0.2,0.4,0.2,0.8,0.1,1.3c-0.1,0.5-0.2,1-0.5,1.4c-0.2,0.5-0.5,1-0.9,1.4c-0.4,0.5-0.8,0.8-1.3,1.1c-0.5,0.3-0.9,0.5-1.4,0.6
				C13.5,31.8,13,31.8,12.5,31.6z M12.3,30.6c0.1,0.4,0.3,0.6,0.6,0.6c0.3,0,0.7,0,1.1-0.2c0.4-0.2,0.8-0.5,1.3-0.8
				c0.4-0.4,0.8-0.8,1.2-1.2c0.4-0.4,0.7-0.9,0.9-1.3s0.4-0.8,0.3-1.1c0-0.3-0.2-0.6-0.5-0.7c-0.3-0.2-0.8-0.2-1.5-0.1
				c-0.2,0.2-0.4,0.3-0.6,0.5c-0.3,0.2-0.5,0.4-0.8,0.7c-0.3,0.3-0.5,0.5-0.8,0.8c-0.3,0.3-0.5,0.6-0.7,0.9c-0.2,0.3-0.3,0.6-0.4,1
				C12.2,30,12.2,30.3,12.3,30.6z"/>
		</g>
		<g id="XMLID_2477_">
			<path id="XMLID_2478_" d="M28.4,30.9c0-0.2,0-0.4,0-0.6c0-0.2,0.1-0.4,0.2-0.6c0.1-0.2,0.1-0.3,0.2-0.5c0-0.1,0.1-0.3,0.3-0.6
				c0.1-0.3,0.3-0.6,0.5-1c0.2-0.3,0.3-0.7,0.5-0.9c0.2-0.3,0.3-0.5,0.3-0.6v-0.4c-0.1-0.1-0.4,0-0.7,0.2c-0.4,0.2-0.8,0.5-1.2,0.9
				c-0.5,0.4-1,0.8-1.5,1.3c-0.5,0.5-1,0.9-1.5,1.3c-0.5,0.4-0.9,0.8-1.2,1.1c-0.3,0.3-0.6,0.5-0.7,0.7c-0.3,0.1-0.4,0-0.5-0.2
				c-0.1-0.2-0.1-0.5-0.1-0.8c0-0.3,0.1-0.7,0.2-1.1c0.1-0.4,0.2-0.8,0.3-1.2c0.1-0.4,0.2-0.7,0.3-1c0.1-0.3,0.1-0.4,0.1-0.4
				c-0.2-0.1-0.5-0.1-0.7,0.1s-0.5,0.3-0.8,0.6c-0.3,0.3-0.5,0.6-0.8,1c-0.3,0.4-0.5,0.7-0.8,1.1c-0.3,0.4-0.5,0.7-0.8,1
				c-0.2,0.3-0.5,0.6-0.7,0.8c-0.2,0.2-0.4,0.3-0.6,0.4c-0.2,0-0.4-0.1-0.5-0.3c0,0,0,0,0-0.1c0,0,0-0.1,0-0.1
				c0.1-0.1,0.1-0.3,0.3-0.5c0.1-0.2,0.3-0.5,0.4-0.8c0.2-0.3,0.3-0.6,0.5-1c0.2-0.3,0.3-0.7,0.5-1c0.2-0.3,0.3-0.6,0.4-0.8
				c0.1-0.2,0.2-0.4,0.3-0.5c0.1-0.1,0.1-0.3,0.2-0.4c0.1-0.2,0.2-0.4,0.3-0.5c0.1-0.2,0.2-0.4,0.4-0.6H22c0.1,0.3,0.1,0.5,0,0.7
				c-0.1,0.2-0.2,0.5-0.4,0.7c-0.1,0.2-0.3,0.4-0.4,0.7c-0.1,0.2-0.1,0.4,0,0.7c1-0.9,1.8-1.5,2.3-1.9c0.5-0.4,0.9-0.7,1.1-0.7
				c0.2-0.1,0.3,0,0.3,0.3c0,0.2-0.1,0.5-0.1,0.9c-0.1,0.4-0.2,0.8-0.3,1.3c-0.1,0.5-0.1,1,0,1.5h0.2c0.1,0,0.2-0.1,0.3-0.3
				c0.2-0.1,0.3-0.3,0.5-0.4c0.2-0.2,0.4-0.3,0.5-0.4c0.2-0.1,0.3-0.2,0.4-0.3c0.1-0.1,0.3-0.2,0.6-0.4c0.2-0.2,0.5-0.4,0.7-0.6
				c0.2-0.2,0.5-0.4,0.7-0.5c0.2-0.1,0.3-0.2,0.4-0.3c0,0,0.1-0.1,0.3-0.2c0.2-0.1,0.3-0.2,0.5-0.4c0.2-0.1,0.4-0.2,0.5-0.4
				c0.2-0.1,0.3-0.2,0.4-0.3c0.2-0.1,0.3-0.2,0.5-0.2c0.2,0,0.3,0.1,0.4,0.2c0.1,0.1,0.2,0.2,0.2,0.4c0,0.2,0,0.4-0.1,0.6
				c-0.3,0.5-0.6,1-0.8,1.5c-0.3,0.5-0.5,1-0.7,1.5c-0.2,0.5-0.4,1-0.6,1.6c-0.1,0.5-0.2,1.1-0.2,1.7c-0.1,0-0.1,0-0.2,0
				c-0.1,0-0.1-0.1-0.2-0.1c-0.1-0.1-0.1-0.1-0.2-0.3C28.5,31.2,28.4,31.1,28.4,30.9z"/>
		</g>
		<g id="XMLID_2473_">
			<path id="XMLID_2474_" d="M32.9,31.6c-0.3-0.1-0.6-0.3-0.8-0.5c-0.2-0.2-0.3-0.5-0.4-0.8c-0.1-0.3-0.1-0.6,0-0.9
				c0-0.3,0.1-0.6,0.2-0.9c0.3-0.4,0.7-0.8,1.2-1.3c0.4-0.5,0.9-1,1.4-1.4c0.5-0.5,1-0.9,1.5-1.3c0.5-0.4,1.1-0.7,1.6-0.9
				c0.2-0.1,0.3-0.1,0.4,0c0.1,0.1,0.2,0.2,0.2,0.4c0,0.2,0.1,0.4,0.1,0.6c0,0.2,0,0.5-0.1,0.7c0,0.2-0.1,0.4-0.1,0.6
				c-0.1,0.2-0.1,0.3-0.2,0.4c-0.1,0.2-0.4,0.4-0.8,0.6c-0.4,0.2-0.8,0.5-1.3,0.7c-0.5,0.3-1,0.5-1.5,0.8c-0.5,0.3-0.9,0.6-1.2,0.8
				c-0.3,0.3-0.5,0.5-0.6,0.8c-0.1,0.3,0.1,0.5,0.5,0.7c0.4,0,0.9,0,1.4-0.1c0.6-0.1,1.1-0.2,1.7-0.3c0.6-0.1,1.1-0.3,1.7-0.5
				c0.5-0.2,1-0.3,1.3-0.4l0.2,0.2c-0.3,0.3-0.7,0.6-1.2,0.9c-0.6,0.3-1.2,0.5-1.9,0.7c-0.7,0.2-1.3,0.3-2,0.3
				C33.8,31.8,33.3,31.7,32.9,31.6z M37,25c0,0-0.1,0-0.3,0.1c-0.2,0.1-0.4,0.3-0.6,0.4c-0.2,0.2-0.5,0.4-0.8,0.6
				c-0.3,0.2-0.5,0.4-0.7,0.6c-0.2,0.2-0.4,0.3-0.6,0.5c-0.2,0.1-0.2,0.2-0.2,0.2c0.2,0,0.4,0,0.7-0.1c0.3-0.1,0.6-0.2,0.9-0.4
				c0.3-0.2,0.6-0.3,0.9-0.5c0.3-0.2,0.5-0.4,0.7-0.6c0.2-0.2,0.3-0.4,0.3-0.5C37.4,25.1,37.3,25,37,25z"/>
		</g>
		<g id="XMLID_2470_">
			<path id="XMLID_2471_" d="M48.8,30.9c0-0.2,0-0.4,0-0.6c0-0.2,0.1-0.4,0.2-0.6c0.1-0.2,0.1-0.3,0.2-0.5c0-0.1,0.1-0.3,0.3-0.6
				c0.1-0.3,0.3-0.6,0.5-1c0.2-0.3,0.3-0.7,0.5-0.9c0.2-0.3,0.3-0.5,0.3-0.6v-0.4c-0.1-0.1-0.4,0-0.7,0.2c-0.4,0.2-0.8,0.5-1.2,0.9
				c-0.5,0.4-1,0.8-1.5,1.3c-0.5,0.5-1,0.9-1.5,1.3c-0.5,0.4-0.9,0.8-1.2,1.1c-0.3,0.3-0.6,0.5-0.7,0.7c-0.3,0.1-0.4,0-0.5-0.2
				c-0.1-0.2-0.1-0.5-0.1-0.8c0-0.3,0.1-0.7,0.2-1.1c0.1-0.4,0.2-0.8,0.3-1.2c0.1-0.4,0.2-0.7,0.3-1c0.1-0.3,0.1-0.4,0.1-0.4
				c-0.2-0.1-0.5-0.1-0.7,0.1c-0.3,0.1-0.5,0.3-0.8,0.6c-0.3,0.3-0.5,0.6-0.8,1c-0.3,0.4-0.5,0.7-0.8,1.1c-0.3,0.4-0.5,0.7-0.8,1
				c-0.2,0.3-0.5,0.6-0.7,0.8c-0.2,0.2-0.4,0.3-0.6,0.4c-0.2,0-0.4-0.1-0.5-0.3c0,0,0,0,0-0.1c0,0,0-0.1,0-0.1
				c0.1-0.1,0.1-0.3,0.3-0.5c0.1-0.2,0.3-0.5,0.4-0.8c0.2-0.3,0.3-0.6,0.5-1c0.2-0.3,0.3-0.7,0.5-1c0.2-0.3,0.3-0.6,0.4-0.8
				c0.1-0.2,0.2-0.4,0.3-0.5c0.1-0.1,0.1-0.3,0.2-0.4c0.1-0.2,0.2-0.4,0.3-0.5c0.1-0.2,0.2-0.4,0.4-0.6h0.4c0.1,0.3,0.1,0.5,0,0.7
				c-0.1,0.2-0.2,0.5-0.4,0.7c-0.1,0.2-0.3,0.4-0.4,0.7c-0.1,0.2-0.1,0.4,0,0.7c1-0.9,1.8-1.5,2.3-1.9c0.5-0.4,0.9-0.7,1.1-0.7
				c0.2-0.1,0.3,0,0.3,0.3c0,0.2-0.1,0.5-0.1,0.9c-0.1,0.4-0.2,0.8-0.3,1.3c-0.1,0.5-0.1,1,0,1.5h0.2c0.1,0,0.2-0.1,0.3-0.3
				c0.2-0.1,0.3-0.3,0.5-0.4c0.2-0.2,0.4-0.3,0.5-0.4c0.2-0.1,0.3-0.2,0.4-0.3c0.1-0.1,0.3-0.2,0.6-0.4c0.2-0.2,0.5-0.4,0.7-0.6
				c0.2-0.2,0.5-0.4,0.7-0.5c0.2-0.1,0.3-0.2,0.4-0.3c0,0,0.1-0.1,0.3-0.2c0.2-0.1,0.3-0.2,0.5-0.4c0.2-0.1,0.4-0.2,0.5-0.4
				c0.2-0.1,0.3-0.2,0.4-0.3c0.2-0.1,0.3-0.2,0.5-0.2c0.2,0,0.3,0.1,0.4,0.2c0.1,0.1,0.2,0.2,0.2,0.4c0,0.2,0,0.4-0.1,0.6
				c-0.3,0.5-0.6,1-0.8,1.5c-0.3,0.5-0.5,1-0.7,1.5c-0.2,0.5-0.4,1-0.6,1.6c-0.1,0.5-0.2,1.1-0.2,1.7c-0.1,0-0.1,0-0.2,0
				c-0.1,0-0.1-0.1-0.2-0.1c-0.1-0.1-0.1-0.1-0.2-0.3C48.9,31.2,48.8,31.1,48.8,30.9z"/>
		</g>
		<g id="XMLID_2466_">
			<path id="XMLID_2467_" d="M52.8,31.4c-0.3-0.2-0.4-0.6-0.5-1c0-0.5,0-1,0.2-1.5c0.2-0.6,0.4-1.2,0.7-1.8c0.3-0.6,0.7-1.2,1.1-1.8
				c0.4-0.6,0.8-1.1,1.3-1.5c0.5-0.4,0.9-0.8,1.4-1c0.5-0.2,0.9-0.3,1.4-0.2c0.5,0.1,0.9,0.3,1.2,0.8c0.2,0.3,0.4,0.6,0.4,0.9
				c0,0.3,0,0.6,0,0.9c-0.1,0.3-0.2,0.6-0.3,0.9c-0.1,0.3-0.3,0.6-0.4,1c-0.1,0.3-0.2,0.7-0.3,1c-0.1,0.3-0.1,0.7,0,1
				c0.1,0.4,0.3,0.7,0.6,0.8c0.3,0.1,0.7,0.1,1.2-0.1c0.5-0.1,1-0.3,1.5-0.6c0.5-0.3,1-0.6,1.4-0.8c0.4-0.3,1-0.6,1.6-1
				c0.3-0.1,0.5,0,0.5,0.1c0,0.1,0,0.3-0.2,0.5c-0.2,0.2-0.4,0.5-0.8,0.7c-0.3,0.3-0.7,0.5-1.1,0.8c-0.4,0.3-0.9,0.5-1.4,0.7
				c-0.5,0.2-1,0.4-1.4,0.4c-0.5,0.1-0.9,0.1-1.3,0c-0.4-0.1-0.7-0.3-1-0.6c-0.1-0.1-0.2-0.3-0.3-0.4c-0.1-0.1-0.2-0.3-0.3-0.4
				c-0.2,0.2-0.4,0.4-0.6,0.6c-0.2,0.3-0.5,0.5-0.8,0.8c-0.3,0.3-0.6,0.5-0.9,0.7c-0.3,0.2-0.6,0.4-1,0.5c-0.3,0.1-0.7,0.2-1,0.1
				C53.4,31.8,53.1,31.6,52.8,31.4z M53,30.8c0.1,0.4,0.3,0.5,0.7,0.5c0.4,0,0.8-0.2,1.3-0.5c0.5-0.3,1-0.8,1.5-1.3
				c0.5-0.6,1-1.2,1.4-1.9c0.4-0.7,0.7-1.4,0.9-2.2c0.2-0.8,0.3-1.5,0.2-2.3c-0.3-0.2-0.6-0.2-1,0c-0.4,0.2-0.9,0.5-1.3,1
				c-0.5,0.5-0.9,1-1.4,1.6c-0.5,0.6-0.9,1.3-1.2,1.9c-0.3,0.6-0.6,1.2-0.8,1.8C52.9,30,52.9,30.5,53,30.8z"/>
		</g>
		<g id="XMLID_2462_">
			<path id="XMLID_2463_" d="M70.7,31.4c-0.4-0.3-0.8-0.7-1-1.1c-0.2-0.4-0.3-0.9-0.4-1.4h-0.2c-0.9,0.8-1.8,1.3-2.4,1.7
				c-0.7,0.4-1.3,0.6-1.7,0.7c-0.5,0.1-0.8,0-1.1-0.1c-0.3-0.2-0.4-0.4-0.5-0.7c-0.1-0.3-0.1-0.7,0-1.1c0.1-0.4,0.3-0.8,0.5-1.3
				c0.3-0.4,0.6-0.8,1-1.2c0.4-0.4,0.9-0.7,1.4-0.9c0.5-0.2,1.1-0.4,1.8-0.5c0.6-0.1,1.3,0,2.1,0.2l0.2-0.2l2.3-4.7
				c0.3,0,0.5,0.2,0.6,0.4c0.1,0.2,0.1,0.5,0,0.8c-0.1,0.3-0.2,0.5-0.3,0.8c-0.1,0.3-0.2,0.4-0.3,0.6c0,0.1-0.1,0.2-0.2,0.4
				c-0.1,0.2-0.2,0.4-0.3,0.7c-0.1,0.3-0.3,0.6-0.4,0.9c-0.2,0.3-0.3,0.6-0.4,0.9c-0.1,0.3-0.3,0.5-0.4,0.7
				c-0.1,0.2-0.2,0.3-0.2,0.4c-0.2,0.4-0.3,0.9-0.3,1.4c0,0.5,0,0.9,0.1,1.4c0,0.2,0.1,0.4,0.3,0.5s0.3,0.3,0.4,0.4
				c0.2,0.1,0.3,0.2,0.5,0.3c0.2,0.1,0.3,0.2,0.4,0.4c0,0.2-0.1,0.2-0.3,0.2c-0.1,0-0.3,0-0.4-0.1c-0.2-0.1-0.3-0.1-0.4-0.2
				C70.8,31.5,70.7,31.4,70.7,31.4z M64.2,30.6c0,0.2,0.2,0.3,0.5,0.2c0.3-0.1,0.7-0.3,1.1-0.5c0.4-0.3,0.9-0.6,1.3-0.9
				c0.5-0.4,0.9-0.7,1.3-1.1c0.4-0.4,0.7-0.7,0.9-1c0.2-0.3,0.3-0.5,0.2-0.7c-0.4-0.2-0.8-0.3-1.2-0.3c-0.4,0-0.9,0.1-1.3,0.2
				c-0.4,0.2-0.9,0.4-1.3,0.7c-0.4,0.3-0.7,0.6-1,1c-0.3,0.4-0.5,0.8-0.6,1.2C64.1,29.7,64.1,30.2,64.2,30.6z"/>
		</g>
		<g id="XMLID_2458_">
			<path id="XMLID_2459_" d="M73.4,31.6c-0.3-0.1-0.6-0.3-0.8-0.5c-0.2-0.2-0.3-0.5-0.4-0.8c-0.1-0.3-0.1-0.6,0-0.9
				c0-0.3,0.1-0.6,0.2-0.9c0.3-0.4,0.7-0.8,1.2-1.3c0.4-0.5,0.9-1,1.4-1.4c0.5-0.5,1-0.9,1.5-1.3c0.5-0.4,1.1-0.7,1.6-0.9
				c0.2-0.1,0.3-0.1,0.4,0c0.1,0.1,0.2,0.2,0.2,0.4c0,0.2,0.1,0.4,0.1,0.6c0,0.2,0,0.5-0.1,0.7c0,0.2-0.1,0.4-0.1,0.6
				c-0.1,0.2-0.1,0.3-0.2,0.4c-0.1,0.2-0.4,0.4-0.8,0.6c-0.4,0.2-0.8,0.5-1.3,0.7c-0.5,0.3-1,0.5-1.5,0.8c-0.5,0.3-0.9,0.6-1.2,0.8
				c-0.3,0.3-0.5,0.5-0.6,0.8c-0.1,0.3,0.1,0.5,0.5,0.7c0.4,0,0.9,0,1.4-0.1c0.6-0.1,1.1-0.2,1.7-0.3c0.6-0.1,1.1-0.3,1.7-0.5
				c0.5-0.2,1-0.3,1.3-0.4l0.2,0.2c-0.3,0.3-0.7,0.6-1.2,0.9c-0.6,0.3-1.2,0.5-1.9,0.7c-0.7,0.2-1.3,0.3-2,0.3
				C74.3,31.8,73.8,31.7,73.4,31.6z M77.6,25c0,0-0.1,0-0.3,0.1c-0.2,0.1-0.4,0.3-0.6,0.4c-0.2,0.2-0.5,0.4-0.8,0.6
				c-0.3,0.2-0.5,0.4-0.7,0.6c-0.2,0.2-0.4,0.3-0.6,0.5c-0.2,0.1-0.2,0.2-0.2,0.2c0.2,0,0.4,0,0.7-0.1c0.3-0.1,0.6-0.2,0.9-0.4
				c0.3-0.2,0.6-0.3,0.9-0.5c0.3-0.2,0.5-0.4,0.7-0.6c0.2-0.2,0.3-0.4,0.3-0.5C77.9,25.1,77.8,25,77.6,25z"/>
		</g>
	</g>
	<g id="XMLID_2446_">
		<g id="XMLID_2454_">
			<path id="XMLID_2455_" d="M33.5,18.8c0,0,0-0.1,0-0.1c0-0.1,0-0.1,0-0.2c0-0.1,0.1-0.3,0.1-0.5c0.1-0.2,0.1-0.5,0.2-0.7
				c0.1-0.3,0.1-0.5,0.2-0.7c0.1-0.2,0.1-0.4,0.1-0.5c0-0.1,0.1-0.3,0.1-0.4c0-0.2,0.1-0.3,0-0.4c-0.1,0-0.3,0-0.5,0
				c-0.2,0-0.4,0.1-0.5,0.1c-0.2,0-0.3,0-0.5,0c-0.2,0-0.3-0.1-0.3-0.3c0.1-0.2,0.3-0.3,0.5-0.4c0.2-0.1,0.4-0.1,0.7-0.1
				c0.2,0,0.5-0.1,0.7-0.1c0.2-0.1,0.4-0.2,0.5-0.3c0.1-0.2,0.2-0.5,0.3-0.8c0.1-0.3,0.2-0.6,0.3-1c0.1-0.3,0.2-0.7,0.4-1
				c0.1-0.3,0.3-0.6,0.4-0.9c0.1-0.1,0.2-0.1,0.2,0c0.1,0.1,0.1,0.1,0.1,0.2c0,0.1,0,0.2,0.1,0.3c0,0.1,0,0.2,0,0.2
				c-0.1,0.2-0.1,0.5-0.3,0.7c-0.1,0.2-0.2,0.5-0.3,0.7c-0.1,0.3-0.2,0.5-0.3,0.8c-0.1,0.3-0.1,0.5,0,0.7h2.7c0,0,0,0,0.1,0.1
				c0,0.1,0.1,0.1,0.1,0.1c0,0.1,0,0.2-0.1,0.2c-0.1,0-0.3,0.1-0.5,0.1c-0.2,0-0.5,0-0.8,0c-0.3,0-0.6,0-0.8,0.1
				c-0.3,0-0.5,0.1-0.7,0.2c-0.2,0.1-0.4,0.2-0.4,0.4c-0.2,0.6-0.4,1.1-0.6,1.7c-0.2,0.6-0.4,1.1-0.5,1.7c0,0-0.1,0.1-0.1,0.1
				c-0.1,0.1-0.1,0.1-0.2,0.1c-0.1,0-0.1,0.1-0.2,0C33.6,19,33.6,18.9,33.5,18.8z"/>
		</g>
		<g id="XMLID_2451_">
			<path id="XMLID_2452_" d="M37.4,18.7C37.4,18.6,37.4,18.6,37.4,18.7c0-0.1,0-0.1,0-0.1c0-0.1,0.1-0.2,0.2-0.3
				c0.1-0.2,0.2-0.3,0.3-0.5c0.1-0.2,0.2-0.4,0.3-0.5c0.1-0.2,0.1-0.3,0.2-0.3c0,0,0.1-0.1,0.1-0.2c0.1-0.1,0.2-0.3,0.3-0.4
				c0.1-0.2,0.2-0.4,0.3-0.6c0.1-0.2,0.2-0.4,0.4-0.6c0.1-0.2,0.2-0.4,0.3-0.6c0.1-0.2,0.2-0.3,0.3-0.4c0.2-0.3,0.4-0.6,0.6-1
				c0.2-0.4,0.5-0.8,0.7-1.1c0.2-0.4,0.5-0.8,0.7-1.1c0.2-0.4,0.4-0.7,0.6-0.9c0.2-0.2,0.4-0.4,0.5-0.5c0.1-0.1,0.2,0,0.3,0.2v0.4
				c-0.1,0.1-0.1,0.2-0.2,0.4c-0.1,0.1-0.2,0.3-0.3,0.5c-0.1,0.2-0.2,0.3-0.3,0.5c-0.1,0.2-0.2,0.3-0.2,0.4
				c-0.1,0.1-0.2,0.3-0.4,0.6c-0.2,0.3-0.4,0.6-0.6,0.9c-0.2,0.3-0.4,0.7-0.6,1c-0.2,0.4-0.4,0.7-0.6,1c-0.2,0.3-0.3,0.6-0.4,0.8
				c-0.1,0.2-0.1,0.4-0.1,0.4c0.2-0.1,0.4-0.2,0.6-0.3c0.2-0.2,0.5-0.3,0.7-0.5c0.2-0.2,0.5-0.3,0.7-0.5c0.2-0.2,0.5-0.3,0.7-0.4
				c0.2,0,0.4,0.1,0.5,0.2c0.2,0.1,0.3,0.3,0.3,0.5c0,0.1,0,0.2,0,0.4c0,0.2,0,0.4,0,0.6c0,0.2,0,0.4,0,0.6c0,0.2,0,0.3,0,0.4
				c0,0.1,0.1,0.2,0.1,0.3c0.1,0.1,0.2,0.3,0.2,0.4c0.1,0.1,0.2,0.3,0.2,0.4c0.1,0.1,0.1,0.2,0.1,0.2c-0.2,0.1-0.3,0.1-0.5,0
				c-0.2-0.1-0.3-0.1-0.4-0.3c-0.1-0.1-0.2-0.3-0.3-0.4c-0.1-0.2-0.1-0.3-0.1-0.5c0-0.1,0-0.2,0-0.4c0-0.2,0-0.4,0-0.6
				c0-0.2,0-0.4,0-0.6c0-0.2,0-0.3,0-0.4l-0.3-0.2c-0.1,0-0.1,0-0.3,0.1s-0.3,0.2-0.4,0.3c-0.2,0.1-0.3,0.3-0.5,0.4
				c-0.2,0.2-0.3,0.3-0.5,0.4c-0.2,0.1-0.3,0.3-0.4,0.4c-0.1,0.1-0.2,0.2-0.2,0.2c-0.1,0.1-0.2,0.2-0.4,0.4
				c-0.2,0.2-0.4,0.4-0.6,0.6c-0.2,0.2-0.4,0.4-0.6,0.6c-0.2,0.2-0.3,0.3-0.4,0.4c-0.1,0-0.2,0-0.3,0C37.5,18.8,37.5,18.8,37.4,18.7
				z"/>
		</g>
		<g id="XMLID_2447_">
			<path id="XMLID_2448_" d="M44.8,18.8c-0.3-0.1-0.4-0.2-0.6-0.4c-0.1-0.2-0.2-0.4-0.3-0.6c0-0.2,0-0.4,0-0.7
				c0-0.2,0.1-0.5,0.1-0.7c0.3-0.3,0.5-0.6,0.8-0.9c0.3-0.3,0.6-0.7,1-1c0.4-0.3,0.7-0.6,1.1-0.9c0.4-0.3,0.8-0.5,1.2-0.7
				c0.1-0.1,0.2-0.1,0.3,0c0.1,0.1,0.1,0.2,0.2,0.3c0,0.1,0,0.3,0,0.5c0,0.2,0,0.3,0,0.5c0,0.2-0.1,0.3-0.1,0.5
				c0,0.1-0.1,0.2-0.1,0.3c-0.1,0.1-0.3,0.3-0.6,0.4c-0.3,0.2-0.6,0.3-1,0.5c-0.4,0.2-0.7,0.4-1.1,0.6c-0.4,0.2-0.6,0.4-0.9,0.6
				c-0.2,0.2-0.4,0.4-0.4,0.6c0,0.2,0.1,0.4,0.4,0.5c0.3,0,0.6,0,1,0c0.4-0.1,0.8-0.1,1.2-0.3c0.4-0.1,0.8-0.2,1.2-0.3
				c0.4-0.1,0.7-0.2,1-0.3l0.2,0.1c-0.2,0.2-0.5,0.5-0.9,0.7c-0.4,0.2-0.9,0.4-1.4,0.5c-0.5,0.1-1,0.2-1.4,0.3
				C45.4,18.9,45,18.9,44.8,18.8z M47.8,14c0,0-0.1,0-0.2,0.1c-0.1,0.1-0.3,0.2-0.4,0.3c-0.2,0.1-0.4,0.3-0.6,0.4
				c-0.2,0.2-0.4,0.3-0.5,0.4c-0.2,0.1-0.3,0.2-0.4,0.3c-0.1,0.1-0.2,0.1-0.1,0.1c0.1,0,0.3,0,0.5-0.1c0.2-0.1,0.4-0.2,0.7-0.3
				c0.2-0.1,0.5-0.2,0.7-0.4c0.2-0.1,0.4-0.3,0.5-0.4c0.1-0.1,0.2-0.3,0.2-0.4C48,14.1,48,14.1,47.8,14z"/>
		</g>
	</g>
</g>
</svg>
