<?xml version="1.0" encoding="utf-8"?>
<!-- Generator: Adobe Illustrator 23.0.1, SVG Export Plug-In . SVG Version: 6.00 Build 0)  -->
<svg version="1.2" baseProfile="tiny" id="Layer_1" xmlns="http://www.w3.org/2000/svg" xmlns:xlink="http://www.w3.org/1999/xlink"
	 x="0px" y="0px" viewBox="0 0 80 50" xml:space="preserve">
<g id="XMLID_3744_">
	<g id="XMLID_3804_">
		<g id="XMLID_3823_">
			<path id="XMLID_3824_" fill="#C6C6C6" d="M55.5,26.5c-0.1,0.2-0.4,0.7-0.7,1.3c0,0.1-0.1,0.1-0.1,0.2c0-0.1,0-0.1,0.1-0.2
				c0,0,0,0.1,0,0.1c0,0,0,0,0,0.1c-0.3,0.5-0.6,1.1-0.8,1.5c-0.2,0.2-0.3,0.3-0.5,0.6c-0.3,0.4,0.2-0.6,0.3-0.9
				c-0.3,0.3-0.6,0.8-1,1.4c0,0-0.1,0.1-0.1,0.1c0.5-0.8,1-1.6,1.4-2.5l0,0.1c0.2-0.4,0.3-0.6,0.4-0.9c0.1-0.2,0.2-0.5,0.4-1
				c0,0,0,0,0,0l0,0c-0.1,0.1-0.2,0.4-0.4,0.8c0,0.1-0.1,0.2-0.1,0.3c1.5-3.8,1.5-8.2-0.2-12.2l0,0c-0.3-0.6-0.5-1.2-0.9-1.7
				c0.4,0.5,0.7,1.1,1,1.7c0.1-0.2,0.1-0.4,0-0.9c-0.1-0.3-0.1-0.6-0.3-1c-0.1-0.2-0.2-0.4-0.4-0.7c-0.1-0.1-0.2-0.3-0.2-0.4
				c-0.1-0.2-0.2-0.3-0.3-0.5c-0.2-0.4-0.5-0.7-0.8-1.1c0-0.1-0.1-0.1-0.1-0.2c-0.2-0.2-0.4-0.5-0.6-0.8c-0.1-0.1-0.2-0.3-0.3-0.4
				C51,9,50.9,8.9,50.7,8.8C50,8.3,49,7.5,47.9,6.9c-0.2-0.1-0.4-0.2-0.6-0.3c-0.1-0.1-0.2-0.1-0.3-0.2c-0.3-0.1-0.6-0.3-1-0.4
				c-0.2-0.1-0.3-0.2-0.5-0.2c-0.2-0.1-0.5-0.2-0.7-0.2c-2.1-0.8-4.2-1.1-6.2-1.1c-2.1,0.1-4.1,0.5-5.9,1.3C32.3,5.8,32,6,31.6,6.2
				c-0.3,0.2-0.7,0.3-1,0.6l-1,0.6l-0.2,0.2l-0.2,0.2l-0.5,0.4c-0.6,0.5-1.2,1-1.7,1.6c-0.3,0.3-0.5,0.6-0.7,0.9
				c-0.2,0.2-0.3,0.4-0.4,0.6c-0.1,0.1-0.1,0.2-0.2,0.3c-0.2,0.2-0.4,0.4-0.6,0.7c-0.3,0.3-0.5,0.7-0.8,1.2c-0.8,1.3-1.5,3-1.8,4.7
				l-0.1,0.3l0,0.3c0,0.2-0.1,0.4-0.1,0.6c0,0.2,0,0.4-0.1,0.6c0,0.2,0,0.4,0,0.6c0,0.4,0,0.7,0,1.1c0,0.3,0.1,0.6,0.1,0.9
				c0,0.3,0,0.5,0,0.8c0,0.3,0,0.5,0.1,0.7c0.1,0.5,0.1,0.9,0.2,1.2c0.2,0.8,0.5,1.6,0.8,2.4c0,0,0,0,0,0c0.6,1.8,1.6,3.6,2.9,4.9
				c0,0-0.1-0.1-0.1-0.2c0.1,0.1,0.1,0.1,0.2,0.2c0.1,0.1,0.2,0.2,0.3,0.3c0.7,0.8,1.4,1.5,2.2,2.1c0.2,0.2,0.5,0.3,0.7,0.5
				c0.2,0.2,0.5,0.3,0.7,0.5c0.3,0.1,0.5,0.3,0.7,0.4l0.4,0.2c0.1,0.1,0.3,0.1,0.4,0.2c1,0.5,2,0.9,2.8,1.1c0.5,0.1,1,0.2,1.4,0.3
				c0.5,0.1,0.9,0.1,1.4,0.2c0.1,0,0.3,0,0.4,0c0,0,0,0,0,0c0,0,0.1,0,0.1,0c0,0,0.1,0,0.1,0c0.1,0,0.2,0,0.3,0c0,0,0,0,0,0l0,0
				c0.2,0,0.4,0,0.6,0c-0.2,0-0.4,0-0.6,0l0,0c0.1,0,0.2,0,0.4,0c0.2,0,0.4,0,0.6,0c0.1,0,0.1,0,0.2,0c0.4,0,0.8,0,1.2,0
				c0.4,0,0.7-0.1,1-0.1c0.3,0,0.5,0,0.6,0c0.5-0.2-0.5,0-1.4,0.1c0.5-0.1,1-0.1,1.5-0.2c0.5-0.1,1-0.3,1.5-0.4c0.1,0,0.1,0,0.2,0
				c-0.1,0-0.2,0.1-0.3,0.1c-0.3,0.1-0.5,0.2-0.9,0.2c-0.2,0.1-0.1,0.1,0.2,0.1c1-0.2,2.7-0.8,2.8-0.9c0,0,0,0,0,0
				c0.2-0.1,0.3-0.1,0.5-0.2l0.4-0.3l0.2-0.1c-0.1,0-0.1,0-0.2,0c1.1-0.6,2.3-1.3,3-2c0.1-0.1,0.1-0.1,0.2-0.2
				c0.3-0.2-0.1,0.2-0.2,0.3c0.2-0.1,0.4-0.3,0.5-0.4c0.1-0.1,0.3-0.3,0.4-0.4c0.2-0.2,0.4-0.4,0.5-0.5l-0.6,0.6L50,34.4l-0.2,0.1
				c0.1-0.1,0.1-0.1,0.1-0.1c0.1-0.1,0.1-0.1,0.2-0.2c0.3-0.3,0.4-0.5,0.6-0.6c0.9-0.8,1.5-1.4,2.1-2c0,0,0,0.1,0,0.1
				c-0.1,0.1-0.1,0.2-0.2,0.2c-0.3,0.4-0.8,0.9-1,1.1l0.8-0.7c0.1-0.1,0.1-0.2,0.2-0.3c0.1-0.1,0.1-0.2,0.2-0.2c0,0,0,0,0,0
				c0,0,0,0,0,0l0-0.1c0,0,0,0,0.1-0.1l0-0.1l0.3-0.4c0,0,0,0,0,0c0.1-0.1,0.2-0.2,0.4-0.4c0.2-0.3,0.4-0.6,0.8-1.1c0,0,0,0,0-0.1
				c0.3-0.4,0.5-0.9,0.8-1.4c0.1-0.1,0.2-0.5,0.3-0.9c0,0,0-0.1,0-0.1c0.1-0.3,0.1-0.5,0.1-0.6C55.5,26.6,55.5,26.5,55.5,26.5z
				 M52.9,31.5L52.9,31.5C52.9,31.5,52.9,31.5,52.9,31.5c0.1-0.1,0.1-0.1,0.1-0.1C52.9,31.4,52.9,31.5,52.9,31.5z"/>
		</g>
		<g id="XMLID_3821_">
			<path id="XMLID_3822_" fill="#F8C5CE" d="M55.1,15.6L55,15.3c0,0,0,0,0,0C55,15.4,55.1,15.5,55.1,15.6
				C55.1,15.6,55.1,15.6,55.1,15.6z"/>
		</g>
		<g id="XMLID_3819_">
			<path id="XMLID_3820_" fill="#F8C5CE" d="M55,15.3c0-0.1-0.1-0.2-0.1-0.3c-0.1-0.2,0,0.2,0.2,0.7C55.3,16.2,54.8,14.9,55,15.3z"
				/>
		</g>
		<g id="XMLID_3817_">
			<path id="XMLID_3818_" fill="#F8C5CE" d="M55.1,15.1c0.1,0.3,0.3,0.9,0.2,0.7l0.2,0.5L55,14.8c0.1,0.3,0.2,0.8,0.1,0.8l0.2,0.6
				C55.2,15.6,55.2,15.4,55.1,15.1z"/>
		</g>
		<g id="XMLID_3815_">
			<path id="XMLID_3816_" fill="#F8C5CE" d="M56,18.6c0,0,0,0.1,0,0.3C56.1,18.9,56.1,18.8,56,18.6z"/>
		</g>
		<g id="XMLID_3813_">
			<path id="XMLID_3814_" fill="#F8C5CE" d="M56,18.9c0,0.1-0.2-0.5-0.1,0.6c0-0.3,0-0.6,0-0.5l0,0.3C56.1,19.4,56.1,19.1,56,18.9z"
				/>
		</g>
		<g id="XMLID_3811_">
			<path id="XMLID_3812_" fill="#F8C5CE" d="M55.3,16.6c0-0.1-0.1-0.3-0.1-0.4c0,0.1,0,0.3,0.1,0.5c0.1,0.2,0.1,0.5,0.2,0.8l0.1,0.2
				L55.4,17L55.3,16.6z"/>
		</g>
		<g id="XMLID_3809_">
			<path id="XMLID_3810_" fill="#F8C5CE" d="M51.8,33.1L51.8,33.1c-0.1,0.1-0.1,0.1-0.2,0.2C51.7,33.2,51.8,33.2,51.8,33.1z"/>
		</g>
		<g id="XMLID_3807_">
			<path id="XMLID_3808_" fill="#F8C5CE" d="M51.2,33.7c-0.1,0.1-0.2,0.2-0.5,0.5c0.3-0.2,0.6-0.4,0.8-0.7c0.1-0.1,0.1-0.1,0.1-0.2
				C51.4,33.6,51.3,33.6,51.2,33.7z"/>
		</g>
		<g id="XMLID_3805_">
			<path id="XMLID_3806_" fill="#F8C5CE" d="M51.6,33.2l0.1-0.1c0.3-0.4,0.5-0.6,0.8-0.9c0.2-0.3,0.5-0.6,0.9-1.2
				c-0.3,0.4-0.6,0.8-0.9,1.1C52.2,32.6,51.9,32.9,51.6,33.2z"/>
		</g>
	</g>
	<g id="XMLID_3766_">
		<g id="XMLID_3801_">
			<path id="XMLID_3802_" fill="#020203" d="M2.3,19.9L2.3,19.9C2,20,1.8,20.2,1.8,20.5v2.6c0,1.5-0.8,2-1.8,2.2l0-0.1
				c0.5-0.2,1-0.7,1-2v-1.8C1,20.1,1,20,0.5,20v-0.1H2.3z"/>
		</g>
		<g id="XMLID_3797_">
			<path id="XMLID_3798_" fill="#020203" d="M10.2,24.2H8.6v-0.1c0.4,0,0.2-0.5,0.1-0.7L8.5,23H7c-0.1,0.2-0.4,1.2,0.5,1.2v0.1H6.1
				v-0.1c0.2,0,0.4,0,0.9-1.4L8,19.9h0.1c1.1,2.7,1.5,3.8,1.5,3.8C9.9,24.2,10,24.1,10.2,24.2L10.2,24.2z M8.5,22.9l-0.8-1.9L7,22.9
				H8.5z"/>
		</g>
		<g id="XMLID_3794_">
			<path id="XMLID_3795_" fill="#020203" d="M19.6,24.1L19.6,24.1l-1.7,0.1v-0.1c0.3,0,0.4-0.2,0.4-0.6v-3.3l-1.6,4.1h-0.1L15,20.5
				v2.1c0,0.4,0,1.5,0.8,1.5v0.1H14v-0.1c0.8,0,0.9-1.1,0.9-1.5v-2.3C14.7,20,14.3,20,14.2,20v-0.1h1.4l1.5,3.3l1.2-3.3h1.2V20
				c-0.3,0-0.5,0.1-0.5,0.5v3C19.1,24,19.4,24.1,19.6,24.1z"/>
		</g>
		<g id="XMLID_3791_">
			<path id="XMLID_3792_" fill="#020203" d="M25.4,19.9L25.4,19.9c-0.3,0.1-0.5,0.2-0.5,0.6v3c0,0.4,0.2,0.6,0.5,0.6v0.1h-1.7v-0.1
				c0.3,0,0.5-0.2,0.5-0.6v-3c0-0.4-0.2-0.5-0.5-0.5v-0.1H25.4z"/>
		</g>
		<g id="XMLID_3788_">
			<path id="XMLID_3789_" fill="#020203" d="M32.7,22.9v1.3h-3.3v-0.1c0.3,0,0.3-0.3,0.3-0.7v-2.8c0-0.4-0.1-0.7-0.3-0.7v-0.1h3.2
				V21h-0.1c-0.1-1-1.5-1-1.7-1h-0.3v2h0.3c0.1,0,0.9,0,0.9-0.6h0.1v1.4h-0.1c0-0.6-0.9-0.6-0.9-0.6h-0.3v2.1h0.3
				C31.1,24.1,32.4,24.1,32.7,22.9L32.7,22.9z"/>
		</g>
		<g id="XMLID_3783_">
			<path id="XMLID_3784_" fill="#020203" d="M41.4,23.5c0,0.5-0.4,0.7-0.7,0.8c0,0-0.6,0.1-0.9-0.3l-0.3-0.5
				c-0.2,0.7-1.5,1.2-2.1,0.4c-0.6-0.8,0.2-1.5,0.7-1.8l0.3-0.2L38,21.4c-0.6-0.8-0.2-1.6,0.5-1.7c0.4-0.1,0.7,0,0.9,0.3
				c0.2,0.3,0.5,1-0.4,1.7l0.8,1.2c0.2-0.5,0.5-0.6,0.7-0.7c0.1,0,0.3,0,0.4,0.1c0.1,0.1,0.2,0.3,0,0.5c-0.1,0.1-0.4,0.2-0.5,0
				c-0.1-0.1-0.1-0.1-0.1-0.2c0-0.1-0.3,0-0.5,0.4l0.5,0.7c0.2,0.3,0.5,0.3,0.5,0.3C41,23.8,41.3,23.7,41.4,23.5L41.4,23.5z
				 M39.4,23.4l-1-1.4l-0.3,0.2c-0.3,0.2-0.6,0.9-0.1,1.5C38.3,24,39.1,24,39.4,23.4z M38.5,20.9l0.4,0.7c0.8-0.5,0.7-1.2,0.4-1.5
				c-0.2-0.2-0.4-0.3-0.7-0.2C38.4,19.9,38.2,20.4,38.5,20.9z"/>
		</g>
		<g id="XMLID_3779_">
			<path id="XMLID_3780_" fill="#020203" d="M49.6,24.2H48v-0.1c0.4,0,0.2-0.5,0.1-0.7L47.9,23h-1.5c-0.1,0.2-0.4,1.2,0.5,1.2v0.1
				h-1.4v-0.1c0.2,0,0.4,0,0.9-1.4l1.1-2.8h0.1c1.1,2.7,1.5,3.8,1.5,3.8C49.3,24.2,49.4,24.1,49.6,24.2L49.6,24.2z M47.9,22.9
				l-0.8-1.9l-0.7,1.9H47.9z"/>
		</g>
		<g id="XMLID_3776_">
			<path id="XMLID_3777_" fill="#020203" d="M58.2,19.9L58.2,19.9c-0.9,0.1-0.9,1.3-0.9,1.5v2.8h-0.3l-2.7-3.4v1.8
				c0,0.3,0,1.5,0.8,1.5v0.1h-1.8v-0.1c0.9,0,0.9-1.2,0.9-1.5v-1.9l-0.2-0.3c-0.4-0.5-0.6-0.4-0.7-0.5v-0.1h1.3l2.6,3.3v-1.7
				c0-0.3,0-1.5-0.8-1.5v-0.1H58.2z"/>
		</g>
		<g id="XMLID_3773_">
			<path id="XMLID_3774_" fill="#020203" d="M66.9,19.9L66.9,19.9C66,20,66,21.2,66,21.4v2.8h-0.3l-2.7-3.4v1.8c0,0.3,0,1.5,0.8,1.5
				v0.1h-1.8v-0.1c0.9,0,0.9-1.2,0.9-1.5v-1.9l-0.2-0.3C62.4,19.9,62.2,20,62,20v-0.1h1.3l2.6,3.3v-1.7c0-0.3,0-1.5-0.8-1.5v-0.1
				H66.9z"/>
		</g>
		<g id="XMLID_3770_">
			<path id="XMLID_3771_" fill="#020203" d="M72.7,19.9L72.7,19.9c-0.3,0.1-0.5,0.2-0.5,0.6v3c0,0.4,0.2,0.6,0.5,0.6v0.1H71v-0.1
				c0.3,0,0.5-0.2,0.5-0.6v-3c0-0.4-0.2-0.5-0.5-0.5v-0.1H72.7z"/>
		</g>
		<g id="XMLID_3767_">
			<path id="XMLID_3768_" fill="#020203" d="M80,22.9v1.3h-3.3v-0.1c0.3,0,0.3-0.3,0.3-0.7v-2.8c0-0.4-0.1-0.7-0.3-0.7v-0.1h3.2V21
				h-0.1c-0.1-1-1.5-1-1.7-1h-0.3v2h0.3c0.1,0,0.9,0,0.9-0.6h0.1v1.4h-0.1c0-0.6-0.9-0.6-0.9-0.6h-0.3v2.1h0.3
				C78.3,24.1,79.7,24.1,80,22.9L80,22.9z"/>
		</g>
	</g>
	<g id="XMLID_3745_">
		<g id="XMLID_3763_">
			<path id="XMLID_3764_" fill="#020203" d="M28.9,45.6c-0.6,0-0.9-0.2-0.9-0.2v-0.7h0.1C28.1,45,28.3,45.5,28.9,45.6
				c0.4-0.1,0.5-0.6,0.1-0.9l-0.5-0.4c-0.4-0.3-0.7-0.6-0.4-1c0,0,0.2-0.3,0.7-0.3c0.5,0,0.8,0.2,0.8,0.2v0.6h-0.1
				c0-0.3-0.2-0.7-0.8-0.7c-0.4,0-0.6,0.5-0.1,0.8l0.6,0.4c0.5,0.3,0.6,0.7,0.4,1C29.6,45.3,29.4,45.6,28.9,45.6z"/>
		</g>
		<g id="XMLID_3760_">
			<path id="XMLID_3761_" fill="#020203" d="M34.2,43.1v0.7h-0.1c0-0.6-0.7-0.6-0.7-0.6h-0.1v2c0,0.2,0.1,0.3,0.3,0.3v0.1h-1v-0.1
				c0.1,0,0.3-0.1,0.3-0.3v-2h-0.1c-0.1,0-0.7,0-0.7,0.6H32v-0.7H34.2z"/>
		</g>
		<g id="XMLID_3757_">
			<path id="XMLID_3758_" fill="#020203" d="M36.6,44.7v-1.2c0-0.2-0.1-0.3-0.3-0.3v-0.1h1v0.1c-0.1,0-0.3,0-0.3,0.3v1.3
				c0,0.4,0.3,0.7,0.6,0.7c0.3,0,0.6-0.2,0.6-0.7v-1c0-0.2,0-0.6-0.4-0.6v-0.1h1v0.1c-0.5,0-0.5,0.4-0.5,0.6v1
				c0,0.7-0.5,0.9-0.8,0.9C37,45.6,36.6,45.3,36.6,44.7z"/>
		</g>
		<g id="XMLID_3753_">
			<path id="XMLID_3754_" fill="#020203" d="M41.8,45.5H41v-0.1c0.1,0,0.2-0.2,0.2-0.4v-1.5c0-0.2-0.1-0.4-0.2-0.4v-0.1h0.8
				c0.7,0,1.4,0.2,1.4,1.2C43.2,45.4,42.5,45.5,41.8,45.5z M41.8,43.2h-0.2v2.3h0.2c0.4,0,0.9,0,0.9-1.2
				C42.7,43.2,42.2,43.2,41.8,43.2z"/>
		</g>
		<g id="XMLID_3750_">
			<path id="XMLID_3751_" fill="#020203" d="M46.5,43.1L46.5,43.1c-0.1,0.1-0.3,0.1-0.3,0.3v1.7c0,0.2,0.1,0.3,0.3,0.3v0.1h-1v-0.1
				c0.1,0,0.3-0.1,0.3-0.3v-1.7c0-0.2-0.1-0.3-0.3-0.3v-0.1H46.5z"/>
		</g>
		<g id="XMLID_3746_">
			<path id="XMLID_3747_" fill="#020203" d="M50,45.6c-0.8,0-1.2-0.5-1.2-1.2c0-0.7,0.4-1.3,1.2-1.3c0.8,0,1.2,0.6,1.2,1.3
				C51.2,45,50.8,45.6,50,45.6z M50,43.1c-0.4,0-0.7,0.3-0.7,1.2c0,1,0.3,1.2,0.7,1.2c0.4,0,0.7-0.2,0.7-1.2
				C50.7,43.4,50.4,43.1,50,43.1z"/>
		</g>
	</g>
</g>
</svg>
