<?xml version="1.0" encoding="utf-8"?>
<!-- Generator: Adobe Illustrator 23.0.1, SVG Export Plug-In . SVG Version: 6.00 Build 0)  -->
<svg version="1.2" baseProfile="tiny" id="Layer_1" xmlns="http://www.w3.org/2000/svg" xmlns:xlink="http://www.w3.org/1999/xlink"
	 x="0px" y="0px" viewBox="0 0 80 50" xml:space="preserve">
<g id="XMLID_3980_">
	<g id="XMLID_4082_">
		<g id="XMLID_4131_">
			<path id="XMLID_4132_" fill="#706F6F" d="M0.4,41.4c-0.1,0.1-0.2,0.1-0.2,0.1c0,0,0,0.1,0,0.1C0.2,41.5,0.3,41.5,0.4,41.4z"/>
		</g>
		<g id="XMLID_4129_">
			<path id="XMLID_4130_" fill="#706F6F" d="M0.1,40.2C0,40.2,0,40.2,0.1,40.2c-0.1,0.1,0,0.1,0,0.1C0,40.3,0,40.2,0.1,40.2z"/>
		</g>
		<g id="XMLID_4127_">
			<path id="XMLID_4128_" fill="#706F6F" d="M0.2,41.6c0.2,0.3,0.5,0.6,0.5,1c-0.1,0.1-0.4,0.2-0.6,0.3c0,0.2,0.2,0.4,0.3,0.5
				c-0.1,0.1-0.3,0.1-0.2,0.2c0,0.3,0.3,0.4,0.6,0.3C0.8,42.6,2.1,41.5,0.2,41.6z"/>
		</g>
		<g id="XMLID_4125_">
			<path id="XMLID_4126_" fill="#706F6F" d="M0.9,40.3c-0.2,0.1-0.5,0.3-0.7,0.4c0,0.2,0,0.5,0.2,0.7C0.7,41,0.8,40.7,0.9,40.3z"/>
		</g>
		<g id="XMLID_4123_">
			<path id="XMLID_4124_" fill="#706F6F" d="M56.8,10.6c0-0.1,0-0.1,0.1-0.1C56.9,10.5,56.8,10.5,56.8,10.6c0,0.1,0.1,0.1,0,0.2
				c0.4-0.4,0.9-0.7,1.5-1.1c0-0.1,0-0.3,0.1-0.4c-1.3,0.8-2.7,1.5-3.5,2.5C55.6,11.4,56,11,56.8,10.6z"/>
		</g>
		<g id="XMLID_4121_">
			<path id="XMLID_4122_" fill="#706F6F" d="M58.2,8.7c0,0,0.1-0.1,0.1-0.1C58.1,8.6,58.1,8.7,58.2,8.7z"/>
		</g>
		<g id="XMLID_4119_">
			<path id="XMLID_4120_" fill="#706F6F" d="M35.2,23.3c-0.8,0.5-1.4,1.2-1.9,1.9c1.4-1.1,3-2,4-3C36.6,22.6,35.9,22.9,35.2,23.3z"
				/>
		</g>
		<g id="XMLID_4117_">
			<path id="XMLID_4118_" fill="#706F6F" d="M30.2,28.3c1.1-0.4,1.8-1,2.5-1.8c-0.8,0.5-1.6,1-2.3,1.5
				C30.3,28.1,30.3,28.2,30.2,28.3z"/>
		</g>
		<g id="XMLID_4115_">
			<path id="XMLID_4116_" fill="#706F6F" d="M31.1,27.1c0.9-0.5,1.6-1.2,2.2-1.9C32.5,25.8,31.7,26.4,31.1,27.1z"/>
		</g>
		<g id="XMLID_4113_">
			<path id="XMLID_4114_" fill="#706F6F" d="M45.4,9.2c0.5-0.6,0.8-0.9,1-1c0-0.2,0.1-0.4,0.1-0.7c0,0-0.1,0-0.1,0.1
				c-0.6,0.5-1.1,1-1.7,1.5c-0.2,0.3-0.4,0.5-0.5,0.8C44.6,9.6,45,9.4,45.4,9.2z"/>
		</g>
		<g id="XMLID_4111_">
			<path id="XMLID_4112_" fill="#706F6F" d="M46.4,8.2C46.2,9.6,47.2,7.6,46.4,8.2L46.4,8.2z"/>
		</g>
		<g id="XMLID_4109_">
			<path id="XMLID_4110_" fill="#706F6F" d="M45.4,15.8C45.3,15.9,45.3,15.9,45.4,15.8C45.2,16,45.1,16,45,16.1
				C45.1,16,45.2,15.9,45.4,15.8z"/>
		</g>
		<g id="XMLID_4107_">
			<path id="XMLID_4108_" fill="#706F6F" d="M36.4,17.3c0.5-0.3,1-0.7,1.5-1c-1.1,0.7-2.1,1.3-2.9,2.1c0.1-0.1,0.3-0.1,0.5-0.1
				C35.6,17.9,36,17.5,36.4,17.3z"/>
		</g>
		<g id="XMLID_4097_">
			<path id="XMLID_4098_" fill="#706F6F" d="M49.2,12.8c-1.4,1-2.7,2.1-4,3.1c-2.9,1.5-5.5,3.2-7.7,5.3c-1.8,1.9-5.8,3.7-7.2,6.3
				c0.3-0.1,0.5-0.2,0.7-0.3c-0.3,0.3-0.5,0.6-0.7,0.9c-3.5,2.2-6.9,4.3-10.7,6.2c-0.6,0.3-0.8,0.8-1.4,1.1
				c-0.6,0.3-1.1,0.6-1.6,0.9c0,0,0,0,0.1,0c-2.2,1.3-4.3,2.6-6.5,4.2c-1.1,0.7-2.2,1.2-3.3,1.7C6.5,42.4,6.3,42,6,42.1
				c-1.3,0.1-2.3,0.2-3.7,0.7c0,0-0.1-0.2-0.1-0.3c-0.2,0.1-0.3,0.2-0.5,0.3c0.1-1.3,1.4-2.5-0.6-2.3c0,0,0,0,0,0
				c0.1-0.1,0.1-0.1,0.2-0.2c0,0,0,0,0,0c0,0,0,0,0,0c0.3-0.3,0.4-0.6,0.5-1c-0.2,0.1-0.5,0.3-0.7,0.4c0-0.1-0.1-0.3-0.1-0.4
				c0,0,0-0.1,0-0.1c0.1-0.1,0.2-0.1,0.2-0.1c0-0.1,0-0.2,0-0.2C1.6,38,2.5,37.2,2.1,37c-0.2-0.1-0.6,0.3-1.1,0.7c0,0-0.1,0-0.2,0
				c0.6-0.4-0.3-0.6,0-0.9c0.6-0.3,1.1-0.7,1.6-1c2.2-1.2,4.1-2.3,6.1-3.7c0.1-0.1,0.2-0.1,0.3-0.2c1-0.7,2-1.2,3.1-1.7
				c0,0.1-0.1,0.2-0.1,0.3c0.9-0.4,1.7-0.8,2.5-1.4c1.9-1.4,3.8-2.9,5.9-4.1c2.3-1.3,4.4-2.6,6.6-4.2c-0.9,0.7-1.7,1.4-2.7,2
				c-0.4,0.2-0.9,0.4-1.3,0.7c0.5-0.2,0.9-0.4,1.3-0.7c1.7-0.9,3.5-1.7,4.4-3.2c0.2,0,0.2,0.1,0.4,0c1-0.5,2-0.9,2.6-1.7
				c0-0.1,0.4-0.3,0.1-0.4c0.8-0.5,1.7-1,2.5-1.6c0.3-0.2,0.6-0.6,0.8-1c2.7-2,5.4-4,8.3-6.2c0.7-0.5,1.7-1,2.5-1.4
				c-1,0.9-2.1,1.8-3.2,2.7c-1.2,0.6-2.4,1.2-3.1,2.1c-0.2,0.2-0.4,0.4-0.5,0.6c1.2-0.9,2.4-1.8,3.6-2.7c0.7-0.3,1.5-0.6,2.2-1
				c0,0,0,0,0,0c-0.5,0.4-1,0.8-1.5,1.2c-1.1,0.5-2.1,1-2.8,1.8c-0.1,0.1-0.2,0.2-0.3,0.3c-0.2,0.2-0.4,0.4-0.5,0.6
				c0.8-0.5,1.5-1.1,2.2-1.7c0.5-0.3,0.9-0.7,1.4-1c0.3-0.1,0.6-0.3,1-0.4c0,0,0,0.1-0.1,0.1c-0.2,0.2-0.5,1.7,0.1,1.7
				c2.1-1.1,4.9-3.1,4.9-3c0.3,0.3-3.1,2.7-2.9,2.7c0.2-0.1,0.4-0.1,0.7-0.2c-0.2,0.2-0.3,0.3-0.4,0.5c-0.4,0.3-1,0.5-1.1,0.8
				c-0.7,1-1.9,1.4-2.8,2.4c-0.5,0.6-1.2,1.4-1.8,2.2c0.1,0.2-0.4,0.3-0.1,0.4c-0.8,0.4-1.7,0.9-1.7,1.6c0,0,0,0,0,0
				c-0.1,0-0.1,0.1-0.2,0.2c-1.3,0.6-2,1.6-3,2.5c-0.4,0.3-0.8,0.5-1.2,0.7c0.3-0.1,0.7-0.3,1-0.5c0.1-0.1,0.2-0.1,0.2-0.2
				c1-0.7,1.9-1.4,2.7-2.1c0.1-0.1,0.1-0.2,0.2-0.4c0.1,0,0.1-0.1,0.2-0.1c0,0,0-0.1,0-0.1c0.8-0.8,1.8-1.4,2.5-2.1
				c1.4-1.1,3.1-1.8,4.7-2.6c-0.7,0.6-1.4,1.1-2,1.7c0.9-0.6,1.7-1.3,2.4-1.9c0.1-0.1,0.3-0.1,0.4-0.2l0.8-0.4
				c-0.3,0.1-0.5,0.2-0.8,0.3c0.5-0.4,0.9-0.7,1.3-1.1c2.5-1.9,5.3-3.6,8.1-4.9c0,0.1,0,0.3,0,0.4c-1.3,0.8-2.7,1.5-3.5,2.5
				c0.8-0.4,1.2-0.8,2-1.3c0,0.1,0.1,0.1,0,0.2c0.4-0.4,0.9-0.7,1.5-1.1c-0.1,0.3-0.1,0.7-0.2,1c-0.2,0.3-0.6,0.5-1,0.8
				c-1.7,1.1-3.4,1.9-5.1,3.1c-1.6,0.8-3.2,1.6-4.7,2.4C46.7,14.8,48,13.8,49.2,12.8z M4.3,39.3c0.1-0.1,0.2-0.2,0.4-0.4
				c0,0-0.1,0-0.1,0C4.4,39,4.3,39.1,4.3,39.3z M7.5,37.7c-1,0.3-2.2,1.2-3.3,2c0,0,0,0.1,0,0.1C5.3,39.3,6.4,38.4,7.5,37.7z
				 M12.3,37.5C12.2,37.5,12.2,37.5,12.3,37.5C12.2,37.5,12.2,37.5,12.3,37.5C12.2,37.5,12.3,37.5,12.3,37.5z M27.5,25.9
				c-0.9,1-2.2,1.7-3.5,2.6c-0.4,0.2-0.6,0.8-1.2,1.1c-0.6,0.4-1,0.8-1.5,1.2l0.5,0c-1,0.4-1.3,1.2-2.3,1.6c0,0.1,0,0.3-0.1,0.4
				c-0.6,0.4-1.4,0.6-1.9,1.1c-0.6,0.4-1.3,0.8-1.8,1.3c-0.1,0.1-0.3,0.5-0.5,0.7c-0.3,0.2-0.6,0.4-1,0.6c0,0,0.1,0,0.1,0
				c0.3-0.1,0.5-0.3,0.8-0.5c0.7-0.6,1.6-1.3,2.4-1.8c2-1.3,3.7-2.6,5.5-4c0.4-0.3,0.7-0.7,1.1-1c1.1-1,2.6-1.7,3.1-2.8
				C27.2,26.3,27.5,26.2,27.5,25.9z M27.1,21.3c-1.3,1.1-2.8,2.2-4.2,2.8c-1.1,0.6-4,2.8-2.9,3.5C20.4,25,29.1,22.8,27.1,21.3z
				 M37.7,13.6c-0.5,0.4-1,0.9-1.6,1.2C36.6,14.4,37.1,14,37.7,13.6z M33.7,20.3c1.5-1.6,3.3-2.7,4.9-3.9c1.2-1,3-1.3,3.9-2.6
				c0-0.1-0.1-0.2-0.1-0.3l-0.1,0.2c-0.5,0.2-1,0.3-1.4,0.4c0,0,0,0,0.1-0.1c0,0-0.1,0.1-0.1,0.1c-0.3,0.1-0.6,0.2-0.9,0.5
				c-0.1,0.1-0.3,0.2-0.4,0.4C38,16,36.3,17,35,18.4c-0.8,0.8-1.4,1.6-2.2,2.4C33,20.7,33.5,20.5,33.7,20.3z"/>
		</g>
		<g id="XMLID_4095_">
			<path id="XMLID_4096_" fill="#706F6F" d="M46.6,13.9c0.5-0.4,1.1-0.8,1.6-1.2c0.4-0.4,0.8-0.7,1.2-1.1c2-1.6,4.6-2.8,6.9-4.3
				c-0.1-0.3-0.2-0.6-0.4-0.8c-2.7,1.1-5.1,2.9-7.7,4.1c0,0,0,0,0,0.1c-0.8,1.1-2.7,1.9-3.8,3c-1.1,1.3-2.4,2.2-3.5,3.3
				C42.7,15.9,44.5,14.7,46.6,13.9z"/>
		</g>
		<g id="XMLID_4093_">
			<path id="XMLID_4094_" fill="#706F6F" d="M32.7,26.5c0.5-0.3,1-0.7,1.5-1c1.4-1,2.6-2,3.8-3c-1,0.6-2,1.1-3,1.7
				C34.1,24.8,33.5,25.7,32.7,26.5z"/>
		</g>
		<g id="XMLID_4091_">
			<path id="XMLID_4092_" fill="#706F6F" d="M39.1,21.6c-0.3,0.3-0.7,0.6-1,0.9c1.5-0.9,2.9-1.7,4.3-2.6c2.3-1.6,4.5-3.2,6.7-5
				c0.3-0.2,0.5-0.4,0.8-0.6c-4.6,2.3-9.2,4.6-12.5,7.7c-0.1,0.1-0.1,0.1-0.2,0.2c1.8-1,3.6-2.1,5.3-3.2
				C41.4,19.8,40.2,20.7,39.1,21.6z"/>
		</g>
		<g id="XMLID_4089_">
			<path id="XMLID_4090_" fill="#706F6F" d="M46,14.3c0.1-0.1,0.3-0.1,0.4-0.2c0.1-0.1,0.3-0.2,0.4-0.3c-0.1,0-0.2,0.1-0.3,0.1
				C46.4,14,46.2,14.2,46,14.3z"/>
		</g>
		<g id="XMLID_4087_">
			<path id="XMLID_4088_" fill="#706F6F" d="M40.9,14C40.9,14.1,40.9,14.1,40.9,14c-0.5,0.3-0.9,0.6-1.3,0.8c-0.5,0.5-1.1,1-1.7,1.4
				C39,15.6,40.2,14.9,40.9,14z"/>
		</g>
		<g id="XMLID_4085_">
			<path id="XMLID_4086_" fill="#706F6F" d="M36,13.9c-0.1,0.1-0.4,0.2-0.6,0.3c-0.1,0.1-0.1,0.2-0.2,0.3c0.1-0.1,0.3-0.1,0.4-0.2
				L36,13.9z"/>
		</g>
		<g id="XMLID_4083_">
			<path id="XMLID_4084_" fill="#706F6F" d="M28.6,19.6c2.3-1.6,4.4-3.2,6.4-4.7c0.1-0.1,0.2-0.2,0.2-0.4c-1.5,0.7-3,1.6-4.1,2.9
				c-0.2,0.2-0.5,0.7-0.8,0.9c-1.3,0.8-2.4,1.7-3.5,2.6C27.4,20.4,28,20,28.6,19.6C28.6,19.6,28.6,19.6,28.6,19.6z"/>
		</g>
	</g>
	<g id="XMLID_4031_">
		<g id="XMLID_4080_">
			<path id="XMLID_4081_" fill="#706F6F" d="M79.6,6.9c0.1-0.1,0.3-0.1,0.3-0.1c0,0,0-0.1-0.1-0.1C79.8,6.7,79.7,6.8,79.6,6.9z"/>
		</g>
		<g id="XMLID_4078_">
			<path id="XMLID_4079_" fill="#706F6F" d="M79.9,8.1C80,8.1,80,8.1,79.9,8.1C80,8,80,8,80,8C80,8,80,8.1,79.9,8.1z"/>
		</g>
		<g id="XMLID_4076_">
			<path id="XMLID_4077_" fill="#706F6F" d="M79.9,6.7c-0.2-0.3-0.5-0.6-0.5-1c0.2-0.1,0.5-0.2,0.6-0.3C80,5.1,79.8,5,79.7,4.8
				C79.9,4.7,80,4.7,80,4.6c0-0.3-0.3-0.4-0.6-0.3C79.2,5.7,77.7,6.9,79.9,6.7z"/>
		</g>
		<g id="XMLID_4074_">
			<path id="XMLID_4075_" fill="#706F6F" d="M79,8c0.3-0.1,0.5-0.3,0.8-0.4c0-0.2,0-0.5-0.2-0.7C79.3,7.3,79.1,7.6,79,8z"/>
		</g>
		<g id="XMLID_4072_">
			<path id="XMLID_4073_" fill="#706F6F" d="M16.3,41.6c0,0.1,0,0.1-0.2,0.1C16.2,41.6,16.2,41.6,16.3,41.6c0-0.1-0.1-0.1,0-0.2
				c-0.5,0.4-1.1,0.8-1.7,1.2c0,0.1-0.1,0.3-0.1,0.4c1.5-0.8,3-1.6,4-2.8C17.6,40.6,17.1,41.1,16.3,41.6z"/>
		</g>
		<g id="XMLID_4070_">
			<path id="XMLID_4071_" fill="#706F6F" d="M14.7,43.5c-0.1,0-0.1,0.1-0.2,0.1C14.7,43.6,14.7,43.6,14.7,43.5z"/>
		</g>
		<g id="XMLID_4068_">
			<path id="XMLID_4069_" fill="#706F6F" d="M40.5,27.4c0.9-0.6,1.5-1.3,2.2-2c-1.6,1.2-3.4,2.3-4.5,3.3
				C39,28.2,39.8,27.8,40.5,27.4z"/>
		</g>
		<g id="XMLID_4066_">
			<path id="XMLID_4067_" fill="#706F6F" d="M46.3,22c-1.2,0.4-2.1,1.2-2.8,1.9c0.9-0.6,1.8-1.1,2.6-1.7
				C46.1,22.2,46.2,22.1,46.3,22z"/>
		</g>
		<g id="XMLID_4064_">
			<path id="XMLID_4065_" fill="#706F6F" d="M45.3,23.2c-1.1,0.6-1.8,1.3-2.5,2.1C43.7,24.6,44.6,23.9,45.3,23.2z"/>
		</g>
		<g id="XMLID_4062_">
			<path id="XMLID_4063_" fill="#706F6F" d="M28.7,42.4c-0.6,0.6-0.9,1-1.1,1.1c0,0.2-0.1,0.4-0.2,0.7c0,0,0.1,0,0.1-0.1
				c0.6-0.5,1.3-1.1,1.9-1.6c0.2-0.3,0.5-0.5,0.6-0.8C29.6,41.9,29.1,42.1,28.7,42.4z"/>
		</g>
		<g id="XMLID_4060_">
			<path id="XMLID_4061_" fill="#706F6F" d="M27.5,43.5C27.9,42,26.6,44.1,27.5,43.5L27.5,43.5z"/>
		</g>
		<g id="XMLID_4058_">
			<path id="XMLID_4059_" fill="#706F6F" d="M29.1,35.6c0,0,0.1,0,0.1-0.1c0.1-0.1,0.2-0.1,0.3-0.2C29.3,35.4,29.2,35.5,29.1,35.6z"
				/>
		</g>
		<g id="XMLID_4056_">
			<path id="XMLID_4057_" fill="#706F6F" d="M39,33.5c-0.6,0.4-1.2,0.7-1.7,1.1c1.2-0.7,2.4-1.5,3.3-2.3c-0.2,0.1-0.4,0.1-0.5,0.2
				C39.8,32.9,39.5,33.3,39,33.5z"/>
		</g>
		<g id="XMLID_4046_">
			<path id="XMLID_4047_" fill="#706F6F" d="M24.7,38.9c1.6-1.1,3.1-2.3,4.5-3.4c3.2-1.7,6.2-3.6,8.7-5.8c2.1-2,6.5-4.1,8.2-6.8
				c-0.3,0.1-0.5,0.2-0.8,0.3c0.3-0.3,0.6-0.6,0.8-1c3.9-2.5,7.8-4.8,12-7c0.6-0.3,0.9-0.8,1.6-1.2c0.6-0.3,1.2-0.7,1.8-1
				c0,0,0,0-0.1,0c2.5-1.5,4.9-2.9,7.4-4.6c1.2-0.7,2.5-1.3,3.7-2c0.5-0.2,0.7,0.1,1,0c1.5-0.2,2.6-0.3,4.1-0.9c0,0,0.1,0.2,0.1,0.3
				c0.2-0.1,0.4-0.2,0.6-0.3c-0.1,1.3-1.6,2.6,0.5,2.3c0,0,0,0,0,0c-0.1,0.1-0.2,0.2-0.2,0.2c0,0,0,0,0,0c0,0,0,0,0,0
				c-0.3,0.4-0.5,0.7-0.6,1.1c0.3-0.1,0.5-0.3,0.8-0.4c0,0.2,0,0.3,0.1,0.4c0,0,0,0.1,0,0.1c-0.1,0.1-0.2,0.1-0.2,0.1
				c0,0.1,0,0.2,0,0.3c-0.5,0.8-1.5,1.5-1.1,1.8c0.3,0.1,0.7-0.3,1.2-0.8c0.1,0,0.1,0,0.2,0c-0.7,0.5,0.3,0.6-0.1,1
				c-0.6,0.3-1.2,0.7-1.8,1.1c-2.5,1.3-4.6,2.5-6.9,4.1C70,17,69.9,17,69.8,17.1c-1.1,0.7-2.3,1.4-3.5,1.9c0-0.1,0.1-0.2,0.1-0.3
				c-1,0.4-1.9,0.9-2.8,1.6c-2.1,1.6-4.3,3.2-6.7,4.5c-2.6,1.4-4.9,2.9-7.4,4.6c1-0.8,1.9-1.5,3-2.2c0.5-0.3,1-0.5,1.5-0.8
				c-0.5,0.2-1,0.5-1.5,0.8c-1.9,1-3.9,1.9-5,3.5c-0.2,0-0.2-0.1-0.4,0c-1.1,0.6-2.2,1.1-2.9,1.9c0,0.1-0.4,0.3-0.2,0.4
				c-0.9,0.6-2,1.1-2.8,1.8c-0.4,0.3-0.7,0.7-1,1.1c-3.1,2.2-6.1,4.4-9.4,6.8c-0.8,0.6-1.9,1.1-2.8,1.6c1.2-1,2.4-2,3.7-2.9
				c1.4-0.6,2.7-1.3,3.5-2.3c0.2-0.2,0.4-0.4,0.6-0.6c-1.4,1-2.8,2-4.1,3c-0.8,0.4-1.7,0.7-2.5,1.2c0,0,0,0,0,0
				c0.6-0.4,1.1-0.9,1.7-1.3c1.2-0.6,2.4-1.2,3.2-2c0.1-0.1,0.2-0.2,0.3-0.3c0.2-0.2,0.4-0.4,0.6-0.6c-0.9,0.6-1.7,1.2-2.5,1.8
				c-0.5,0.4-1,0.8-1.5,1.1c-0.4,0.2-0.7,0.3-1.1,0.5c0,0,0.1-0.1,0.1-0.1c0.3-0.3,0.6-1.8,0-1.8c-2.4,1.3-5.5,3.5-5.5,3.4
				c-0.3-0.3,3.5-2.9,3.3-2.9c-0.2,0.1-0.5,0.2-0.7,0.3c0.2-0.2,0.4-0.4,0.5-0.6c0.4-0.3,1.1-0.6,1.3-0.9c0.8-1.1,2.1-1.6,3.2-2.6
				c0.6-0.7,1.4-1.5,2.1-2.4c-0.1-0.2,0.4-0.3,0.2-0.4c0.9-0.5,1.9-1,2-1.7c0,0,0,0,0.1,0c0.1,0,0.1-0.1,0.2-0.2
				c1.5-0.7,2.3-1.7,3.4-2.7c0.4-0.3,0.9-0.6,1.3-0.8c-0.3,0.2-0.8,0.3-1.1,0.6c-0.1,0.1-0.2,0.2-0.3,0.2c-1.1,0.7-2.1,1.6-3.1,2.3
				c-0.1,0.1-0.2,0.3-0.3,0.4c-0.1,0-0.2,0.1-0.3,0.1c0,0,0,0.1,0,0.1c-0.9,0.8-2.1,1.5-2.9,2.3c-1.6,1.2-3.5,2-5.2,2.9
				c0.8-0.6,1.6-1.2,2.3-1.8c-1,0.7-1.9,1.4-2.8,2.1c-0.2,0.1-0.3,0.2-0.4,0.2l-0.9,0.5c0.3-0.1,0.6-0.2,0.9-0.4
				c-0.5,0.4-1,0.8-1.5,1.2c-2.9,2-6,3.9-9.2,5.5c0-0.1,0-0.3,0-0.4c1.5-0.8,3-1.6,4-2.8c-0.9,0.5-1.4,0.9-2.2,1.4
				c0-0.1-0.1-0.1,0-0.2c-0.5,0.4-1.1,0.8-1.7,1.2c0.1-0.3,0.2-0.7,0.3-1c0.2-0.3,0.7-0.6,1.1-0.9c1.9-1.2,3.8-2.2,5.7-3.4
				c1.8-0.9,3.5-1.8,5.3-2.7C27.5,36.7,26,37.8,24.7,38.9z M75.3,9.3c-0.1,0.1-0.3,0.3-0.4,0.4c0,0,0.1,0,0.1,0
				C75.1,9.6,75.2,9.5,75.3,9.3z M71.6,11.1c1.1-0.4,2.4-1.3,3.7-2.2c0,0,0-0.1,0-0.1C74.1,9.4,72.9,10.3,71.6,11.1z M66.4,11.5
				C66.4,11.5,66.4,11.5,66.4,11.5C66.5,11.5,66.4,11.5,66.4,11.5C66.4,11.5,66.4,11.5,66.4,11.5z M49.1,24.2c1-1.1,2.5-1.9,4-2.9
				c0.5-0.2,0.7-0.8,1.4-1.2c0.7-0.5,1.1-0.9,1.7-1.3l-0.6,0.1c1.1-0.5,1.5-1.3,2.6-1.7c0-0.1,0-0.3,0.2-0.4
				c0.7-0.5,1.6-0.7,2.1-1.2c0.7-0.5,1.5-0.9,2-1.4c0.2-0.1,0.3-0.5,0.6-0.8c0.4-0.2,0.7-0.5,1.1-0.7c0,0-0.1,0-0.1,0
				c-0.3,0.2-0.6,0.3-0.9,0.6c-0.8,0.7-1.8,1.4-2.7,2c-2.2,1.4-4.2,2.9-6.2,4.4c-0.4,0.3-0.8,0.8-1.2,1.1c-1.2,1.1-2.9,1.9-3.5,3
				C49.5,23.8,49.2,24,49.1,24.2z M49.4,29c1.4-1.2,3.1-2.4,4.7-3.1c1.2-0.7,4.5-3.1,3.3-3.8C56.9,24.8,47.2,27.5,49.4,29z
				 M37.4,37.4c0.6-0.5,1.1-0.9,1.9-1.3C38.6,36.5,38,37,37.4,37.4z M42,30.3c-1.7,1.7-3.8,2.9-5.6,4.3c-1.4,1.1-3.3,1.5-4.4,2.9
				c0,0.1,0.1,0.2,0.1,0.3l0.1-0.2c0.6-0.2,1.1-0.3,1.6-0.5c0,0,0,0-0.1,0.1c0,0,0.1-0.1,0.1-0.1c0.3-0.1,0.6-0.3,1-0.5
				c0.1-0.1,0.3-0.3,0.4-0.4c1.8-1.2,3.8-2.4,5.2-3.8c0.9-0.8,1.6-1.8,2.6-2.6C42.8,29.9,42.3,30.1,42,30.3z"/>
		</g>
		<g id="XMLID_4044_">
			<path id="XMLID_4045_" fill="#706F6F" d="M27.6,37.6c-0.6,0.5-1.2,0.9-1.9,1.4c-0.5,0.4-0.9,0.8-1.4,1.2
				c-2.2,1.8-5.2,3.1-7.8,4.8c0.1,0.3,0.2,0.6,0.4,0.8c3-1.2,5.7-3.2,8.7-4.6c0,0,0,0,0.1-0.1c1-1.2,3.1-2.1,4.4-3.3
				c1.3-1.3,2.7-2.3,4-3.6C31.9,35.3,29.9,36.6,27.6,37.6z"/>
		</g>
		<g id="XMLID_4042_">
			<path id="XMLID_4043_" fill="#706F6F" d="M43.4,23.9c-0.6,0.4-1.2,0.7-1.7,1.1c-1.6,1.1-3,2.2-4.3,3.3c1.1-0.6,2.2-1.3,3.4-1.9
				C41.8,25.8,42.6,24.8,43.4,23.9z"/>
		</g>
		<g id="XMLID_4040_">
			<path id="XMLID_4041_" fill="#706F6F" d="M36.2,29.3c0.4-0.3,0.7-0.6,1.1-0.9c-1.6,1-3.3,1.9-4.9,2.9c-2.6,1.8-5.1,3.6-7.6,5.5
				c-0.3,0.2-0.6,0.4-0.9,0.6c5.2-2.6,10.3-5.2,14-8.6c0.1-0.1,0.1-0.1,0.2-0.2c-2,1.1-4,2.3-6,3.6C33.6,31.2,34.9,30.3,36.2,29.3z"
				/>
		</g>
		<g id="XMLID_4038_">
			<path id="XMLID_4039_" fill="#706F6F" d="M28.2,37.2c-0.2,0.1-0.3,0.1-0.5,0.2c-0.2,0.1-0.3,0.2-0.5,0.4c0.1,0,0.2-0.1,0.3-0.1
				C27.8,37.5,28,37.3,28.2,37.2z"/>
		</g>
		<g id="XMLID_4036_">
			<path id="XMLID_4037_" fill="#706F6F" d="M33.9,37.2C33.9,37.1,33.9,37.1,33.9,37.2c0.5-0.3,1-0.6,1.5-0.9c0.6-0.5,1.3-1,1.9-1.5
				C36,35.5,34.7,36.3,33.9,37.2z"/>
		</g>
		<g id="XMLID_4034_">
			<path id="XMLID_4035_" fill="#706F6F" d="M39.3,37c0.2-0.1,0.5-0.2,0.6-0.3c0.1-0.1,0.1-0.2,0.2-0.3c-0.1,0.1-0.3,0.1-0.4,0.2
				L39.3,37z"/>
		</g>
		<g id="XMLID_4032_">
			<path id="XMLID_4033_" fill="#706F6F" d="M47.6,30.8c-2.6,1.8-4.9,3.5-7.3,5.2c-0.1,0.1-0.2,0.3-0.3,0.4c1.7-0.8,3.4-1.9,4.7-3.2
				c0.3-0.3,0.6-0.8,0.9-0.9c1.4-0.9,2.7-1.9,3.9-2.9C48.9,29.9,48.3,30.3,47.6,30.8C47.6,30.8,47.6,30.8,47.6,30.8z"/>
		</g>
	</g>
	<g id="XMLID_4012_">
		<g id="XMLID_4027_">
			<path id="XMLID_4028_" d="M16.5,25.8v4.8h-3V18.2h4.9c1.4,0,2.6,0.4,3.4,1.1c0.8,0.7,1.2,1.6,1.2,2.7c0,0.7-0.2,1.4-0.7,2.1
				c-0.4,0.7-1.1,1.2-2.1,1.5l3,5.1h-3.5l-2.8-4.8H16.5z M16.5,20.5v3h1.9c0.5,0,0.8-0.1,1.1-0.4c0.3-0.3,0.4-0.6,0.4-1.1
				c0-0.4-0.1-0.8-0.4-1.1c-0.3-0.3-0.6-0.4-1.1-0.4H16.5z"/>
		</g>
		<g id="XMLID_4024_">
			<path id="XMLID_4025_" d="M32.6,18.2v2.3h-4.5v2.7h4v2.3h-4v2.9h4.5v2.3h-7.5V18.2H32.6z"/>
		</g>
		<g id="XMLID_4021_">
			<path id="XMLID_4022_" d="M34.2,20.5v-2.3H44v2.3h-3.4v10.1h-3V20.5H34.2z"/>
		</g>
		<g id="XMLID_4017_">
			<path id="XMLID_4018_" d="M48.6,25.8v4.8h-3V18.2h4.9c1.4,0,2.6,0.4,3.4,1.1c0.8,0.7,1.2,1.6,1.2,2.7c0,0.7-0.2,1.4-0.7,2.1
				c-0.4,0.7-1.1,1.2-2.1,1.5l3,5.1h-3.5L49,25.8H48.6z M48.6,20.5v3h1.9c0.5,0,0.8-0.1,1.1-0.4c0.3-0.3,0.4-0.6,0.4-1.1
				c0-0.4-0.1-0.8-0.4-1.1c-0.3-0.3-0.6-0.4-1.1-0.4H48.6z"/>
		</g>
		<g id="XMLID_4013_">
			<path id="XMLID_4014_" d="M58.4,28.9c-1.2-1.2-1.8-2.7-1.8-4.6c0-1.8,0.6-3.4,1.8-4.6c1.2-1.2,2.7-1.8,4.5-1.8
				c1.8,0,3.3,0.6,4.5,1.8c1.2,1.2,1.8,2.7,1.8,4.6c0,1.8-0.6,3.4-1.8,4.6c-1.2,1.2-2.7,1.8-4.5,1.8C61.1,30.7,59.6,30.1,58.4,28.9z
				 M65.3,27c0.6-0.6,0.9-1.5,0.9-2.6c0-1.1-0.3-2-0.9-2.6c-0.6-0.6-1.4-1-2.4-1c-1,0-1.8,0.3-2.4,1c-0.6,0.6-0.9,1.5-0.9,2.6
				c0,1.1,0.3,2,0.9,2.6c0.6,0.6,1.4,1,2.4,1C63.9,28,64.7,27.6,65.3,27z"/>
		</g>
	</g>
	<g id="XMLID_4002_">
		<g id="XMLID_4009_">
			<path id="XMLID_4010_" d="M31.7,10.4V9.1h5.5v1.3h-1.9v5.7h-1.7v-5.7H31.7z"/>
		</g>
		<g id="XMLID_4006_">
			<path id="XMLID_4007_" d="M42.5,9.1h1.7v7h-1.7v-2.9h-2.7v2.9h-1.7v-7h1.7v2.8h2.7V9.1z"/>
		</g>
		<g id="XMLID_4003_">
			<path id="XMLID_4004_" d="M49.9,9.1v1.3h-2.5v1.5h2.2v1.3h-2.2v1.6h2.5v1.3h-4.2v-7H49.9z"/>
		</g>
	</g>
	<g id="XMLID_3981_">
		<g id="XMLID_3999_">
			<path id="XMLID_4000_" d="M22.5,36.9c-0.1,0-0.2,0-0.3,0.1c-0.1,0.1-0.1,0.1-0.1,0.3c0,0.1,0,0.2,0.1,0.3
				c0.1,0.1,0.2,0.1,0.3,0.2c0.1,0,0.2,0.1,0.4,0.1c0.1,0,0.3,0.1,0.4,0.1c0.1,0,0.3,0.1,0.4,0.2c0.1,0.1,0.2,0.2,0.3,0.3
				c0.1,0.1,0.1,0.3,0.1,0.5c0,0.3-0.1,0.6-0.4,0.8c-0.3,0.2-0.6,0.3-1,0.3c-0.4,0-0.8-0.1-1-0.3c-0.3-0.2-0.4-0.5-0.4-0.9h1
				c0,0.3,0.2,0.4,0.5,0.4c0.1,0,0.2,0,0.3-0.1C23,39.1,23,39.1,23,39c0-0.1,0-0.2-0.1-0.3c-0.1-0.1-0.2-0.1-0.3-0.2
				c-0.1,0-0.2-0.1-0.4-0.1c-0.1,0-0.3-0.1-0.4-0.1c-0.1,0-0.3-0.1-0.4-0.2c-0.1-0.1-0.2-0.2-0.3-0.3c-0.1-0.1-0.1-0.3-0.1-0.5
				c0-0.3,0.1-0.6,0.4-0.8c0.3-0.2,0.6-0.3,1-0.3c0.4,0,0.7,0.1,1,0.3c0.2,0.2,0.4,0.5,0.4,0.9h-1c0-0.1-0.1-0.2-0.1-0.3
				C22.7,37,22.6,36.9,22.5,36.9z"/>
		</g>
		<g id="XMLID_3996_">
			<path id="XMLID_3997_" d="M27.8,37v-0.7h2.9V37h-1v3h-0.9v-3H27.8z"/>
		</g>
		<g id="XMLID_3993_">
			<path id="XMLID_3994_" d="M34.7,38.5v-2.2h0.9v2.2c0,0.2,0.1,0.4,0.2,0.5c0.1,0.1,0.3,0.2,0.5,0.2c0.2,0,0.4-0.1,0.5-0.2
				c0.1-0.1,0.2-0.3,0.2-0.5v-2.2h0.9v2.2c0,0.3-0.1,0.6-0.2,0.9c-0.2,0.2-0.3,0.4-0.6,0.5C36.8,40,36.5,40,36.3,40
				c-0.4,0-0.8-0.1-1.1-0.4C34.9,39.4,34.7,39,34.7,38.5z"/>
		</g>
		<g id="XMLID_3989_">
			<path id="XMLID_3990_" d="M43.3,36.3c0.6,0,1.1,0.2,1.5,0.5c0.4,0.3,0.6,0.8,0.6,1.3c0,0.6-0.2,1-0.6,1.3
				c-0.4,0.3-0.9,0.5-1.5,0.5H42v-3.7H43.3z M42.9,39.3h0.4c0.3,0,0.6-0.1,0.8-0.3c0.2-0.2,0.3-0.5,0.3-0.9c0-0.4-0.1-0.6-0.3-0.9
				C44,37.1,43.7,37,43.3,37h-0.4V39.3z"/>
		</g>
		<g id="XMLID_3986_">
			<path id="XMLID_3987_" d="M49.4,40v-3.7h0.9V40H49.4z"/>
		</g>
		<g id="XMLID_3982_">
			<path id="XMLID_3983_" d="M54.8,39.5c-0.4-0.4-0.6-0.8-0.6-1.4c0-0.6,0.2-1,0.6-1.4c0.4-0.4,0.8-0.5,1.4-0.5c0.5,0,1,0.2,1.4,0.5
				c0.4,0.4,0.6,0.8,0.6,1.4c0,0.6-0.2,1-0.6,1.4S56.7,40,56.2,40C55.6,40,55.2,39.9,54.8,39.5z M56.9,38.9c0.2-0.2,0.3-0.5,0.3-0.8
				c0-0.3-0.1-0.6-0.3-0.8c-0.2-0.2-0.4-0.3-0.7-0.3c-0.3,0-0.5,0.1-0.7,0.3c-0.2,0.2-0.3,0.5-0.3,0.8c0,0.3,0.1,0.6,0.3,0.8
				c0.2,0.2,0.4,0.3,0.7,0.3C56.5,39.2,56.7,39.1,56.9,38.9z"/>
		</g>
	</g>
</g>
</svg>
