<?xml version="1.0" encoding="utf-8"?>
<!-- Generator: Adobe Illustrator 23.0.1, SVG Export Plug-In . SVG Version: 6.00 Build 0)  -->
<svg version="1.2" baseProfile="tiny" id="Layer_1" xmlns="http://www.w3.org/2000/svg" xmlns:xlink="http://www.w3.org/1999/xlink"
	 x="0px" y="0px" viewBox="0 0 80 50" xml:space="preserve">
<g id="XMLID_2343_">
	<g id="XMLID_2442_">
		<g id="XMLID_2443_">
			<path id="XMLID_2444_" fill="#B2B2B2" d="M16.5,17.9c7.3-0.8,16.1,0.8,23.5,0.2c8.8-0.9,18.3-0.6,27.1-0.3c0,0.6-0.8,1.5-0.1,1.8
				c2.9,1,2.9,2.2,2.8,3.4c0,0.6-2.2-0.1-1.5,0.6c-2.2-0.1-5.9,0.1-3.7,0.8c0.7,0.6,3.7,0.1,4.4,1c0.7,0.9-0.8,1.8-0.1,2.7
				c0.7,0,2.2,0.1,2.9,0.1c0.7,0.6-0.8,1.8-0.1,1.8c2.2,0.7,5.1,0.5,8,0.6c0,0.6,0.7,1.2-0.8,1.5C53.4,31.6,27,32,1.4,30.3
				c-2.9-0.4-0.7-1.5,1.5-2.3c-0.7,0.3-0.7-0.6-1.5-0.3C1.5,26.7,3,25.2,6,25c-0.7,0-1.5,0-2.2-0.1c-0.7-0.3,0-0.9,0-1.5
				c0.7,0,1.5,0,1.5-0.3c0-0.3,0-0.9,0-1.2c-0.7,0-2.2-0.1-2.9-0.1c0.7,0,1.5,0,1.5-0.3c0-0.3,0-0.9,0-1.2c1.5-0.3,3.7,0.4,5.1,0.2
				l0-0.9c-1.5-0.3-3.7-0.1-5.1-0.2c0.7-0.3,0.8-0.6,0.8-1.2c2.2-0.2,4.4,0.7,6.6-0.1c-0.7,0-1.5,0-2.2-0.1
				C10.6,16.8,14.3,18.1,16.5,17.9z"/>
		</g>
	</g>
	<g id="XMLID_2419_">
		<g id="XMLID_2437_">
			<path id="XMLID_2438_" fill="#FFFFFF" d="M13.6,21h2.6c0.7,0,1.2,0.2,1.6,0.5c0.4,0.3,0.6,0.7,0.6,1.2c0,0.7-0.4,1.2-1.3,1.5
				c0.4,0.1,0.8,0.2,1,0.6c0.3,0.3,0.4,0.7,0.4,1.1c0,0.5-0.2,0.9-0.6,1.2c-0.4,0.3-0.9,0.5-1.6,0.5h-2.8V21z M14.9,22v1.7h1.2
				c0.3,0,0.5-0.1,0.7-0.2c0.2-0.1,0.3-0.4,0.3-0.6c0-0.3-0.1-0.5-0.3-0.6c-0.2-0.1-0.4-0.2-0.7-0.2H14.9z M14.9,26.5h1.3
				c0.3,0,0.5-0.1,0.7-0.2c0.2-0.2,0.3-0.4,0.3-0.7c0-0.3-0.1-0.5-0.3-0.7c-0.2-0.2-0.4-0.2-0.7-0.2h-1.3V26.5z"/>
		</g>
		<g id="XMLID_2433_">
			<path id="XMLID_2434_" fill="#FFFFFF" d="M26.8,27.5l-0.4-1.2h-2.5l-0.4,1.2H22l2.3-6.5h1.5l2.3,6.5H26.8z M24.2,25.3H26
				l-0.9-2.7L24.2,25.3z"/>
		</g>
		<g id="XMLID_2430_">
			<path id="XMLID_2431_" fill="#FFFFFF" d="M33.3,27.5h-1.3V21h1.3v2.9l2.3-2.9h1.7l-2.8,3.2l2.8,3.2h-1.7l-2.3-2.9V27.5z"/>
		</g>
		<g id="XMLID_2427_">
			<path id="XMLID_2428_" fill="#FFFFFF" d="M44.8,21v1h-2.4v1.7h2.1v1h-2.1v1.8h2.4v1h-3.7V21H44.8z"/>
		</g>
		<g id="XMLID_2423_">
			<path id="XMLID_2424_" fill="#FFFFFF" d="M50.4,24.9v2.6h-1.3V21h2.4c0.7,0,1.3,0.2,1.7,0.6c0.4,0.4,0.6,0.8,0.6,1.4
				c0,0.4-0.1,0.8-0.4,1.1c-0.2,0.4-0.6,0.6-1.2,0.7l1.6,2.7h-1.5l-1.5-2.6H50.4z M50.4,22v1.9h1.1c0.3,0,0.6-0.1,0.8-0.3
				c0.2-0.2,0.3-0.4,0.3-0.7c0-0.3-0.1-0.5-0.3-0.7C52,22.1,51.8,22,51.4,22H50.4z"/>
		</g>
		<g id="XMLID_2420_">
			<path id="XMLID_2421_" fill="#FFFFFF" d="M60.9,27.5h-1.3v-2.2L57.4,21h1.5l1.4,3l1.4-3h1.5l-2.2,4.2V27.5z"/>
		</g>
	</g>
	<g id="XMLID_2388_">
		<g id="XMLID_2416_">
			<path id="XMLID_2417_" fill="#020203" d="M27.2,40.6c-0.1,0-0.1,0-0.1,0c0,0-0.1,0.1-0.1,0.1s0,0.1,0.1,0.1c0,0,0.1,0.1,0.1,0.1
				c0.1,0,0.1,0,0.2,0.1c0.1,0,0.1,0,0.2,0.1c0.1,0,0.1,0.1,0.2,0.1c0.1,0,0.1,0.1,0.1,0.1c0,0.1,0.1,0.1,0.1,0.2
				c0,0.2-0.1,0.3-0.2,0.4c-0.1,0.1-0.3,0.2-0.5,0.2c-0.2,0-0.4-0.1-0.5-0.2c-0.1-0.1-0.2-0.2-0.2-0.4H27c0,0.1,0.1,0.2,0.2,0.2
				c0.1,0,0.1,0,0.2-0.1c0,0,0.1-0.1,0.1-0.1c0-0.1,0-0.1,0-0.1c0,0-0.1-0.1-0.1-0.1c-0.1,0-0.1,0-0.2-0.1c-0.1,0-0.1,0-0.2-0.1
				c-0.1,0-0.1-0.1-0.2-0.1c-0.1,0-0.1-0.1-0.1-0.1c0-0.1,0-0.1,0-0.2c0-0.2,0.1-0.3,0.2-0.4c0.1-0.1,0.3-0.2,0.5-0.2
				c0.2,0,0.4,0,0.5,0.1c0.1,0.1,0.2,0.2,0.2,0.4h-0.5c0-0.1,0-0.1-0.1-0.2C27.3,40.7,27.3,40.6,27.2,40.6z"/>
		</g>
		<g id="XMLID_2413_">
			<path id="XMLID_2414_" fill="#020203" d="M29.1,42.2v-1.9h0.5v1.9H29.1z"/>
		</g>
		<g id="XMLID_2410_">
			<path id="XMLID_2411_" fill="#020203" d="M32,40.3h0.5v1.9H32L31.2,41v1.2h-0.5v-1.9h0.5l0.8,1.2V40.3z"/>
		</g>
		<g id="XMLID_2407_">
			<path id="XMLID_2408_" fill="#020203" d="M33.8,41.9c-0.2-0.2-0.3-0.4-0.3-0.7c0-0.3,0.1-0.5,0.3-0.7c0.2-0.2,0.4-0.3,0.7-0.3
				c0.2,0,0.4,0.1,0.5,0.2c0.2,0.1,0.3,0.3,0.3,0.5h-0.5c-0.1-0.1-0.2-0.2-0.3-0.2c-0.2,0-0.3,0-0.4,0.1c-0.1,0.1-0.1,0.2-0.1,0.4
				c0,0.2,0,0.3,0.1,0.4c0.1,0.1,0.2,0.1,0.4,0.1c0.2,0,0.3-0.1,0.3-0.2h0.5c-0.1,0.2-0.2,0.3-0.3,0.5c-0.2,0.1-0.3,0.2-0.5,0.2
				C34.2,42.2,34,42.1,33.8,41.9z"/>
		</g>
		<g id="XMLID_2404_">
			<path id="XMLID_2405_" fill="#020203" d="M37.6,40.3v0.3H37V41h0.6v0.3H37v0.4h0.7v0.3h-1.1v-1.9H37.6z"/>
		</g>
		<g id="XMLID_2401_">
			<path id="XMLID_2402_" fill="#020203" d="M40.4,42.1v-0.3c0,0,0.1-0.1,0.2-0.2c0.1-0.1,0.2-0.1,0.2-0.2c0,0,0.1-0.1,0.2-0.2
				c0.1-0.1,0.1-0.1,0.1-0.2c0.1-0.1,0.1-0.2,0.1-0.3c0-0.1-0.1-0.2-0.2-0.2c-0.1,0-0.1,0-0.2,0.1c0,0-0.1,0.1-0.1,0.2h-0.4
				c0-0.2,0.1-0.4,0.2-0.5c0.1-0.1,0.3-0.2,0.5-0.2c0.2,0,0.4,0.1,0.5,0.2c0.1,0.1,0.2,0.3,0.2,0.4c0,0.1,0,0.2-0.1,0.3
				c0,0.1-0.1,0.1-0.1,0.1c0,0-0.1,0.1-0.1,0.1c-0.1,0.1-0.1,0.1-0.1,0.1c0,0-0.1,0.1-0.1,0.1c-0.1,0.1-0.1,0.1-0.1,0.1h0.7v0.4
				H40.4z"/>
		</g>
		<g id="XMLID_2397_">
			<path id="XMLID_2398_" fill="#020203" d="M43.1,40.3c0.1,0,0.2-0.1,0.3-0.1c0.1,0,0.2,0,0.3,0.1c0.1,0,0.2,0.1,0.2,0.2
				c0.1,0.1,0.1,0.2,0.1,0.3c0,0.1,0,0.2,0,0.4s0,0.3,0,0.4c0,0.1-0.1,0.2-0.1,0.3C44,42,43.9,42,43.8,42.1c-0.1,0-0.2,0.1-0.3,0.1
				c-0.1,0-0.2,0-0.3-0.1c-0.1,0-0.2-0.1-0.2-0.2c-0.1-0.1-0.1-0.2-0.1-0.3c0-0.1,0-0.2,0-0.4s0-0.3,0-0.4c0-0.1,0.1-0.2,0.1-0.3
				C42.9,40.4,43,40.4,43.1,40.3z M43.6,40.7c0,0-0.1,0-0.1,0c-0.1,0-0.1,0-0.1,0c0,0-0.1,0-0.1,0.1c0,0,0,0.1,0,0.1
				c0,0,0,0.1,0,0.1c0,0,0,0.1,0,0.2c0,0.1,0,0.1,0,0.2c0,0,0,0.1,0,0.1c0,0,0,0.1,0,0.1c0,0,0,0.1,0.1,0.1c0,0,0.1,0,0.1,0
				c0.1,0,0.1,0,0.1,0c0,0,0.1,0,0.1-0.1c0,0,0-0.1,0-0.1c0,0,0-0.1,0-0.1c0,0,0-0.1,0-0.2c0-0.1,0-0.1,0-0.2c0,0,0-0.1,0-0.1
				C43.7,40.8,43.7,40.8,43.6,40.7C43.7,40.7,43.6,40.7,43.6,40.7z"/>
		</g>
		<g id="XMLID_2394_">
			<path id="XMLID_2395_" fill="#020203" d="M45.5,42.2v-1.5h-0.3v-0.4H46v1.9H45.5z"/>
		</g>
		<g id="XMLID_2389_">
			<path id="XMLID_2390_" fill="#020203" d="M47.3,40.7c0-0.1,0.1-0.3,0.2-0.4c0.1-0.1,0.3-0.2,0.5-0.2c0.2,0,0.4,0.1,0.5,0.2
				c0.1,0.1,0.2,0.2,0.2,0.4c0,0.2-0.1,0.3-0.2,0.4c0.2,0.1,0.3,0.3,0.3,0.5c0,0.2-0.1,0.3-0.2,0.4c-0.1,0.1-0.3,0.2-0.5,0.2
				s-0.4-0.1-0.5-0.2c-0.1-0.1-0.2-0.3-0.2-0.4c0-0.2,0.1-0.4,0.3-0.5C47.3,41,47.3,40.9,47.3,40.7z M48.2,41.6c0-0.1,0-0.1-0.1-0.2
				c0,0-0.1-0.1-0.2-0.1c-0.1,0-0.2,0-0.2,0.1c0,0-0.1,0.1-0.1,0.2s0,0.1,0.1,0.2c0,0,0.1,0.1,0.2,0.1s0.2,0,0.2-0.1
				C48.2,41.7,48.2,41.6,48.2,41.6z M48.2,40.8c0-0.1,0-0.1-0.1-0.2c0,0-0.1-0.1-0.2-0.1c-0.1,0-0.1,0-0.2,0.1c0,0-0.1,0.1-0.1,0.2
				s0,0.1,0.1,0.2c0,0,0.1,0.1,0.2,0.1c0.1,0,0.1,0,0.2-0.1C48.1,40.9,48.2,40.8,48.2,40.8z"/>
		</g>
	</g>
	<g id="XMLID_2347_">
		<g id="XMLID_2385_">
			<path id="XMLID_2386_" fill="#020203" d="M21.8,11.5l0.4-0.2l0.9,1.6l-0.4,0.2l-0.4-0.7l-0.6,0.3l0.4,0.7l-0.4,0.2L20.8,12
				l0.4-0.2l0.3,0.7l0.6-0.3L21.8,11.5z"/>
		</g>
		<g id="XMLID_2381_">
			<path id="XMLID_2382_" fill="#020203" d="M24.2,12.1c-0.2-0.1-0.4-0.3-0.5-0.5c-0.1-0.3-0.1-0.5,0-0.7c0.1-0.2,0.3-0.4,0.5-0.5
				c0.2-0.1,0.5-0.1,0.7,0c0.2,0.1,0.4,0.3,0.5,0.5c0.1,0.3,0.1,0.5,0,0.7c-0.1,0.2-0.3,0.4-0.5,0.5C24.7,12.2,24.4,12.2,24.2,12.1z
				 M25,11.5c0-0.1,0-0.3,0-0.4c-0.1-0.1-0.2-0.3-0.3-0.3c-0.1-0.1-0.2-0.1-0.4,0c-0.1,0.1-0.2,0.1-0.3,0.3c0,0.1,0,0.3,0,0.4
				c0.1,0.1,0.2,0.3,0.3,0.3c0.1,0.1,0.2,0.1,0.4,0C24.9,11.7,25,11.6,25,11.5z"/>
		</g>
		<g id="XMLID_2378_">
			<path id="XMLID_2379_" fill="#020203" d="M28.3,9l0.5,1.8l-0.4,0.1l-0.3-1L28,11l-0.3,0.1l-0.7-0.9l0.3,1l-0.4,0.1l-0.5-1.8
				l0.5-0.2l0.9,1.1l0.1-1.4L28.3,9z"/>
		</g>
		<g id="XMLID_2375_">
			<path id="XMLID_2376_" fill="#020203" d="M30.7,8.4l0.1,0.3l-0.7,0.1l0.1,0.4l0.6-0.1l0.1,0.3l-0.6,0.1l0.1,0.4L31,9.9l0.1,0.3
				l-1.1,0.2l-0.4-1.8L30.7,8.4z"/>
		</g>
		<g id="XMLID_2372_">
			<path id="XMLID_2373_" fill="#020203" d="M34.1,7.9l0.2,1.8l-0.4,0.1l-0.1-1l-0.3,1.1l-0.3,0l-0.6-1l0.1,1L32.2,10L32,8.2
				l0.5-0.1l0.7,1.2L33.5,8L34.1,7.9z"/>
		</g>
		<g id="XMLID_2368_">
			<path id="XMLID_2369_" fill="#020203" d="M36.6,9.7l-0.1-0.3l-0.7,0l-0.1,0.3l-0.5,0l0.6-1.9l0.5,0l0.7,1.8L36.6,9.7z M36,9
				l0.4,0l-0.2-0.7L36,9z"/>
		</g>
		<g id="XMLID_2364_">
			<path id="XMLID_2365_" fill="#020203" d="M38.9,7.8c0.3,0,0.5,0.1,0.7,0.3c0.2,0.2,0.3,0.4,0.3,0.7c0,0.3-0.1,0.5-0.3,0.7
				c-0.2,0.2-0.4,0.2-0.7,0.2l-0.7,0l0.1-1.8L38.9,7.8z M38.6,9.3l0.2,0c0.2,0,0.3,0,0.4-0.1c0.1-0.1,0.2-0.2,0.2-0.4
				c0-0.2,0-0.3-0.1-0.4c-0.1-0.1-0.2-0.2-0.4-0.2l-0.2,0L38.6,9.3z"/>
		</g>
		<g id="XMLID_2361_">
			<path id="XMLID_2362_" fill="#020203" d="M42.2,8.2l0,0.3l-0.7-0.1l-0.1,0.4L42,8.9l0,0.3l-0.6-0.1l-0.1,0.4L42,9.7l0,0.3
				l-1.1-0.1L41.1,8L42.2,8.2z"/>
		</g>
		<g id="XMLID_2358_">
			<path id="XMLID_2359_" fill="#020203" d="M44.9,10.3c-0.1-0.2-0.2-0.5-0.1-0.7C44.9,9.3,45,9.1,45.3,9c0.2-0.1,0.5-0.2,0.7-0.1
				c0.2,0.1,0.4,0.2,0.5,0.3c0.1,0.1,0.2,0.3,0.2,0.5l-0.5-0.1c0-0.1-0.1-0.2-0.3-0.3c-0.1,0-0.3,0-0.4,0c-0.1,0.1-0.2,0.2-0.2,0.3
				c0,0.2,0,0.3,0,0.4c0.1,0.1,0.2,0.2,0.3,0.2c0.1,0,0.3,0,0.4-0.1l0.5,0.1c-0.1,0.2-0.3,0.3-0.4,0.4c-0.2,0.1-0.4,0.1-0.6,0
				C45.2,10.7,45,10.5,44.9,10.3z"/>
		</g>
		<g id="XMLID_2354_">
			<path id="XMLID_2355_" fill="#020203" d="M48.5,11.7l0-0.3l-0.6-0.2l-0.2,0.3l-0.5-0.2l1.2-1.5L49,9.9l0,2L48.5,11.7z M48.1,10.8
				l0.4,0.1l0-0.7L48.1,10.8z"/>
		</g>
		<g id="XMLID_2351_">
			<path id="XMLID_2352_" fill="#020203" d="M50.3,12.4l-0.4-0.2l0.8-1.7l0.4,0.2l-0.3,0.7l0.9-0.5l0.5,0.2l-1.1,0.5l0.3,1.2
				l-0.5-0.2l-0.2-1L50.3,12.4z"/>
		</g>
		<g id="XMLID_2348_">
			<path id="XMLID_2349_" fill="#020203" d="M54.2,12.3L54,12.6l-0.6-0.3l-0.2,0.3l0.5,0.3l-0.2,0.3l-0.5-0.3l-0.2,0.4l0.6,0.3
				l-0.2,0.3l-1-0.5l0.9-1.6L54.2,12.3z"/>
		</g>
	</g>
	<g id="XMLID_2344_">
		<g id="XMLID_2345_">
			<rect id="XMLID_2346_" x="35.1" y="36" fill="#232020" width="5.7" height="0.7"/>
		</g>
	</g>
</g>
</svg>
