<?xml version="1.0" encoding="utf-8"?>
<!-- Generator: Adobe Illustrator 23.0.1, SVG Export Plug-In . SVG Version: 6.00 Build 0)  -->
<svg version="1.2" baseProfile="tiny" id="Layer_1" xmlns="http://www.w3.org/2000/svg" xmlns:xlink="http://www.w3.org/1999/xlink"
	 x="0px" y="0px" viewBox="0 0 80 50" xml:space="preserve">
<g id="XMLID_3503_">
	<g id="XMLID_3542_">
		<g id="XMLID_3570_">
			<path id="XMLID_3571_" fill="#232020" d="M6.7,19.2h2.2v0.1c-0.4,0-0.4,0.1-0.4,0.7v4.7c0,0.6,0.1,0.7,0.5,0.7v0.1H6.2v-0.1
				c0.4,0,0.5-0.1,0.5-0.7v-5.2l-2.3,6.1H4.3l-2.9-5.3v2.9c0,1.1,0.3,2.3,1.4,2.3v0.1H0v-0.1c1,0,1.3-1.1,1.3-2.3v-3
				c-0.3-0.6-0.6-0.8-0.9-0.8v-0.1H3l2.1,4.1L6.7,19.2z"/>
		</g>
		<g id="XMLID_3567_">
			<path id="XMLID_3568_" fill="#232020" d="M14.8,19.2L14.8,19.2c-0.4,0.1-0.6,0.1-0.6,0.9v4.4c0,0.8,0.2,0.9,0.6,0.9v0.1h-2.9
				v-0.1c0.4,0,0.6-0.1,0.6-0.9V20c0-0.8-0.2-0.8-0.6-0.8v-0.1H14.8z"/>
		</g>
		<g id="XMLID_3564_">
			<path id="XMLID_3565_" fill="#232020" d="M23.5,23.3l0.1,1.8c-0.2,0.2-1.1,0.4-2.1,0.4c-1.9,0-3.6-1.2-3.6-3.2
				c0-2,1.7-3.2,3.6-3.2c1.1,0,1.9,0.2,2.1,0.4l-0.1,1.8h-0.1c-0.3-1.8-1.3-2.1-1.9-2.1c-1,0-1.4,0.7-1.4,3.1c0,2.4,0.4,3.1,1.4,3.1
				C22.1,25.4,23.1,25,23.5,23.3L23.5,23.3z"/>
		</g>
		<g id="XMLID_3560_">
			<path id="XMLID_3561_" fill="#232020" d="M33.3,25.3L33.3,25.3l-1.8,0.1c-0.6,0-0.8-0.4-1-2.1c-0.1-0.9-1.2-0.8-1.2-0.8h-0.4v1.9
				c0,0.9,0,0.9,0.4,0.9v0.1h-2.7v-0.1c0.4,0,0.5,0,0.5-0.9V20c0-0.6-0.1-0.8-0.5-0.8v-0.1h2.5c1.8,0,3.4,0.2,3.4,1.7
				c0,1.3-1.2,1.6-2.1,1.6c1,0,1.5,0.2,2,1.8C32.6,25,33,25.3,33.3,25.3z M30.4,20.8c0-1.7-0.2-1.6-1.3-1.6h-0.3v3.2h0.3
				C30.3,22.4,30.4,22.5,30.4,20.8z"/>
		</g>
		<g id="XMLID_3556_">
			<path id="XMLID_3557_" fill="#232020" d="M42.4,22.3c0,1.8-1.3,3.2-3.2,3.2c-2,0-3.2-1.4-3.2-3.2c0-1.8,1.3-3.2,3.2-3.2
				C41.2,19.1,42.4,20.6,42.4,22.3z M40.3,22.3c0-2.4,0-3.2-1.1-3.2c-1.1,0-1.1,0.7-1.1,3.2c0,2.4,0,3.1,1.1,3.1
				C40.2,25.4,40.3,24.8,40.3,22.3z"/>
		</g>
		<g id="XMLID_3553_">
			<path id="XMLID_3554_" fill="#232020" d="M54.8,19.2L54.8,19.2c-0.4,0.1-0.9,0.3-1.5,1.9l-1.6,4.3h-0.3c-0.8-1.9-1.4-3.2-1.7-4
				l-1.4,4h-0.3c-2.2-5.2-2.4-5.5-2.4-5.5c-0.3-0.7-0.4-0.7-0.7-0.7v-0.1h2.8v0.1c-0.6,0-0.1,1-0.1,1l1.3,3l0.7-2
				c-0.5-1.3-0.6-1.4-0.6-1.4c-0.3-0.7-0.4-0.7-0.7-0.7v-0.1h2.8v0.1c-0.6,0-0.1,1-0.1,1l1.3,3.1l0.8-2.2c0.2-0.6,0-1.8-0.9-1.8
				v-0.1H54.8z"/>
		</g>
		<g id="XMLID_3549_">
			<path id="XMLID_3550_" fill="#232020" d="M59.9,19.2L59.9,19.2c2.3,5.2,2.4,5.4,2.4,5.4c0.3,0.7,0.6,0.7,0.8,0.7v0.1h-3.1v-0.1
				c0.7,0,0.2-1,0.2-1L60,23.7h-1.7c-0.2,0.4,0,1.7,1,1.7v0.1h-2.6v-0.1c0.3,0,0.7-0.1,1.4-1.7L59.9,19.2z M59,21.6l-0.8,2h1.7
				L59,21.6z"/>
		</g>
		<g id="XMLID_3546_">
			<path id="XMLID_3547_" fill="#232020" d="M71.9,19.2L71.9,19.2c-0.4,0.1-1,0.3-1.6,1.9l-1.7,4.3h-0.3c-2.4-5.2-2.5-5.5-2.5-5.5
				c-0.3-0.7-0.5-0.7-0.7-0.7v-0.1h3v0.1c-0.6,0-0.1,1-0.1,1l1.4,3.1l0.9-2.3c0.3-0.7,0.1-1.8-1-1.8v-0.1H71.9z"/>
		</g>
		<g id="XMLID_3543_">
			<path id="XMLID_3544_" fill="#232020" d="M80,23.7v1.7h-5.2v-0.1c0.4,0,0.5-0.5,0.5-1.1v-3.8c0-0.6-0.1-1.2-0.5-1.2v-0.1h5.1V21
				h-0.1c0-1.7-2.4-1.7-2.4-1.7h-0.3v3h0.7c0,0,1,0,1-1h0.1v2.2h-0.1c-0.1-1.1-1-1-1-1h-0.7v3h0.3C77.4,25.3,79.9,25.4,80,23.7
				L80,23.7z"/>
		</g>
	</g>
	<g id="XMLID_3510_">
		<g id="XMLID_3539_">
			<path id="XMLID_3540_" fill="#020203" d="M21.4,28.8H22v2.5h-0.6v-1h-1v1h-0.6v-2.5h0.6v1h1V28.8z"/>
		</g>
		<g id="XMLID_3535_">
			<path id="XMLID_3536_" fill="#020203" d="M26.1,31.3L26,30.9h-0.9L25,31.3h-0.6l0.9-2.5h0.7l0.9,2.5H26.1z M25.3,30.4h0.6
				l-0.3-0.9L25.3,30.4z"/>
		</g>
		<g id="XMLID_3532_">
			<path id="XMLID_3533_" fill="#020203" d="M29.1,31.3v-2.5h0.6v2.5H29.1z"/>
		</g>
		<g id="XMLID_3528_">
			<path id="XMLID_3529_" fill="#020203" d="M32.9,30.3v1h-0.6v-2.5h1c0.3,0,0.5,0.1,0.7,0.2c0.2,0.1,0.2,0.3,0.2,0.5
				c0,0.1,0,0.3-0.1,0.4c-0.1,0.1-0.2,0.2-0.4,0.3l0.6,1h-0.7L32.9,30.3L32.9,30.3z M32.9,29.3v0.6h0.4c0.1,0,0.2,0,0.2-0.1
				c0.1-0.1,0.1-0.1,0.1-0.2c0-0.1,0-0.2-0.1-0.2c-0.1-0.1-0.1-0.1-0.2-0.1H32.9z"/>
		</g>
		<g id="XMLID_3525_">
			<path id="XMLID_3526_" fill="#020203" d="M40.7,29.3c-0.1,0-0.1,0-0.2,0.1c0,0-0.1,0.1-0.1,0.2c0,0.1,0,0.1,0.1,0.2
				c0,0,0.1,0.1,0.2,0.1c0.1,0,0.2,0,0.2,0.1c0.1,0,0.2,0,0.3,0.1c0.1,0,0.2,0.1,0.2,0.1c0.1,0,0.1,0.1,0.2,0.2
				c0,0.1,0.1,0.2,0.1,0.3c0,0.2-0.1,0.4-0.3,0.5c-0.2,0.1-0.4,0.2-0.7,0.2c-0.3,0-0.5-0.1-0.7-0.2c-0.2-0.1-0.3-0.3-0.3-0.6h0.6
				c0,0.2,0.1,0.3,0.3,0.3c0.1,0,0.2,0,0.2-0.1c0,0,0.1-0.1,0.1-0.2c0-0.1,0-0.1-0.1-0.2c0,0-0.1-0.1-0.2-0.1c-0.1,0-0.2,0-0.2-0.1
				c-0.1,0-0.2,0-0.3-0.1c-0.1,0-0.2-0.1-0.2-0.1c-0.1,0-0.1-0.1-0.2-0.2c0-0.1-0.1-0.2-0.1-0.3c0-0.2,0.1-0.4,0.3-0.6
				c0.2-0.1,0.4-0.2,0.7-0.2c0.3,0,0.5,0.1,0.6,0.2c0.2,0.1,0.2,0.3,0.3,0.6H41c0-0.1,0-0.2-0.1-0.2C40.8,29.3,40.8,29.3,40.7,29.3z
				"/>
		</g>
		<g id="XMLID_3521_">
			<path id="XMLID_3522_" fill="#020203" d="M45.8,31.3l-0.1-0.4h-0.9l-0.1,0.4H44l0.9-2.5h0.7l0.9,2.5H45.8z M44.9,30.4h0.6
				l-0.3-0.9L44.9,30.4z"/>
		</g>
		<g id="XMLID_3518_">
			<path id="XMLID_3519_" fill="#020203" d="M48.8,28.8h0.6v2h0.7v0.5h-1.3V28.8z"/>
		</g>
		<g id="XMLID_3514_">
			<path id="XMLID_3515_" fill="#020203" d="M52.7,31c-0.2-0.2-0.4-0.5-0.4-0.9c0-0.4,0.1-0.7,0.4-0.9c0.2-0.2,0.5-0.4,0.9-0.4
				c0.4,0,0.7,0.1,0.9,0.4c0.2,0.2,0.4,0.5,0.4,0.9c0,0.4-0.1,0.7-0.4,0.9c-0.2,0.2-0.5,0.4-0.9,0.4C53.3,31.3,53,31.2,52.7,31z
				 M54.1,30.6c0.1-0.1,0.2-0.3,0.2-0.5c0-0.2-0.1-0.4-0.2-0.5c-0.1-0.1-0.3-0.2-0.5-0.2c-0.2,0-0.4,0.1-0.5,0.2
				C53,29.7,53,29.8,53,30c0,0.2,0.1,0.4,0.2,0.5c0.1,0.1,0.3,0.2,0.5,0.2C53.8,30.8,54,30.7,54.1,30.6z"/>
		</g>
		<g id="XMLID_3511_">
			<path id="XMLID_3512_" fill="#020203" d="M59,28.8h0.6v2.5H59l-1-1.6v1.6h-0.6v-2.5H58l1,1.6V28.8z"/>
		</g>
	</g>
</g>
</svg>
