<?xml version="1.0" encoding="utf-8"?>
<!-- Generator: Adobe Illustrator 23.0.1, SVG Export Plug-In . SVG Version: 6.00 Build 0)  -->
<svg version="1.2" baseProfile="tiny" id="Layer_1" xmlns="http://www.w3.org/2000/svg" xmlns:xlink="http://www.w3.org/1999/xlink"
	 x="0px" y="0px" viewBox="0 0 80 50" xml:space="preserve">
<g id="XMLID_3827_">
	<g id="XMLID_3893_">
		<g id="XMLID_3978_">
			<path id="XMLID_3979_" fill="#F8C5CE" d="M35.8,26.9c0-0.6,0.5-1.5,0.9-1.2c-0.4-0.3-0.4-0.3-0.3-1.1c0.3,0.2,0.5-0.4,0.7-0.7
				c-0.4,0.2-0.7,0.5-1.2,1.2c0.2,1.1-1.7,1.9-1.5,3C34.8,27.7,35.5,27.5,35.8,26.9z"/>
		</g>
		<g id="XMLID_3976_">
			<path id="XMLID_3977_" fill="#F8C5CE" d="M39.6,24.9l-0.1-0.2L39,26C39,25.7,39.4,24.8,39.6,24.9z"/>
		</g>
		<g id="XMLID_3974_">
			<path id="XMLID_3975_" fill="#C6C6C6" d="M41.7,20.6c0.2,0.3,0.8-0.2,1.1,0c-0.6-0.4,0.5-1.1,0.8-1.6l-0.3-0.5
				c-0.7,0.3-1.4,1.7-2.2,2.8L41.7,20.6z"/>
		</g>
		<g id="XMLID_3972_">
			<path id="XMLID_3973_" fill="#F8C5CE" d="M42.7,19.8l-0.1-0.5C42.5,19.6,42.1,20.3,42.7,19.8z"/>
		</g>
		<g id="XMLID_3970_">
			<path id="XMLID_3971_" fill="#F8C5CE" d="M40.5,19.5c-0.6,0.9,0.5-0.4,0.1,0.6C40.7,19.7,40.9,19.4,40.5,19.5z"/>
		</g>
		<g id="XMLID_3968_">
			<path id="XMLID_3969_" fill="#C6C6C6" d="M43.9,16.5c-0.4,0.7-0.7,1.3-1,2l0.7-0.6L43.9,16.5z"/>
		</g>
		<g id="XMLID_3966_">
			<path id="XMLID_3967_" fill="#C6C6C6" d="M45,17.1c-0.2,0.2-0.6,0.5-0.5,0c0.8-0.4,0.6-1.1,1.3-1.5l-0.3,0.7
				c0.4,0.2,0.5-1.5,1.1-0.9c0.1-1.1-1,0.1-0.6-1.1c-0.6,1-1.2,1.6-1.9,2.3c0.3-0.1,0.3-0.2,0.7-0.5c-0.4,0.6-0.7,1.5-1.1,2.2
				C44.4,18.2,44.3,17.5,45,17.1z"/>
		</g>
		<g id="XMLID_3964_">
			<path id="XMLID_3965_" fill="#C6C6C6" d="M47.1,14.4c0.5-0.6,1.2-1.4,0.9-2c-0.8,0.3-0.5,0.8-0.5,1.2c-0.2,0.1-0.7,0.7-0.8,0.2
				C46.8,13.8,46.7,14.5,47.1,14.4z"/>
		</g>
		<g id="XMLID_3962_">
			<path id="XMLID_3963_" fill="#C6C6C6" d="M49.1,12.2L49,11.4l-0.2,0.3l-0.3-0.2c0,0.1,0.4,0.8-0.1,1.3
				C48.9,12.7,48.7,12.4,49.1,12.2z"/>
		</g>
		<g id="XMLID_3960_">
			<path id="XMLID_3961_" fill="#C6C6C6" d="M47.1,10.2c0.5-0.2,0.6-0.5,0.9-1.1c-0.5,0.7-1.3,1.6-1.3,1.9l0-0.1
				c0,0-0.3,0.8-0.3,1.5C46.6,11.5,48,10.7,47.1,10.2z"/>
		</g>
		<g id="XMLID_3958_">
			<path id="XMLID_3959_" fill="#C6C6C6" d="M46.3,11l0.1-0.7L46.3,11z"/>
		</g>
		<g id="XMLID_3956_">
			<path id="XMLID_3957_" fill="#C6C6C6" d="M50.5,10.4c-0.3,0.2-0.6,0.5-0.9,0.7l0.3-0.1C50.1,10.8,50.3,10.6,50.5,10.4z"/>
		</g>
		<g id="XMLID_3954_">
			<path id="XMLID_3955_" fill="#C6C6C6" d="M48.3,10.3c0.7-0.6-0.7,0.1-0.1-0.6c0.1-0.2-0.9,1-0.7,1.2C47.8,10.8,47.9,10,48.3,10.3
				z"/>
		</g>
		<g id="XMLID_3952_">
			<path id="XMLID_3953_" fill="#C6C6C6" d="M51,9.9c0.1-0.3,0.2-0.6,0.4-1C51.3,9.2,51.1,9.6,51,9.9z"/>
		</g>
		<g id="XMLID_3950_">
			<path id="XMLID_3951_" fill="#C6C6C6" d="M52.9,8.5l-0.1-0.3c0.4-0.2,0.8-0.6,1.2-0.9c0.4-0.3,0.8-0.5,1.2-0.5
				c-0.3-0.2-0.2-0.8-0.8-0.4c0,0.2-0.2,0.4,0,0.6c-0.3,0.1-0.4-0.1-0.7,0c-0.3,0.6-1.1,1-1.2,1.6c0.1-0.2,0.2-0.2,0.4-0.3
				c-0.4,1-1.4,0.2-1.1,1.2C51.8,8.9,52.6,8.9,52.9,8.5z"/>
		</g>
		<g id="XMLID_3948_">
			<path id="XMLID_3949_" fill="#C6C6C6" d="M51.4,7l-0.7,0.5c-0.1-0.5,0.7-0.7,0.6-1.1c-0.2-0.1-0.9,0.3-0.8,0
				c0.6,0.8-0.8,0.8,0.2,1.3c-0.7,0.8-0.6-0.2-1.4,0.7L49.5,9C50.2,7.9,50.7,8.1,51.4,7z"/>
		</g>
		<g id="XMLID_3946_">
			<path id="XMLID_3947_" fill="#C6C6C6" d="M54,5.1l0.5,0l-0.4-0.2c0.4-0.3,0.8-0.4,1.2-0.5c0.4-0.1,0.8-0.1,1.2-0.1
				c0.7,0,1.4,0.1,1.8-0.2c0.2-0.3,0.5-0.5,0.8-0.6c0.3-0.1,0.6-0.2,0.9-0.3c0.3,0,0.7-0.1,1-0.1c0.2,0,0.3,0,0.5-0.1
				C61.7,3,61.8,3,62,2.9c0.6-0.5-0.7-0.1-0.8-0.3c0-0.8,0.7,0.2,0.9-0.4c0-0.3-0.4-0.3-0.9-0.3c-0.5,0-1,0.1-1.4,0
				c-0.5,0.2-0.4,0.4-0.5,0.8c-0.2-0.2-0.8-0.1-1-0.3c-0.4,0.4-0.8,0.5-1.3,0.7c-0.4,0.1-0.8,0.3-1.2,0.7c-0.5-0.2,0.7-0.5,0.3-0.4
				l-0.5,0.3l0.1,0c-0.1,0.2-0.3,0.4-0.5,0.5c-0.2,0.2-0.4,0.3-0.7,0.4c-0.5,0.2-1,0.4-1.3,0.5c0.4-0.1,0.8,0,0.5,0.3l-0.6-0.1
				c-0.1,0.4-0.3,0.8-0.4,1.2C53.1,5.7,54.4,5.9,54,5.1z"/>
		</g>
		<g id="XMLID_3944_">
			<path id="XMLID_3945_" fill="#C6C6C6" d="M52.6,5.1c-1.2,0.6,0.5,0.4-0.6,1.2l0.5-0.5L53,5.3L52.6,5.1z"/>
		</g>
		<g id="XMLID_3942_">
			<path id="XMLID_3943_" fill="#C6C6C6" d="M58.3,2.9L59,3c-0.3-0.2-0.6-0.1-0.7,0.1C58.1,3.2,58.1,3.3,58.3,2.9z"/>
		</g>
		<g id="XMLID_3940_">
			<polygon id="XMLID_3941_" fill="#C6C6C6" points="60.4,2.1 60.3,2.8 60.7,2.3 			"/>
		</g>
		<g id="XMLID_3938_">
			<path id="XMLID_3939_" fill="#C6C6C6" d="M62.6,2.3c0.4-0.4-0.2-0.5-0.7-0.3C62.4,1.9,62.6,2.1,62.6,2.3z"/>
		</g>
		<g id="XMLID_3936_">
			<path id="XMLID_3937_" fill="#C6C6C6" d="M65.9,3.1c-0.5,0-0.3,0.1,0,0.1c0.2,0.1,0.5,0.3,0.2,0.6C66.1,3.5,66.6,3.2,65.9,3.1z"
				/>
		</g>
		<g id="XMLID_3934_">
			<path id="XMLID_3935_" fill="#C6C6C6" d="M68.6,4.8c-0.3,0-0.4-0.1-0.4-0.2C68.4,4.6,68.5,4.7,68.6,4.8z"/>
		</g>
		<g id="XMLID_3932_">
			<path id="XMLID_3933_" fill="#C6C6C6" d="M57.4,5c-0.1,0.1-0.2,0.1-0.3,0.2C57.2,5.1,57.3,5.1,57.4,5z"/>
		</g>
		<g id="XMLID_3930_">
			<path id="XMLID_3931_" fill="#C6C6C6" d="M57.6,4.9L57.4,5C57.4,5,57.5,5,57.6,4.9z"/>
		</g>
		<g id="XMLID_3928_">
			<path id="XMLID_3929_" fill="#C6C6C6" d="M64.5,4L64.5,4C64.4,4,64.4,4,64.5,4L64.5,4z"/>
		</g>
		<g id="XMLID_3926_">
			<path id="XMLID_3927_" fill="#F8C5CE" d="M41.4,22.5c-0.1,0.2-0.2,0.3-0.2,0.4C41.3,22.8,41.3,22.7,41.4,22.5
				C41.4,22.5,41.4,22.5,41.4,22.5z"/>
		</g>
		<g id="XMLID_3924_">
			<path id="XMLID_3925_" fill="#C6C6C6" d="M40.4,22.5c0.1-0.9,1.2-0.3,1.7-1.5c-0.2,0.5-0.5,1-0.7,1.5
				C40.5,22.9,41.5,21.9,40.4,22.5z"/>
		</g>
		<g id="XMLID_3922_">
			<path id="XMLID_3923_" fill="#F8C5CE" d="M46.2,12.9C46.2,12.9,46.2,12.8,46.2,12.9C46.3,12.7,46.3,12.8,46.2,12.9z"/>
		</g>
		<g id="XMLID_3920_">
			<polygon id="XMLID_3921_" fill="#C6C6C6" points="15.1,47.1 15.1,47.2 14.4,47.1 			"/>
		</g>
		<g id="XMLID_3918_">
			<path id="XMLID_3919_" fill="#C6C6C6" d="M15.3,47.4c0.4,0.1,0.9,0.1,1.3,0.1c-2.5,0.5-5.2,0.6-7.8-0.1l0.3-0.2c0,0,0.1,0,0.3,0
				c0.2,0,0.4,0,0.7,0.1c0.3,0,0.6,0.1,1,0.2c0.4,0,0.8,0.1,1.2,0.1C13.8,47.7,15.4,47.5,15.3,47.4z"/>
		</g>
		<g id="XMLID_3916_">
			<path id="XMLID_3917_" fill="#C6C6C6" d="M15.6,47c0.6-0.8,1.3,0.1,2-0.7c-0.2,0.2-0.5,0.5-0.7,0.6c-0.2,0.2-0.5,0.2-0.8,0.2
				L15.6,47z"/>
		</g>
		<g id="XMLID_3914_">
			<path id="XMLID_3915_" fill="#C6C6C6" d="M17.7,45.2c0.4,0.1,0.7-0.4,1-0.4C18.7,45.4,18,45.2,17.7,45.2z"/>
		</g>
		<g id="XMLID_3912_">
			<path id="XMLID_3913_" fill="#C6C6C6" d="M18,43c0,0,0.1,0,0.1-0.1C18.1,43,18.1,43.1,18,43L18,43z"/>
		</g>
		<g id="XMLID_3910_">
			<path id="XMLID_3911_" fill="#C6C6C6" d="M18,43.1l0.1,0.2C18,43.3,18,43.2,18,43.1z"/>
		</g>
		<g id="XMLID_3908_">
			<path id="XMLID_3909_" fill="#C6C6C6" d="M18.2,43c0.1-0.1,0.2-0.2,0.3-0.4l-0.1,0c0.2-0.1,0.4-0.4,0.5-0.3
				c-0.4,0.1-0.3,0.3-0.2,0.6l0.6-0.2C19.4,43.4,18.7,42.9,18.2,43z"/>
		</g>
		<g id="XMLID_3906_">
			<path id="XMLID_3907_" fill="#C6C6C6" d="M19.9,42c-0.1,0.2-0.3,0.5-0.4,0.7C19.2,42.4,19.7,42.1,19.9,42z"/>
		</g>
		<g id="XMLID_3904_">
			<path id="XMLID_3905_" fill="#C6C6C6" d="M21,42c-0.1,0.2-0.7,0.5-0.2,0.4c-0.1,0.1-0.2,0.2-0.3,0.2C20.8,42.4,20.2,42.1,21,42z"
				/>
		</g>
		<g id="XMLID_3902_">
			<path id="XMLID_3903_" fill="#C6C6C6" d="M20.5,42.7c0,0-0.1,0.1-0.2,0.1C20.4,42.8,20.4,42.7,20.5,42.7z"/>
		</g>
		<g id="XMLID_3898_">
			<path id="XMLID_3899_" fill="#C6C6C6" d="M22.4,41.7c0.1,0,0.1-0.1,0.2-0.1C22.6,41.6,22.5,41.7,22.4,41.7L22.4,41.7z"/>
		</g>
		<g id="XMLID_3896_">
			<path id="XMLID_3897_" fill="#C6C6C6" d="M0.4,43.1c0.3,0.5,0.7,0.9,1.1,1.4c0.2,0.2,0.5,0.4,0.8,0.7c0.3,0.2,0.6,0.5,1,0.6
				c0.3-0.5,0.6,0.3,1.1-0.2c-0.3-0.2-0.2-0.1,0.2,0.1c0.1,0.1,0.2,0.1,0.4,0.2C5,45.9,5.2,46,5.3,46.1c0.3,0.1,0.7,0.3,1,0.5
				c1.5,0.5,3.1,0.7,2.5,0.4l-0.4,0.1C8.6,47,8.8,46.8,9,46.7c0.3,0.2,0.7,0.4,1.1,0.6c0.4,0.2,0.8,0.3,1,0.1c0,0-0.1,0-0.2,0
				c-0.2,0-0.4,0-0.7-0.1c-0.3-0.1-0.6-0.1-1-0.2c-0.4-0.1-0.7-0.2-1.1-0.3c-0.4-0.1-0.7-0.3-1.1-0.4c-0.2-0.1-0.3-0.1-0.5-0.2
				C6.3,46.1,6.2,46,6,46c-0.5-0.3-0.9-0.4-0.8-0.4c0-0.2,0.4-0.1,1.2,0.2c0.4,0.1,0.8,0.3,1.3,0.4c0.2,0.1,0.5,0.1,0.8,0.2
				c0.3,0.1,0.5,0.1,0.8,0.2c0.5,0.1,1.1,0.2,1.6,0.2c0.5,0,1,0,1.5,0.1c0.9-0.1,1.5-0.1,1.5-0.2l0.1,0.4c0.5-0.2,1-0.5,1.4-0.8
				c0.4-0.3,0.7-0.5,1.2-0.7l0.3,0.4c-0.7,0-0.8,0.3-1.5,0.6c0.6-0.1,0.9-0.2,1.3-0.2c0.3,0,0.6-0.1,1-0.2c-0.2-0.5-0.8-0.1,0.2-0.7
				c0.2,0.1,0.1,0.3,0.2,0.5c0,0.2,0.1,0.3,0.6,0.1c0.6-0.1,0.8-0.4,1-0.6c0.1-0.3,0.2-0.6,0.7-0.8l-0.7,0.1c0.3-0.2,1-0.6,1.4-0.5
				c-0.4,0.2-1.3,0.9-1.1,1.4c0.4-0.3,1.4-0.5,1.8-0.7l0,0.5c0.6,0.1,0.5-0.5,1.2-0.5c0.3-0.5-0.6-0.3-0.4-0.6
				c0.2,0.1,1.2-0.3,1.3-0.7c-0.3-0.3-0.6-0.1-0.8,0.2c-0.3,0.2-0.6,0.5-1.1,0.3c0.3-0.1,0.6-0.2,0.9-0.4c0-0.5-0.3-0.3-0.6-0.1
				c-0.3,0.2-0.7,0.5-0.7,0.1c0.1-0.5,0.5-0.5,0.9-0.6c0.4,0,0.8-0.1,0.7-0.7c-0.5,0.1-1.6,0.7-1.6,0.4c0.6,0,0.5-0.7,1-1.1
				c0.3,0,0.6-0.1,0.9-0.1c0.1-0.4-0.1-0.3-0.4-0.2c0.3-0.1,0.6-0.2,0.9-0.4c0.3-0.2,0.6-0.5,0.9-0.7c0.6-0.6,1.3-1.1,2.1-1.5
				c0.6-0.8-0.2-0.3-0.1-0.9c0.7,0,1.1-0.9,1.4-1.4c0.1-0.1,0-0.6-0.3-0.7c-0.2,0.4-0.4,0.8-0.7,1.2c-0.1-0.2-0.6-0.4-0.9,0
				c0.5,0.2,0,0.5-0.4,0.7c-0.5,0.3-1,0.6-0.6,1L25,38.3c-0.3,0.4-0.7,0.9-1.1,1.4l0.1,0c-0.1-0.1-0.3,0.2-0.6,0.6
				c-0.3,0.3-0.8,0.7-1.2,0.9c0.1-0.3,1.5-1,0.4-0.9c0.4-0.6,1.6-1,2.4-2l-0.4-0.1c0.6-1.2,2.3-2,3.2-3.2l0,0.6
				c0.5-0.3,1.2-0.6,1.2-1.2c-0.4,0.5-0.4,0.1-0.5-0.1c0.4-0.8,1.4-1.7,2-2.8c0,0,0,0.1,0.1,0.1c0.2-0.4,0.3-0.8,0.5-1.2
				c0.4-0.4,0.8-0.5,1.2-0.6c0.1-0.2,0.4-0.7,0.1-0.7c-0.1,0.1-0.2,0.2-0.2,0.3c0-0.8,0.4-0.3,0.6-1.1c0,0.8,0.6,0.2,0.9,0.5
				c0.4-0.9-0.6-0.5-0.7-0.7c0.9-0.8,1.2-0.8,2-1.7c-0.2-0.2-0.6,0.6-0.9,0.5c0.2-0.2,0.4-0.6,0.4-0.7l-0.6,0.5
				c0.9-0.9,1.7-1.8,2.2-3.1l-0.2,0l0.5-0.7l0.3,0.5c0.1-0.5,0.8-0.6,0.6-1.1l-0.1,0.1l0.2-0.6l0.1,0.8c0.6-0.5,0.3-1.9,1-2.9
				c0.7,0.1-0.9,1.9-0.3,2.5c0.3-0.3,0.8-0.8,0.8-1.1c-0.2-0.1-0.4,0.2-0.5,0.4c0.2-1.1,1.7-2.1,1.4-3.1l-0.7,0.5
				c0.4-0.8,1.5-0.8,1.3-1.4l0.3,1.1c0.2-1,0.9-2,1.2-2.9c-0.4-0.3-0.7,1.1-0.8,1l-0.1-0.6c1-1,0.5-0.2,1.7-1.4l-0.3-0.2
				c0.7-0.2,0.9-2,1.2-1l-0.4,0.3l0.3,0.2l1-1.7c0.1,0.3,0.6-0.5,0.8,0l0.2-0.8c0.6,0.1-0.3,1.5,0,1.8c0.2,0.1,0.4-0.1,0.5-0.3
				c-0.2,0.9-1.2,0.7-1.8,1.4l0,0.6l-0.4-0.3c-0.1,0.3,0,0.8,0,1c-1,0.3-0.9,1.5-1.7,2.5c0.4-1-0.8,0.3-0.8,0.1
				c-0.3,0.5-0.4,2.2-1.2,2.3c-0.4,0.2,0.1-0.8-0.4-0.2c-0.2,0.5-0.2,0.9,0.2,0.8c-0.5,1.1-1.3,2.2-2,3.2l-0.1-0.4
				c-0.7,0.5-0.7,1.4-0.6,2c-0.2,0-0.1,0.1-0.2-0.1c-1,0.6-0.1,1.5-1.1,2.8c0.4,0.2,0.9-0.4,1-1l0.4,0.4c0.8-1.2,1.6-2.6,1.9-3.8
				l0,0.7c1.1-0.5-0.2-1,1-1.3c0.2-0.7-0.5,0.3-0.4-0.3c0.4-0.3,0.7,0.6,1.2-0.1c-1.4,2.8-3.3,5.8-5.1,8.5c0,0.1,0.2,0,0.3-0.1
				c0,0.7-1.7,2.6-3.4,4.5c-1.7,1.8-3.4,3.4-3,4c-0.3,0-0.1-0.6-0.5,0c0,0.1,0,0.3,0.3,0.4c-0.9,0.4-1.6,1.1-2.4,1.9
				c-0.8,0.8-1.7,1.5-2.7,1.9c0.2,0.2-0.1,0.6-0.1,0.7c-0.5,0-0.9,0.3-1.3,0.6c-0.4,0.3-0.8,0.6-1.2,0.6l0.3,0.1l-0.5,0.3l-0.5,0.2
				c-0.3,0.1-0.7,0.3-1,0.4c0,0.1,0.3,0,0.4,0c-0.4,0.3-0.6,0.1-0.8-0.1L19,47.6c-1.6,0-3.1,0.5-4.9,0.7c-1.7,0.3-3.7,0.3-5.3-0.4
				c-0.3,0.1-0.6,0.2-0.9,0.3c-0.2,0-0.3,0-0.5,0c-0.2,0-0.4-0.1-0.6-0.2l0.4,0.3c-1,0,0-0.2-0.8-0.4c-0.6,0.1-0.4,0.6,0.4,0.6
				c0.4,0.3,0.1,0.4-0.3,0.3c-0.4-0.2-0.7-0.3-1.1-0.5c-0.3-0.2-0.7-0.4-1-0.6l-0.5-0.3c-0.2-0.1-0.3-0.2-0.4-0.4
				c-0.3-0.2-0.6-0.5-0.8-0.7c-0.5-0.5-0.9-1.1-1.3-1.6C0.9,44.2,0.7,43.6,0.4,43.1z"/>
		</g>
		<g id="XMLID_3894_">
			<path id="XMLID_3895_" fill="#C6C6C6" d="M74,9c0-0.3,0.7,0.5,0.7-0.2c-0.1-0.2-0.1-0.5-0.3-0.7c-0.1-0.2-0.3-0.4-0.5-0.6
				c-0.1-0.1-0.2-0.2-0.3-0.3c-0.1-0.1-0.2-0.2-0.3-0.3c-0.2-0.2-0.4-0.4-0.7-0.5c-1-0.7-2.1-1.1-3.1-1.8c-0.5-0.5-0.6-0.5-1.1-0.8
				c0,0.1,0,0.2,0,0.3C68.2,4,67.8,4,67.4,3.9c-0.4-0.1-0.8-0.1-1.1-0.2c-0.2,0.1-0.3,0.4,0,0.4c-0.5,0.1-0.8,0-1.2-0.2
				c-0.4-0.2-0.7-0.3-0.9-0.1c0.5,0.2-0.4,0.4,0.2,0.5c-0.9,0.2-1.1-1.1-1.9-1.1c0,0.1-0.1,0.2,0.1,0.2c-0.2-0.1-0.5-0.1-0.8,0
				c-0.3,0.1-0.6,0.2-0.9,0.3c-0.6,0.2-1,0.4-1.2,0l-0.2,0.5c-0.5-0.1-0.5-0.4-1.1-0.2c-0.3,0.3,0.2,0.3,0.1,0.5
				c-0.2-0.1-0.5,0-0.9,0.1c-0.4,0.1-0.8,0.3-1.2,0.2c-0.2-0.2,0.2-0.2,0.5-0.2c0.2,0,0.4,0,0.6-0.1c0.2,0,0.3-0.1,0.4-0.3
				c0-0.1-0.1-0.1-0.2-0.1c0.3-0.1,0.7-0.3,1-0.4c0.3-0.1,0.7-0.1,1-0.2c0.6-0.1,1.3-0.1,1.9-0.1c0.6,0,1.2,0.1,1.7,0
				c0.5,0,1.1-0.1,1.6-0.2c0.5,0.4,0.8,0,1-0.4c-0.4-0.2-1.6-0.5-1.5,0.3L63.4,3C63.2,3,63,2.3,62.9,2.1c0.5,0,1-0.8,0.3-1
				c0.7-0.1,0.6,0.3,0.6,0.7c-0.1,0.4-0.2,0.8,0.4,0.6l0.1-0.6c-0.2,0.3,0.9,0.5,1.2,0.3l-0.2-0.1c1.6,0.1,3.5,0.2,5.3,0.8
				c1.8,0.5,3.6,1.4,5.1,2.5c-0.1,0.4,0,0.7,0.2,0.9c0.2,0.2,0.5,0.4,0.7,0.6c0.3,0.2,0.5,0.4,0.7,0.6c0.2,0.2,0.2,0.5,0.1,0.8
				c0.4,0.2,0.1-0.7,0.7-0.2c0.3,0.3,0,0.5-0.1,0.5c0.1,0.1,0.2,0.1,0.3,0.2c-0.5,0.5-1.1,0.7-1.8,0.7c-0.4,0-0.7,0-1.1-0.1
				c-0.1,0-0.2-0.1-0.3-0.1c-0.1,0-0.2-0.1-0.3-0.1C74.5,9.2,74.3,9.1,74,9z"/>
		</g>
	</g>
	<g id="XMLID_3869_">
		<g id="XMLID_3890_">
			<path id="XMLID_3891_" fill="#232020" d="M3.6,17.4v1.8c0.8-1.3,2-1.9,3.6-1.9c1.4,0,2.5,0.5,3.3,1.4c0.8,0.9,1.3,2.2,1.3,3.7v7
				H8.2v-6.5c0-0.8-0.2-1.4-0.6-1.8c-0.4-0.4-1-0.6-1.7-0.6S4.6,20.6,4.2,21c-0.4,0.4-0.6,1-0.6,1.8v6.5h-3.7V17.4H3.6z"/>
		</g>
		<g id="XMLID_3886_">
			<path id="XMLID_3887_" fill="#232020" d="M15.4,27.8c-1.1-1.1-1.6-2.6-1.6-4.4c0-1.8,0.5-3.2,1.6-4.4c1.1-1.1,2.3-1.7,3.9-1.7
				c1.5,0,2.7,0.6,3.5,1.7v-1.6h3.7v11.9h-3.7v-1.7c-0.9,1.3-2.1,1.9-3.5,1.9C17.7,29.5,16.5,28.9,15.4,27.8z M22,25.5
				c0.5-0.5,0.8-1.2,0.8-2.2s-0.3-1.7-0.8-2.2c-0.5-0.5-1.1-0.8-1.8-0.8c-0.7,0-1.3,0.3-1.8,0.8c-0.5,0.5-0.8,1.2-0.8,2.2
				c0,0.9,0.3,1.7,0.8,2.2c0.5,0.5,1.1,0.8,1.8,0.8C20.8,26.3,21.4,26,22,25.5z"/>
		</g>
		<g id="XMLID_3883_">
			<path id="XMLID_3884_" fill="#232020" d="M34.5,26.2h1.3v3.1h-1.9c-1.3,0-2.4-0.3-3.1-0.9c-0.7-0.6-1.1-1.6-1.1-3v-5h-1.1v-3h1.1
				v-2.9h3.7v2.9h2.4v3h-2.4v5C33.4,25.9,33.7,26.2,34.5,26.2z"/>
		</g>
		<g id="XMLID_3880_">
			<path id="XMLID_3881_" fill="#232020" d="M46.2,17.4h3.7v11.9h-3.7v-1.8c-0.8,1.3-2,1.9-3.6,1.9c-1.4,0-2.5-0.5-3.3-1.4
				c-0.8-0.9-1.3-2.2-1.3-3.7v-7h3.6v6.5c0,0.8,0.2,1.4,0.6,1.8c0.4,0.4,1,0.6,1.7,0.6c0.7,0,1.3-0.2,1.7-0.6c0.4-0.4,0.6-1,0.6-1.8
				V17.4z"/>
		</g>
		<g id="XMLID_3877_">
			<path id="XMLID_3878_" fill="#232020" d="M56.5,17.4v2.2c0.9-1.6,2-2.4,3.4-2.4V21H59c-0.8,0-1.5,0.2-1.9,0.6
				c-0.4,0.4-0.6,1.1-0.6,2.1v5.6h-3.7V17.4H56.5z"/>
		</g>
		<g id="XMLID_3873_">
			<path id="XMLID_3874_" fill="#232020" d="M62.4,27.8c-1.1-1.1-1.6-2.6-1.6-4.4c0-1.8,0.5-3.2,1.6-4.4c1.1-1.1,2.3-1.7,3.9-1.7
				c1.5,0,2.7,0.6,3.5,1.7v-1.6h3.7v11.9h-3.7v-1.7c-0.9,1.3-2.1,1.9-3.5,1.9C64.7,29.5,63.4,28.9,62.4,27.8z M69,25.5
				c0.5-0.5,0.8-1.2,0.8-2.2s-0.3-1.7-0.8-2.2c-0.5-0.5-1.1-0.8-1.8-0.8c-0.7,0-1.3,0.3-1.8,0.8c-0.5,0.5-0.8,1.2-0.8,2.2
				c0,0.9,0.3,1.7,0.8,2.2c0.5,0.5,1.1,0.8,1.8,0.8C67.8,26.3,68.4,26,69,25.5z"/>
		</g>
		<g id="XMLID_3870_">
			<path id="XMLID_3871_" fill="#232020" d="M76.4,29.3V13.5h3.7v15.8H76.4z"/>
		</g>
	</g>
	<g id="XMLID_3828_">
		<g id="XMLID_3866_">
			<path id="XMLID_3867_" fill="#020203" d="M3.9,31.4V35H3.3v-2.5L2.2,35H1.8l-1.1-2.5V35H0.1v-3.6h0.6L2,34.2l1.3-2.8H3.9z"/>
		</g>
		<g id="XMLID_3863_">
			<path id="XMLID_3864_" fill="#020203" d="M8,35v-3.6h0.6V35H8z"/>
		</g>
		<g id="XMLID_3860_">
			<path id="XMLID_3861_" fill="#020203" d="M15,31.4h0.6V35H15l-1.8-2.7V35h-0.6v-3.6h0.6l1.8,2.7V31.4z"/>
		</g>
		<g id="XMLID_3857_">
			<path id="XMLID_3858_" fill="#020203" d="M21.6,31.4v0.5h-1.4v1.1h1.2v0.5h-1.2v1.1h1.4V35h-2v-3.6H21.6z"/>
		</g>
		<g id="XMLID_3853_">
			<path id="XMLID_3854_" fill="#020203" d="M26.3,33.5V35h-0.6v-3.6h1.2c0.4,0,0.7,0.1,0.9,0.3c0.2,0.2,0.3,0.5,0.3,0.8
				c0,0.2-0.1,0.5-0.2,0.7c-0.1,0.2-0.4,0.3-0.7,0.4l0.9,1.5h-0.7l-0.9-1.5H26.3z M26.3,31.9v1.2h0.7c0.2,0,0.4-0.1,0.5-0.2
				c0.1-0.1,0.2-0.3,0.2-0.4c0-0.2-0.1-0.3-0.2-0.4c-0.1-0.1-0.3-0.2-0.5-0.2H26.3z"/>
		</g>
		<g id="XMLID_3849_">
			<path id="XMLID_3850_" fill="#020203" d="M34.7,35l-0.3-0.7h-1.5L32.6,35H32l1.3-3.6H34l1.3,3.6H34.7z M33.1,33.8h1.2l-0.6-1.7
				L33.1,33.8z"/>
		</g>
		<g id="XMLID_3846_">
			<path id="XMLID_3847_" fill="#020203" d="M39.1,31.4h0.6v3.1h1.2V35h-1.8V31.4z"/>
		</g>
		<g id="XMLID_3843_">
			<path id="XMLID_3844_" fill="#020203" d="M53.6,31.4h0.6L53.2,35h-0.7l-0.8-2.7L51,35l-0.7,0l-1-3.6h0.6l0.7,2.9l0.8-2.9h0.7
				l0.7,2.9L53.6,31.4z"/>
		</g>
		<g id="XMLID_3839_">
			<path id="XMLID_3840_" fill="#020203" d="M60.5,35l-0.3-0.7h-1.5L58.5,35h-0.6l1.3-3.6h0.7l1.3,3.6H60.5z M58.9,33.8h1.2
				l-0.6-1.7L58.9,33.8z"/>
		</g>
		<g id="XMLID_3836_">
			<path id="XMLID_3837_" fill="#020203" d="M64.8,31.9v-0.5h2.5v0.5h-1V35h-0.6v-3.1H64.8z"/>
		</g>
		<g id="XMLID_3833_">
			<path id="XMLID_3834_" fill="#020203" d="M73.2,31.4v0.5h-1.4v1.1H73v0.5h-1.2v1.1h1.4V35h-2v-3.6H73.2z"/>
		</g>
		<g id="XMLID_3829_">
			<path id="XMLID_3830_" fill="#020203" d="M77.8,33.5V35h-0.6v-3.6h1.2c0.4,0,0.7,0.1,0.9,0.3c0.2,0.2,0.3,0.5,0.3,0.8
				c0,0.2-0.1,0.5-0.2,0.7c-0.1,0.2-0.4,0.3-0.7,0.4l1,1.5H79l-0.9-1.5H77.8z M77.8,31.9v1.2h0.7c0.2,0,0.4-0.1,0.5-0.2
				c0.1-0.1,0.2-0.3,0.2-0.4c0-0.2-0.1-0.3-0.2-0.4c-0.1-0.1-0.3-0.2-0.5-0.2H77.8z"/>
		</g>
	</g>
</g>
</svg>
