<?xml version="1.0" encoding="utf-8"?>
<!-- Generator: Adobe Illustrator 23.0.1, SVG Export Plug-In . SVG Version: 6.00 Build 0)  -->
<svg version="1.2" baseProfile="tiny" id="Layer_1" xmlns="http://www.w3.org/2000/svg" xmlns:xlink="http://www.w3.org/1999/xlink"
	 x="0px" y="0px" viewBox="0 0 80 50" xml:space="preserve">
<g id="XMLID_2626_">
	<g id="XMLID_2782_">
		<g id="XMLID_2797_">
			<path id="XMLID_2798_" fill="#020203" d="M35.2,17.1v0.1c-0.6,0-1.5,0.5-2.6,3.1L30,27.6h-0.5c-1.4-3.2-2.3-5.3-2.9-6.7l-2.4,6.7
				h-0.5c-3.8-8.8-3.9-9.2-3.9-9.2c-0.5-1.2-0.7-1.2-1.1-1.2v-0.1h4.6v0.1c-1,0-0.2,1.7-0.2,1.7l2.2,5.1l1.2-3.3
				c-0.9-2.1-1-2.3-1-2.3c-0.5-1.2-0.7-1.2-1.1-1.2v-0.1h4.6v0.1c-1,0-0.2,1.7-0.2,1.7l2.2,5.1l1.3-3.8c0.4-1.1,0-3.1-1.5-3.1v-0.1
				H35.2z"/>
		</g>
		<g id="XMLID_2794_">
			<path id="XMLID_2795_" fill="#020203" d="M43.7,27.5v0.1H40v-0.1c0.6-0.2,0.6-0.8,0.6-1.6v-3c0-0.8-0.3-1.3-1-1.3
				c-0.4,0-0.7,0.3-0.9,0.6v3.6c0,0.8,0.1,1.4,0.6,1.6v0.1h-3.7v-0.1c0.6-0.2,0.6-0.8,0.6-1.6v-7.7c0-0.5-0.2-0.7-0.8-1v-0.1
				l3.3-0.6v5.6c0.4-0.8,1.2-1.5,2-1.5c1.2,0,2.4,0.5,2.4,2.3v3C43.1,26.7,43.2,27.3,43.7,27.5z"/>
		</g>
		<g id="XMLID_2790_">
			<path id="XMLID_2791_" fill="#020203" d="M48.3,27.5v0.1h-3.7v-0.1c0.6-0.2,0.6-0.8,0.6-1.6v-3.6c0-0.5-0.2-0.7-0.8-1v-0.1
				l3.3-0.6v5.3C47.7,26.7,47.7,27.3,48.3,27.5z M44.8,18.8c0-0.8,0.6-1.4,1.4-1.4c0.8,0,1.4,0.6,1.4,1.4s-0.6,1.4-1.4,1.4
				C45.4,20.2,44.8,19.6,44.8,18.8z"/>
		</g>
		<g id="XMLID_2787_">
			<path id="XMLID_2788_" fill="#020203" d="M54.5,26.2L54.5,26.2c-0.1,0.8-1,1.5-2.1,1.5c-1.2,0-2.5-0.5-2.5-2.3v-4.6H49v-0.1h0.9
				v-2l2.5-0.3v2.3h1.9v0.1h-1.9v4.6c0,0.8,0.3,1.2,1.2,1.2C54,26.6,54.3,26.4,54.5,26.2z"/>
		</g>
		<g id="XMLID_2783_">
			<path id="XMLID_2784_" fill="#020203" d="M62.2,24h-4c0,2.3,0.7,2.9,1.7,3.1c0.7,0.2,1.7-0.3,2-1.5l0.1,0
				c-0.2,1.1-1.3,2.2-3.1,2.2c-2,0-3.5-1.5-3.5-3.6c0-2.5,1.9-3.6,3.8-3.6C60.6,20.6,62.2,21.2,62.2,24z M60,23.9
				c0-1.9-0.2-3.2-0.9-3.2c-0.7,0-1,1.7-1,3.2H60z"/>
		</g>
	</g>
	<g id="XMLID_2734_">
		<g id="XMLID_2779_">
			<path id="XMLID_2780_" fill="#575756" d="M29.4,32.7v-2h0.5v2H29.4z"/>
		</g>
		<g id="XMLID_2776_">
			<path id="XMLID_2777_" fill="#575756" d="M33.1,30.7h0.5v2h-0.5l-0.8-1.3v1.3h-0.5v-2h0.5l0.8,1.3V30.7z"/>
		</g>
		<g id="XMLID_2773_">
			<path id="XMLID_2774_" fill="#575756" d="M35.3,31.1v-0.4h1.6v0.4h-0.6v1.7h-0.5v-1.7H35.3z"/>
		</g>
		<g id="XMLID_2770_">
			<path id="XMLID_2771_" fill="#575756" d="M39.9,30.7v0.4h-0.7v0.4h0.6v0.4h-0.6v0.5h0.7v0.4h-1.2v-2H39.9z"/>
		</g>
		<g id="XMLID_2766_">
			<path id="XMLID_2767_" fill="#575756" d="M42.3,31.9v0.8h-0.5v-2h0.8c0.2,0,0.4,0.1,0.6,0.2c0.1,0.1,0.2,0.3,0.2,0.4
				c0,0.1,0,0.2-0.1,0.3s-0.2,0.2-0.4,0.2l0.5,0.8h-0.6L42.3,31.9L42.3,31.9z M42.3,31.1v0.5h0.3c0.1,0,0.1,0,0.2-0.1
				c0,0,0.1-0.1,0.1-0.2c0-0.1,0-0.1-0.1-0.2c0,0-0.1-0.1-0.2-0.1H42.3z"/>
		</g>
		<g id="XMLID_2763_">
			<path id="XMLID_2764_" fill="#575756" d="M45.2,32.7v-2h0.5v2H45.2z"/>
		</g>
		<g id="XMLID_2759_">
			<path id="XMLID_2760_" fill="#575756" d="M47.7,32.4c-0.2-0.2-0.3-0.4-0.3-0.7c0-0.3,0.1-0.6,0.3-0.7c0.2-0.2,0.4-0.3,0.7-0.3
				c0.3,0,0.5,0.1,0.7,0.3c0.2,0.2,0.3,0.4,0.3,0.7c0,0.3-0.1,0.6-0.3,0.7c-0.2,0.2-0.4,0.3-0.7,0.3C48.2,32.7,47.9,32.6,47.7,32.4z
				 M48.9,32.1C49,32,49,31.9,49,31.7c0-0.2,0-0.3-0.1-0.4c-0.1-0.1-0.2-0.2-0.4-0.2c-0.2,0-0.3,0.1-0.4,0.2
				c-0.1,0.1-0.1,0.2-0.1,0.4c0,0.2,0,0.3,0.1,0.4c0.1,0.1,0.2,0.2,0.4,0.2C48.6,32.3,48.8,32.2,48.9,32.1z"/>
		</g>
		<g id="XMLID_2755_">
			<path id="XMLID_2756_" fill="#575756" d="M51.8,31.9v0.8h-0.5v-2h0.8c0.2,0,0.4,0.1,0.6,0.2c0.1,0.1,0.2,0.3,0.2,0.4
				c0,0.1,0,0.2-0.1,0.3c-0.1,0.1-0.2,0.2-0.4,0.2l0.5,0.8h-0.6L51.8,31.9L51.8,31.9z M51.8,31.1v0.5h0.3c0.1,0,0.1,0,0.2-0.1
				c0,0,0.1-0.1,0.1-0.2c0-0.1,0-0.1-0.1-0.2c0,0-0.1-0.1-0.2-0.1H51.8z"/>
		</g>
		<g id="XMLID_2752_">
			<path id="XMLID_2753_" fill="#575756" d="M32.8,34.5c-0.1,0-0.1,0-0.2,0c0,0-0.1,0.1-0.1,0.1c0,0.1,0,0.1,0.1,0.1
				c0,0,0.1,0.1,0.1,0.1c0.1,0,0.1,0,0.2,0.1c0.1,0,0.1,0,0.2,0.1c0.1,0,0.1,0.1,0.2,0.1c0.1,0,0.1,0.1,0.1,0.2
				c0,0.1,0.1,0.2,0.1,0.3c0,0.2-0.1,0.3-0.2,0.4c-0.1,0.1-0.3,0.2-0.6,0.2c-0.2,0-0.4-0.1-0.6-0.2c-0.1-0.1-0.2-0.3-0.2-0.5h0.5
				c0,0.2,0.1,0.2,0.2,0.2c0.1,0,0.1,0,0.2-0.1c0,0,0.1-0.1,0.1-0.1c0-0.1,0-0.1-0.1-0.1c0,0-0.1-0.1-0.1-0.1c-0.1,0-0.1,0-0.2-0.1
				c-0.1,0-0.1,0-0.2-0.1c-0.1,0-0.1-0.1-0.2-0.1c-0.1,0-0.1-0.1-0.1-0.2c0-0.1-0.1-0.2-0.1-0.3c0-0.2,0.1-0.3,0.2-0.5
				c0.1-0.1,0.3-0.2,0.5-0.2c0.2,0,0.4,0,0.5,0.1c0.1,0.1,0.2,0.3,0.2,0.5H33c0-0.1,0-0.1-0.1-0.2C32.9,34.6,32.9,34.5,32.8,34.5z"
				/>
		</g>
		<g id="XMLID_2749_">
			<path id="XMLID_2750_" fill="#575756" d="M35.3,34.5v-0.4h1.6v0.4h-0.6v1.7h-0.5v-1.7H35.3z"/>
		</g>
		<g id="XMLID_2746_">
			<path id="XMLID_2747_" fill="#575756" d="M38.6,35.4v-1.2h0.5v1.2c0,0.1,0,0.2,0.1,0.3c0.1,0.1,0.1,0.1,0.3,0.1
				c0.1,0,0.2,0,0.3-0.1c0.1-0.1,0.1-0.2,0.1-0.3v-1.2h0.5v1.2c0,0.2,0,0.3-0.1,0.5c-0.1,0.1-0.2,0.2-0.3,0.3
				c-0.1,0.1-0.3,0.1-0.4,0.1c-0.2,0-0.4-0.1-0.6-0.2C38.7,35.9,38.6,35.7,38.6,35.4z"/>
		</g>
		<g id="XMLID_2742_">
			<path id="XMLID_2743_" fill="#575756" d="M42.9,34.2c0.3,0,0.6,0.1,0.8,0.3c0.2,0.2,0.3,0.4,0.3,0.7c0,0.3-0.1,0.5-0.3,0.7
				c-0.2,0.2-0.5,0.3-0.8,0.3h-0.7v-2H42.9z M42.7,35.8h0.2c0.2,0,0.3-0.1,0.4-0.2c0.1-0.1,0.2-0.3,0.2-0.5c0-0.2-0.1-0.4-0.2-0.5
				c-0.1-0.1-0.3-0.2-0.4-0.2h-0.2V35.8z"/>
		</g>
		<g id="XMLID_2739_">
			<path id="XMLID_2740_" fill="#575756" d="M45.8,36.2v-2h0.5v2H45.8z"/>
		</g>
		<g id="XMLID_2735_">
			<path id="XMLID_2736_" fill="#575756" d="M48.4,35.9c-0.2-0.2-0.3-0.4-0.3-0.7c0-0.3,0.1-0.6,0.3-0.7c0.2-0.2,0.4-0.3,0.7-0.3
				s0.5,0.1,0.7,0.3c0.2,0.2,0.3,0.4,0.3,0.7c0,0.3-0.1,0.6-0.3,0.7c-0.2,0.2-0.4,0.3-0.7,0.3C48.8,36.2,48.6,36.1,48.4,35.9z
				 M49.5,35.6c0.1-0.1,0.1-0.2,0.1-0.4c0-0.2,0-0.3-0.1-0.4c-0.1-0.1-0.2-0.2-0.4-0.2c-0.2,0-0.3,0.1-0.4,0.2
				c-0.1,0.1-0.1,0.2-0.1,0.4c0,0.2,0,0.3,0.1,0.4c0.1,0.1,0.2,0.2,0.4,0.2C49.3,35.8,49.4,35.7,49.5,35.6z"/>
		</g>
	</g>
	<g id="XMLID_2627_">
		<g id="XMLID_2732_">
			<path id="XMLID_2733_" fill="#575756" d="M75.2,48.7c0.1,0.1,0.2,0.1,0.2-0.3l-0.3-0.2L75.2,48.7z"/>
		</g>
		<g id="XMLID_2730_">
			<path id="XMLID_2731_" fill="#575756" d="M75.8,46.4c-0.1-0.4-0.4-0.9-0.6-0.6c0.3,0.4,0.2,0.5,0.5,0.9c0,0.3-0.1,0.6-0.2,0.5
				c0.1,0.1-0.1,0.5,0.1,0.7c0.2-0.4,0.2-1,0-1.6C75.6,46.2,75.7,46.3,75.8,46.4z"/>
		</g>
		<g id="XMLID_2728_">
			<path id="XMLID_2729_" fill="#575756" d="M76.2,12.8l0,0.2C76.2,12.9,76.2,12.9,76.2,12.8z"/>
		</g>
		<g id="XMLID_2726_">
			<path id="XMLID_2727_" fill="#575756" d="M66.5,0.8c0.2,0,0.2,0,0.2-0.1C66.6,0.7,66.5,0.7,66.5,0.8z"/>
		</g>
		<g id="XMLID_2724_">
			<path id="XMLID_2725_" fill="#575756" d="M62.9,0.4c0.1,0,0.1,0,0.2,0C63.1,0.4,63,0.4,62.9,0.4z"/>
		</g>
		<g id="XMLID_2722_">
			<path id="XMLID_2723_" fill="#575756" d="M76.2,12.8l0.1-0.6C76.2,12.2,76.2,12.5,76.2,12.8z"/>
		</g>
		<g id="XMLID_2720_">
			<path id="XMLID_2721_" fill="#575756" d="M75.1,41.7c0,0.1,0,0.2,0.1,0.3C75.1,41.9,75.1,41.8,75.1,41.7
				C75.1,41.7,75.1,41.7,75.1,41.7z"/>
		</g>
		<g id="XMLID_2718_">
			<path id="XMLID_2719_" fill="#575756" d="M76.4,22l0,0.2c0,0,0.1,0.1,0.1,0.1L76.4,22z"/>
		</g>
		<g id="XMLID_2716_">
			<path id="XMLID_2717_" fill="#575756" d="M76.5,29c0-0.2-0.2-0.2-0.3-0.3c0.1,0.1,0.1,0.2,0.2,0.3C76.4,29.1,76.4,29,76.5,29z"/>
		</g>
		<g id="XMLID_2714_">
			<path id="XMLID_2715_" fill="#575756" d="M76.1,40.2l0,0.2C76.1,40.3,76.1,40.2,76.1,40.2z"/>
		</g>
		<g id="XMLID_2712_">
			<path id="XMLID_2713_" fill="#575756" d="M76.5,16.9C76.5,16.9,76.6,16.9,76.5,16.9C76.5,16.9,76.5,16.9,76.5,16.9z"/>
		</g>
		<g id="XMLID_2710_">
			<path id="XMLID_2711_" fill="#575756" d="M67.7,47.5C67.6,47.6,67.7,47.6,67.7,47.5C67.7,47.6,67.7,47.5,67.7,47.5z"/>
		</g>
		<g id="XMLID_2708_">
			<path id="XMLID_2709_" fill="#575756" d="M75.8,48.7l-0.1,0c0,0,0,0.1,0,0.1L75.8,48.7z"/>
		</g>
		<g id="XMLID_2706_">
			<path id="XMLID_2707_" fill="#575756" d="M56.4,0.1C56.5,0.1,56.5,0.1,56.4,0.1C56.6,0.1,56.5,0.1,56.4,0.1z"/>
		</g>
		<g id="XMLID_2704_">
			<path id="XMLID_2705_" fill="#575756" d="M3.8,9.3C4,8.7,4.1,10.4,4.3,9.4C4.2,9.5,4,8.5,3.8,9.3z"/>
		</g>
		<g id="XMLID_2702_">
			<path id="XMLID_2703_" fill="#575756" d="M75.1,41.5c0-0.1,0-0.2,0-0.3C75.1,41.4,75.1,41.5,75.1,41.5z"/>
		</g>
		<g id="XMLID_2700_">
			<path id="XMLID_2701_" fill="#575756" d="M4.3,9.4L4.3,9.4l0-0.1C4.3,9.4,4.3,9.4,4.3,9.4z"/>
		</g>
		<g id="XMLID_2698_">
			<path id="XMLID_2699_" fill="#575756" d="M41.5,0.3c0,0,0.1,0.1,0.2,0.1C41.6,0.4,41.6,0.3,41.5,0.3z"/>
		</g>
		<g id="XMLID_2696_">
			<path id="XMLID_2697_" fill="#575756" d="M52.6,0.6l-0.3,0C52.5,0.6,52.5,0.6,52.6,0.6z"/>
		</g>
		<g id="XMLID_2694_">
			<path id="XMLID_2695_" fill="#575756" d="M35.7,0.6c-0.2,0-0.2-0.1-0.4,0c0,0,0,0,0.1,0C35.4,0.6,35.5,0.6,35.7,0.6z"/>
		</g>
		<g id="XMLID_2692_">
			<path id="XMLID_2693_" fill="#575756" d="M29.6,0.6c0,0,0.1,0,0.1,0c0.1,0,0.1,0,0.2,0L29.6,0.6z"/>
		</g>
		<g id="XMLID_2690_">
			<path id="XMLID_2691_" fill="#575756" d="M49.3,47.7c0.1,0.1,0.2,0.1,0.3,0.2C49.5,47.7,50.4,47.6,49.3,47.7z"/>
		</g>
		<g id="XMLID_2688_">
			<path id="XMLID_2689_" fill="#575756" d="M75.2,41.7c-0.1,0-0.1-0.1-0.1-0.2C75.1,41.6,75.1,41.7,75.2,41.7
				C75.2,41.8,75.2,41.8,75.2,41.7z"/>
		</g>
		<g id="XMLID_2686_">
			<path id="XMLID_2687_" fill="#575756" d="M35.4,2.5l-1,0C34.7,2.5,35.1,2.5,35.4,2.5z"/>
		</g>
		<g id="XMLID_2684_">
			<path id="XMLID_2685_" fill="#575756" d="M6.2,47.7L6.2,47.7l0.1,0C6.3,47.7,6.2,47.7,6.2,47.7C6.2,47.7,6.2,47.7,6.2,47.7z"/>
		</g>
		<g id="XMLID_2682_">
			<path id="XMLID_2683_" fill="#575756" d="M31.6,2.5c-0.2-0.1-0.4-0.1-0.5-0.2c0,0-0.1,0-0.1,0.1L31.6,2.5z"/>
		</g>
		<g id="XMLID_2680_">
			<path id="XMLID_2681_" fill="#575756" d="M49.6,47.9C49.6,47.9,49.6,47.9,49.6,47.9C49.6,47.9,49.6,47.9,49.6,47.9z"/>
		</g>
		<g id="XMLID_2674_">
			<path id="XMLID_2675_" fill="#575756" d="M55.9,47.3c-0.9,0-0.4,0.3-0.6,0.5c-1.1,0.1-0.5-0.2-0.9-0.4c-0.7,0.1-1.2,0.4-1.7,0.4
				c0-0.1-0.1-0.1,0-0.1c-0.7,0.3-2.1,0-3,0.3c-0.1,0-0.1-0.1-0.1-0.1c0.1,0.2,0.2,0.3,0.1,0.4c-0.4,0-0.8,0.2-0.9,0
				c0.3,0,0.3-0.1,0.4-0.1l-0.4,0.1c-0.4-0.3,0.6-0.1,0.6-0.3c-0.8,0.1-1.8,0.3-2.5,0.3c-0.1-0.3,1.5-0.1,0.6-0.4l1,0.1
				c-0.8-0.5,0.6,0-0.1-0.5c-1.3-0.1-1.5,0.1-2.8,0.1c-0.3,0.2,0.1,0.2-0.2,0.4c-1.8,0.3-1.5-0.7-2.8-0.3c-0.4,0.2-0.5,0.6-1.5,0.4
				l0.3-0.3c-1.3,0-0.7,0.5-2,0.3c0.2-0.1,1-0.1,0.8-0.1c-0.9-0.3-0.6,0.2-1.3,0.2l-0.1-0.3c-1.3,0-2.8,0.3-4.3,0.3
				c0.1-0.1,0.3-0.2,0-0.3c-1.9,0.1-4,0-5.8-0.2l-0.7,0.3c-0.2,0-0.3-0.1-0.1-0.2c-0.7-0.1,0,0.2-0.4,0.3c-0.4,0-0.5-0.1-0.3-0.2
				c-1.2,0.2-3.5,0.5-4.9,0.2l0.3-0.1c-1-0.1-1.2,0.5-2.1,0.3l0.2,0c-2.2-0.1-4.7,0.1-6.4-0.3c-0.3,0.4-2.2-0.2-2.3,0.3
				c-1.3-0.2-0.9-0.3-2.7-0.5c-0.5,0-0.7,0.3-1.3,0.4l0-0.3l-0.8,0.3l-0.4-0.3l-0.6,0.1c0.2,0,0.5,0.1,0.4,0.2c-0.2,0-0.3,0-0.5,0
				c-0.1,0-0.2,0-0.2,0c-0.1,0-0.2-0.1-0.2-0.2c0-0.1,0.1-0.1,0.1-0.2c0,0-0.1-0.1-0.1-0.2l0,0c0,0,0-0.1,0-0.1l0-0.3l-0.1-0.5
				c0.1,0,0.1,0.4,0.2,0.7c-0.3-1.1,0.3-0.2,0-1.2c-0.1,0.1-0.2-0.1-0.2-0.1c0.2-0.5,0.2-1.6,0.1-2.5L6,43.5c0-1.5-0.1-3.2-0.1-4.9
				c-0.1,0.6-0.4,0.5-0.4,0l0.3-0.2c-0.2-0.3-0.1,0.5-0.3-0.1c0-0.6,0.3-0.4,0.4-0.1l-0.1-0.8c0.1,0,0.1,0.1,0.2,0.2
				c-0.2-0.3,0.3-1.3,0-1.8l0.1,0C6.1,34,6,33.3,6,31.9c-0.2,0-0.2-0.6-0.4-1c0.1-1,0.3-2.1,0.2-3.4c-0.1-0.9-0.2-0.3-0.3-0.6
				c0.2-0.1,0.2-1.3,0.4-0.7c0-1.5,0-1.9-0.2-3.7c-0.1,0.2-0.1,0.4-0.2,0.3c0-0.3,0.1-0.8,0.2-0.7l0,0.1c-0.3-2.1,0.6-4.8,0.2-6.5
				l0,0.1l-0.2-1.7c0-0.8,0.2,0.5,0.3-0.1C5.5,12.1,6,11,5.7,9.5c0.6-1.2,0-4.2,0.4-5.8L5.9,3.8C5.8,3.4,6,3.3,6,3
				C5.9,3,5.9,3.4,5.8,3.2l0-0.5l0-0.1c0-0.1,0-0.2,0-0.3c0.1,0,0.2,0,0.3,0l0.1,0l0.3,0l0.6,0c0.7,0,1.5,0.1,2.3,0.1
				c1.5,0.1,3,0.2,4.5,0.2c1.3,0,0.7-0.8,2.4-0.4l-0.5,0.3c2.7-0.3,5.4,0,8-0.3c-0.2,0.1-0.2,0.1-0.4,0.1c0.5,0.2,2,0,2-0.2
				c0.4,0,0.1,0.2,0.3,0.2c0.5,0.1,1.4-0.3,1.7-0.1c0,0-0.2,0.1-0.3,0.1c0.4-0.1,1.7,0,1.3-0.2c1,0.1,1.9-0.1,2.6,0
				c0.5-0.3,1.7,0.1,1.8-0.2c-0.1,0.4,1.7,0.3,2.3,0.1c-0.2,0.1,0.5,0.1,0.3,0.3c0.7,0,1.3-0.1,1.2-0.3c1.3,0.5,2.6-0.4,3.3,0.2
				c2.1-0.2,4-0.3,5.9-0.4c-0.1,0.4-2.1,0-2,0.4c1.8-0.2,2.8-0.5,4.6-0.4c0.5,0.1-0.3,0.2-0.4,0.2c1.8-0.2,3.4,0,5-0.2
				c0,0-0.2,0.1-0.3,0.1c0.3,0,0.7,0.1,0.7-0.1l-0.3,0c-0.5-0.3,1.2-0.5,1.3-0.7C54,2,56.1,1.6,55.3,2.3c0.2,0,0.5-0.1,0.4-0.2
				c0.3,0,0.4,0.1,0.1,0.2C56.9,2.2,56.5,2,57.5,2c0,0.1-0.2,0.1-0.3,0.2c0.5-0.2,1-0.3,1.9-0.3c-0.1,0.1,0,0.1-0.2,0.1
				c1.5,0,2.5-0.4,4.1-0.3c-0.5,0.4,0.5,0.1,0.6,0.4l0.9-0.1L64.1,2c0.8,0,1.4-0.2,2.1-0.1L65.7,2l1.4-0.1l-0.8-0.1
				c0.8-0.2-0.1-0.4,0.9-0.3c-0.2,0,0.8,0,1.2,0.2l0,0c0.4-0.1,0.8-0.2,1.3-0.1c0.1,0.1-0.1,0.4,0,0.4c0.4-0.3,1.8-0.1,2.2-0.4
				c-0.2,0.1-0.2,0.2-0.1,0.3l0.3-0.2c0.4,0.1,0.4,0.1,0.3,0.2c1.1,0-0.3-0.4,0.9-0.2c-0.1,0-0.1,0-0.3,0.1c0.5,0,0.9,0,1.4,0
				c0.3,0,0.6-0.1,1-0.1c0,0.2,0,0.4,0,0.7c-0.3,0.3-0.1-0.6-0.3-0.2c0,0.1,0,0.2,0,0.3l0,0.2l0,0.1l0,0.2c0,0.4,0.1,0.9,0.1,1.3
				c0.1,0.9,0.1,1.7,0.1,2.5l0-0.3c0.5,0.2-0.2,1.2,0,2c0-0.2-0.3-0.3-0.2-0.2c-0.1,1.1,0.1,2.3,0.3,3.9l-0.1-0.2
				c-0.1,0.7-0.1,1.7-0.1,2.4c0.1,0.2,0.1,0.6,0.3,0.4c-0.7,2.2,0.4,4.1-0.2,6.1c0-0.2-0.1-0.5-0.1-0.4l0.1,1.6
				c0.2-0.1,0.1-0.2,0.3-0.6c0.1,0.2,0.2,0.7,0.2,1.1c-0.1-0.7-0.3,0-0.4,0.3c0.1-0.1,0.1,0.1,0.2,0c-0.4,0.9,0.4,0.1,0.2,1.3
				l-0.1-0.1c0.1,0.4,0.2,0.8,0.2,1.3c-0.2,0.2-0.1-0.5-0.3-0.5c0,0.7,0.4,1.3,0.2,1.9c-0.1-0.3-0.1-0.7-0.1-1
				c-0.3,0.7-0.2,0.7-0.2,1.2l0,0l-0.1,1.1l0.1-0.3c0.6,0.8,0.1,1.7,0.5,2.8c-0.4-1.1-0.2-0.2-0.5-0.3c-0.1,0.3-0.2,0.7-0.2,0.6
				c0.2,0.5-0.2,0.9,0.1,1.6c-0.1,0,0,0.6-0.2,0.4c0.1,0.7,0.1-0.2,0.2-0.1c0.3,1.1-0.3,2.5,0,4c0.2,1.3,0.4,1.6,0.6,2.8
				c-0.1,0.4-0.3-0.3-0.3-0.3c-0.1,0.7-0.1,1.2,0,1.8c-0.1-0.1-0.1,0-0.2,0.2c0,0.5,0.3,0.3,0.2,1c-0.1-0.1-0.2-0.3-0.3-0.5
				c0.1,0.6,0.2,1.2,0.3,1.8c-0.1,0.2-0.2-0.4-0.3-0.6c0.1,0.7,0.1,1.8,0.4,2l0.1-0.4c0,0.3-0.2,0.1-0.2-0.1
				c-0.2-0.6,0.1-0.9,0.2-0.9l0.1,0.4c0.5-0.4-0.1-1.8-0.1-2.6l0.4,0.4l-0.3-0.9c0.1-0.2,0.3-0.3,0.3,0.1c0.2-0.6-0.1-0.6,0.1-1.1
				c0-0.1,0,0,0.1,0L76,39.5c0.1,0.1,0.3-0.1,0.2,0.3c0.2-1.1-0.3-1.8,0-2.2l0,0.1c-0.1-1.5-0.3-0.1-0.6-1.3l0.6-0.8L76,35.5
				c0-0.2,0-0.5,0.1-0.4c-0.2-0.6-0.1,0.1-0.3-0.2c0.2-0.8-0.1-2.1,0.3-2.3c-0.2-0.3-0.2,0.7-0.3-0.1c0.4-0.2-0.1-0.9,0.1-1.6
				c0.2,0.2,0.1,0.9,0.3,0.2c-0.4-0.4,0.1-1.4,0-1.9c-0.3,0-0.1-1.3-0.2-2.3c0.1,0.1,0.2-1.9,0.3-2.8l0.1,0
				c-0.3-0.2-0.3-1.1-0.3-1.8c0.2,0,0.3,0.2,0.3,0.5l0-0.6c-0.1-0.2-0.2-0.4-0.2-0.8l0.2,0.2c0-0.9-0.3-1.7-0.1-2.8
				c-0.2-0.1-0.6,0.9-0.8-0.3c0.1,0,0.3-0.1,0.4,0.2c0-0.1-0.1-0.4,0-0.6l0.2,0.5c0.1-0.5-0.2-0.3-0.1-0.7c0.2,0,0.1-0.3,0.3-0.2
				c0,0.1-0.1,0.4,0,0.5c0-0.5,0.1-1,0.3-1.2c-0.1,0-0.2,0-0.2-0.3c0-0.9,0.2-0.3,0.3-0.8c-0.1-0.2,0-0.8-0.2-0.8
				c0-0.3,0.1-0.3,0.2-0.4c-0.1-0.4,0-2.1-0.3-1.6l0,0.1c0,0,0,0,0-0.1c0,0,0,0,0,0v0c-0.3-1.5,0.1-3,0-4.5l0.1,0
				c-0.1-0.9-0.1-1.9-0.2-2.5c0-0.3,0.2-0.6,0.3-0.5c-0.1-0.7-0.2-0.7,0-1.7c0.1,0.7,0.1-0.2,0.1,0.7c0-0.4,0.1-0.7,0.1-1
				c0-0.1,0-0.3,0-0.4c0-0.1,0-0.2,0-0.3c0-0.1,0-0.2-0.1-0.4c0.1,0.2,0.2,0,0.2-0.4c0-0.4,0-0.9,0-1.2l-0.2,1c0-0.4,0-0.8,0-1.1
				c-0.2,0-0.4,0-0.6,0c0.2-0.1,0.4-0.2,0.6-0.3c-0.3,0-0.7-0.1-1-0.1c-0.2,0-0.4,0-0.5,0c-0.2,0-0.4,0-0.4,0
				c-0.4,0-0.8,0.1-1.2,0.2c-0.7,0.1-1.4,0.2-2.1-0.1c-0.5,0.2,1,0.1,0.5,0.4c-0.8,0-1.7-0.4-1.9-0.4c-1.1-0.2-1,0.4-2.2,0.3
				c0.1,0.1,0.3,0.4-0.6,0.5c-0.8,0-1-0.4-0.5-0.5c0.2,0,0.3,0,0.3,0.1c0.3,0,0.6-0.1,0.3-0.2l-0.1,0.1c-0.4-0.1-1.5-0.1-1.3-0.3
				c-0.6,0.1-0.3,0.2,0.2,0.2c-1-0.1-1.6,0-2.7-0.1c0.2,0.1,0.3,0.2,0.2,0.2c-1.6-0.1-0.7,0.2-1.8,0.2c-0.6-0.2,0.2-0.4-0.9-0.2
				c-0.7-0.1-0.1-0.3,0.1-0.4c-1,0.2-1.8-0.1-2.4-0.2L59,0c-0.3,0-0.6,0-0.8,0l0.3,0.2c-0.3,0-0.6,0-0.6-0.1
				c-0.3,0.1,0.2,0.3-0.4,0.5c-0.4-0.1-1.2,0.1-1.4-0.2c1.3,0.1-0.1-0.3,0.9-0.3c-0.2,0-0.5,0-0.8,0c0,0,0-0.1,0.1-0.1
				c-1.2-0.2-0.6,0.3-1.8,0.3c0.2-0.2-0.3-0.3-0.5-0.3c0.5,0,0.2,0.3-0.2,0.4c-0.8-0.1-0.9,0.1-1.3,0.1l0.5,0.1
				c-0.2,0.2-0.6,0.1-1.1,0.2c0-0.1,0.5-0.1,0.3-0.1C51.7,1,50.9,0.4,50,0.6c-0.4-0.1,0-0.3-0.4-0.4c-1,0.2-1.1-0.2-2.1,0
				c0.3,0.2,0.3,0.2-0.4,0.4l1.7-0.1l-1.1,0.3c0.5,0,1.1-0.1,1.4-0.1c-0.5,0.2-0.5,0.1-0.2,0.3c-0.7-0.3-1.4,0.2-2.2,0l0-0.5
				c-1.2-0.2-2.1,0.3-3.7,0.1l0.5,0.1c-0.2,0.2-1,0-1.5,0.1c0-0.2-0.3-0.2-0.5-0.3c0,0.1-1.1,0-1.3,0.3l-0.7-0.2
				C38.4,0.4,38.2,1,37,0.9c0.4-0.2-0.2-0.3,0.6-0.4c-0.4,0-0.8,0-0.8,0.1c-0.2-0.1-1.1,0.2-1.5,0.1c-0.2,0.1-0.2,0.3-0.7,0.2
				c0,0,0-0.1,0-0.1c0,0.1-0.7,0.1-0.3,0.3c-1.2-0.5-3.5,0-4.6-0.4c-0.9,0.1-2,0.1-2.8,0.1c0.1-0.1,0-0.1,0.2-0.1
				C26,0.6,26.5,1.2,25.2,1c-0.6-0.3,0.7-0.1,0.3-0.3c-0.2-0.6-1.5,0.1-2.4-0.2l0.2,0c-0.6-0.2-1.6,0.2-2.6,0.2c0,0,0.1,0,0-0.1
				C19.9,0.9,18.6,1,17.6,1c0.3-0.2,0.5-0.1,0.3-0.3c-0.5,0,0.1,0.4-0.8,0.4c-0.3-0.1-1-0.2-1-0.5l0.9,0c-0.4-0.3-1.1,0-1.6,0
				l0.1-0.1c-1.3,0-1.3,0.4-2.8,0.4l0.1,0.1C12,1.3,12.1,0.7,11.3,1l-0.2-0.3C10.6,0.7,9.3,1,8.4,1c0.5-0.2,1.6-0.4,2.3-0.5
				c-0.5,0-1.7,0-2,0.2c0.2,0,0.5-0.1,0.7-0.1C8.7,0.9,7.9,1,6.9,1c0.1-0.2-0.2-0.3-0.6-0.3l-0.1,0c0,0-0.1,0-0.1,0
				c-0.1,0-0.2,0-0.2,0c-0.2,0-0.4,0-0.5,0c-0.4,0-0.8,0-1.2,0c0,0.8-0.1,1.5-0.3,1.9l0,0.1l0,0.1l0,0.2l0,0.3c0,0.2,0,0.4,0,0.7
				c0,0.4,0,0.9,0,1.4C3.9,6.2,3.8,7.2,3.8,8.2c0.5-0.7,0,0.6,0.5,0.5c0,0.5,0,0.7,0,0.7L4,10.9c-0.2,0.3-0.1-0.5-0.2-0.4
				c0,1.1-0.2,0.4-0.4,1.1c0.2-0.1,0.3,0.4,0.2,1l0.2-0.9c0.3,1.5-0.4,1.3-0.2,2.8L3.5,14c0.1,0.8,0,2.8,0.4,3.6
				c-0.1,0.1-0.2,0.3-0.2,0c-0.1,1.8,0.4,4.1,0.2,5.5L3.8,23c0,0.3,0.2,0.6,0.1,1c-0.1,0-0.1-0.1-0.1,0c0,0.2,0.2,0.9,0.1,1.4
				L3.8,25c-0.2,1.8,0.3,2.7,0.4,4.2c-0.4,0-0.5,1.4-0.6,2.1l-0.1,0c0,2.1,0.3,3.5,0.5,5.5c-0.4,1.2-0.2,4.1-0.4,6
				c0.1-0.3,0.3,0,0.3,0.4c-0.1,0.5,0.3,1.2-0.1,1.2l0-0.2c-0.3,0.3-0.2,1.3-0.3,2l0.5,0.1C4,46.4,4,46.6,3.9,46.8
				c0,0.1,0,0.2,0,0.3l0,0.1l0,0.2c0,0.7,0,1.4,0,2.1c0.6,0,1.3,0,1.9-0.1c0.4,0,0.8,0,1.2-0.1c0.6,0,1.2,0,1.5,0.2
				c0.5-0.1,1-0.1,1.5-0.2l0,0.2c1.3,0.1,1.9,0.1,3.5,0L13,50c0.9,0,1.1-0.7,1.9-0.7l0.2,0.4c1.5,0,3.1,0.3,4.6,0
				c0,0.1-0.1,0.2-0.3,0.2c0.7,0,2.8,0.2,2.5-0.3c0,0.3,1.6,0,2.4-0.1l-0.1,0.2c0.7-0.3,0.7-0.4,1.7-0.5c0.2,0,0.2,0.2-0.1,0.1
				c0.8,0.1,0.6-0.2,1.5-0.1l-0.3,0.2c0.8,0,0.7-0.1,1.2-0.2c0.5-0.1,1.5,0.1,1.6,0.3c0.1-0.1,0.5-0.3,1-0.2
				c0.1,0.1-0.1,0.1-0.2,0.2c1.3,0.2,2-0.3,2.9,0c0,0.1,0.1,0.1,0.2,0.1c-1.1,0-1.9,0-1.8,0c0,0.2,0.9,0.3,0.2,0.6
				c0.7-0.2,1.9-0.5,2.7-0.4c0,0,0.1,0,0.1,0.1l-0.1,0c0.2,0,0.4,0,0.5,0c0.3,0,0.4,0.1,0.7,0.1c0.1,0.2,1,0.1,1.4,0.1
				c0-0.2,0.5-0.2,0-0.4c0.1,0-0.1,0-0.4,0c-0.1,0-0.1,0-0.2,0c0,0,0,0,0,0c-0.3,0-0.6,0-1.1,0c0.3-0.1,0.7-0.2,1.2-0.1
				c0.2-0.2,0.5-0.3,0.6-0.4c0.6,0.3,1.7,0.5,1.9,0.7c1.3-0.1,3.1-0.1,3.9-0.5c0.4-0.1,0.4,0.1,0.6,0.2c-0.2,0-0.5,0-0.6,0.1
				c0.7-0.1,2.2,0,2.4-0.4c0.9,0.1-0.5,0.3,0.8,0.2l-0.2,0.1c2.5,0.5,4.1-0.8,6.9-0.2c-0.2,0-0.3-0.1-0.3-0.1
				c3.2,0.3,6.6-0.3,9.7,0.2c0.9,0.1,1-0.1,1.5-0.3l0.2,0.3l0.9-0.3c1.3-0.2,2.3,0.6,4,0.2L69,49c0.6,0,1.9-0.1,1.8,0.1
				c0.1,0,0.2-0.2,0.4-0.1l0,0.1l1.5-0.2c1.1,0.1-0.2,0.5,1.5,0.6c0.6-0.1,1.8-0.4,1.5-0.5c-0.3,0-0.6-0.1-0.7-0.2l0.6-0.1
				c0.1-0.4,0.5-0.8-0.9-1.1l-1,0.2l-0.3-0.2l0.8,0c-0.5-0.2-0.8,0-1.1,0.1c-0.1-0.1-0.2-0.2-0.4-0.2l-1,0.4
				c-0.1-0.2,0.4-0.3-0.2-0.4c-0.4,0.2,0.4,0.3-0.3,0.5c-0.5-0.2-0.3-0.3-0.9-0.2c-0.1-0.1,0-0.2,0.3-0.2c-0.5,0.1-1.3,0.1-1.5,0.3
				c-0.5-0.2-1.6,0.1-1.6-0.3c-0.2,0.1-0.9,0.3-1.3,0.3c0.8-0.5-1.7,0-1.5-0.5c-0.6,0.4-2.2,0.2-3.2,0.4c0.1,0,0.2-0.1,0.3-0.1
				c-0.6,0-0.8-0.2-1.2-0.2c-0.1,0.3-1,0.4-1.5,0.6c-0.7-0.3,0.4-0.4,0.2-0.7c0,0.3-1.3,0.3-1,0.5c-0.6-0.2-0.5-0.1-0.8-0.4
				c-0.1,0.4-0.5,0.1-1,0.3c-0.8-0.2-0.2-0.4-1.1-0.3C55.1,47.5,55.9,47.3,55.9,47.3z M34.6,48C34.6,48,34.6,48,34.6,48
				c0.2,0,0.3,0,0.4,0C34.9,48,34.8,48,34.6,48z M32.8,48c0.2,0,0.5,0,0.8,0c0.1,0.1,0,0.2-0.2,0.2C33.5,48.2,33.1,48.1,32.8,48z
				 M36.6,49.7c-0.3,0-0.4,0-0.4-0.1C36.3,49.6,36.5,49.6,36.6,49.7c0.1-0.1,0.1-0.1,0.1-0.1C36.7,49.6,36.7,49.7,36.6,49.7z"/>
		</g>
		<g id="XMLID_2672_">
			<path id="XMLID_2673_" fill="#575756" d="M37.1,49.4c0,0,0.1,0,0.1,0C37.2,49.3,37.1,49.3,37.1,49.4c-0.1,0-0.1,0-0.2,0
				C37,49.4,37.1,49.4,37.1,49.4z"/>
		</g>
		<g id="XMLID_2670_">
			<path id="XMLID_2671_" fill="#575756" d="M76.2,13L76.2,13C76.2,13,76.2,13.1,76.2,13C76.2,13.1,76.2,13.1,76.2,13z"/>
		</g>
		<g id="XMLID_2668_">
			<polygon id="XMLID_2669_" fill="#575756" points="8.1,47.6 8.1,47.6 8.2,47.6 			"/>
		</g>
		<g id="XMLID_2666_">
			<path id="XMLID_2667_" fill="#575756" d="M75.3,22.9c0,0,0,0.1-0.1,0.1C75.3,23,75.3,23,75.3,22.9z"/>
		</g>
		<g id="XMLID_2664_">
			<path id="XMLID_2665_" fill="#575756" d="M75.3,27.2l-0.1,0.6C75.3,27.5,75.3,27.3,75.3,27.2z"/>
		</g>
		<g id="XMLID_2662_">
			<path id="XMLID_2663_" fill="#575756" d="M75.2,30.4c0,0,0.1,0.1,0.1,0.1l0,0L75.2,30.4z"/>
		</g>
		<g id="XMLID_2660_">
			<path id="XMLID_2661_" fill="#575756" d="M52.8,2.2c0,0-0.1,0-0.1,0C52.4,2.3,52.6,2.3,52.8,2.2z"/>
		</g>
		<g id="XMLID_2658_">
			<path id="XMLID_2659_" fill="#575756" d="M68.4,1.7c-0.2,0-0.3,0.1-0.5,0.1C68.1,1.8,68.3,1.8,68.4,1.7z"/>
		</g>
		<g id="XMLID_2656_">
			<path id="XMLID_2657_" fill="#575756" d="M35.5,2.5C35.5,2.5,35.5,2.5,35.5,2.5c0,0-0.1,0-0.1,0L35.5,2.5z"/>
		</g>
		<g id="XMLID_2654_">
			<path id="XMLID_2655_" fill="#575756" d="M67.1,1.8c0.3,0,0.5,0,0.7,0C67.6,1.8,67.4,1.7,67.1,1.8z"/>
		</g>
		<g id="XMLID_2652_">
			<path id="XMLID_2653_" fill="#575756" d="M75.1,44.7l0,0.2c0,0,0,0,0,0L75.1,44.7z"/>
		</g>
		<g id="XMLID_2650_">
			<path id="XMLID_2651_" fill="#575756" d="M75.1,44.8l0,0.2C75.1,44.9,75.1,44.9,75.1,44.8z"/>
		</g>
		<g id="XMLID_2648_">
			<path id="XMLID_2649_" fill="#575756" d="M75.2,45.4L75.1,45C75.1,45.1,75.1,45.3,75.2,45.4z"/>
		</g>
		<g id="XMLID_2646_">
			<path id="XMLID_2647_" fill="#575756" d="M75.2,40.3L75.2,40.3C75.1,40.3,75.1,40.3,75.2,40.3z"/>
		</g>
		<g id="XMLID_2644_">
			<path id="XMLID_2645_" fill="#575756" d="M75.1,39c0,0.3-0.2,0.8-0.1,1.2l0.1,0C75,40.1,75.3,39.3,75.1,39z"/>
		</g>
		<g id="XMLID_2642_">
			<path id="XMLID_2643_" fill="#575756" d="M76.2,33.5l-0.1,1.1c0.1-0.2,0.2-0.4,0.2,0.1C76.7,33.3,76.2,34.9,76.2,33.5z"/>
		</g>
		<g id="XMLID_2640_">
			<path id="XMLID_2641_" fill="#575756" d="M76.4,30.1c0,0.6,0.1,0,0.2,0C76.5,29.7,76.4,29.6,76.4,30.1z"/>
		</g>
		<g id="XMLID_2638_">
			<path id="XMLID_2639_" fill="#575756" d="M76.4,5.3l0.2,0.1C76.5,4.9,76.5,5.4,76.4,5.3z"/>
		</g>
		<g id="XMLID_2636_">
			<path id="XMLID_2637_" fill="#575756" d="M74.8,1.9C74.9,1.9,74.9,2,75,2C75,2,75.1,1.9,75.3,1.8L74.8,1.9z"/>
		</g>
		<g id="XMLID_2634_">
			<polygon id="XMLID_2635_" fill="#575756" points="72.3,0.3 72.5,0.3 71.7,0.4 			"/>
		</g>
		<g id="XMLID_2632_">
			<path id="XMLID_2633_" fill="#575756" d="M30.7,0.4l0.1,0.3C31.2,0.6,31.2,0.3,30.7,0.4z"/>
		</g>
		<g id="XMLID_2630_">
			<path id="XMLID_2631_" fill="#575756" d="M12.8,0.7c-0.2-0.1-0.7-0.2-1-0.1C12.2,0.6,12.6,0.7,12.8,0.7z"/>
		</g>
		<g id="XMLID_2628_">
			<path id="XMLID_2629_" fill="#575756" d="M3.7,47.2l-0.1-0.4L3.7,47.2L3.7,47.2c0,0.1,0,0.1,0,0.2l0,0.3L3.7,47.2z"/>
		</g>
	</g>
</g>
</svg>
