<?xml version="1.0" encoding="utf-8"?>
<!-- Generator: Adobe Illustrator 23.0.1, SVG Export Plug-In . SVG Version: 6.00 Build 0)  -->
<svg version="1.2" baseProfile="tiny" id="Layer_1" xmlns="http://www.w3.org/2000/svg" xmlns:xlink="http://www.w3.org/1999/xlink"
	 x="0px" y="0px" viewBox="0 0 80 50" xml:space="preserve">
<g id="XMLID_2800_">
	<g id="XMLID_2837_">
		<g id="XMLID_2838_">
			<path id="XMLID_2839_" fill="#C6C6C6" d="M20.7,17.3c1.3-0.8,2.7-1.6,4.2-2.2c0.8-0.3,1.5-0.6,2.3-0.8c0.8-0.3,1.6-0.5,2.4-0.7
				c3.2-0.9,6.5-1.5,9.3-2.7c3.4-1.4,7.2-2.4,11-2.8l1.4-0.2c0.5,0,1-0.1,1.4-0.1c1-0.1,1.9-0.1,2.9-0.2c1,0,1.9,0,2.8,0
				c0.5,0,0.9,0,1.4,0c0.5,0,0.9,0,1.4,0.1c0,0.7-0.7,1.8-0.1,2.2c2.4,1.2,2.2,2.7,2.1,4.2c-0.1,0.7-1.7-0.1-1.2,0.7
				c-0.9,0-2,0-2.7,0.2c-0.7,0.2-1,0.5-0.2,0.8c0.5,0.7,2.8,0.1,3.3,1.3c0.5,1.1-0.7,2.2-0.2,3.3c0.5,0,1.6,0.1,2.1,0.2
				c0.5,0.8-0.7,2.2-0.2,2.2c0.7,0.5,1.6,0.6,2.6,0.7c1,0.1,2,0.2,3,0.3c-0.1,0.4,0,0.8,0,1.1c0,0.2-0.1,0.3-0.2,0.4
				c-0.1,0.1-0.3,0.2-0.6,0.3c-8.7-1-17.7-0.3-26.3,1.7c-8.6,2-16.8,5.2-24.5,9.2c-1.9,0.7-1.4-1.3-0.6-3.1
				c-0.3,0.6-0.8-0.4-1.1,0.2c-0.3-0.5-0.4-1.2-0.3-2.1c0.1-0.4,0.2-0.8,0.4-1.3c0.2-0.4,0.5-0.8,1-1.1c-0.5,0.2-0.9,0.5-1.4,0.8
				c-0.7-0.1-0.6-1-0.9-1.6c0.5-0.3,1-0.6,0.8-0.9c-0.2-0.3-0.5-1-0.7-1.3c-0.5,0.3-1.5,0.9-2,1.1c0.5-0.3,1-0.6,0.8-0.9
				c-0.2-0.3-0.6-1-0.7-1.3c0.8-0.9,2.7-1,3.6-1.9l-0.5-1c-1.2,0.2-2.6,1.3-3.6,1.9c0.3-0.6,0.1-0.9-0.2-1.6
				c0.3-0.3,0.7-0.5,1.1-0.7c0.4-0.2,0.8-0.3,1.3-0.5c0.8-0.3,1.6-0.8,2.2-1.6c-0.5,0.2-1.1,0.5-1.6,0.8c0.1-0.6,0.3-1,0.7-1.3
				c0.4-0.3,0.9-0.5,1.4-0.7C18.7,18.1,19.9,17.8,20.7,17.3z"/>
		</g>
	</g>
	<g id="XMLID_2806_">
		<g id="XMLID_2833_">
			<path id="XMLID_2834_" fill="#020203" d="M10.8,46.4c0.6,0,1,0.2,1.4,0.5c0.4,0.3,0.6,0.8,0.6,1.3c0,0.5-0.2,1-0.6,1.3
				c-0.4,0.3-0.8,0.5-1.4,0.5H9.5v-3.6H10.8z M10.4,49.3h0.4c0.3,0,0.6-0.1,0.8-0.3c0.2-0.2,0.3-0.5,0.3-0.8c0-0.3-0.1-0.6-0.3-0.8
				c-0.2-0.2-0.5-0.3-0.8-0.3h-0.4V49.3z"/>
		</g>
		<g id="XMLID_2830_">
			<path id="XMLID_2831_" fill="#020203" d="M18.8,46.4V47h-1.3v0.8h1.1v0.7h-1.1v0.8h1.3V50h-2.2v-3.6H18.8z"/>
		</g>
		<g id="XMLID_2827_">
			<path id="XMLID_2828_" fill="#020203" d="M24,47c-0.1,0-0.2,0-0.3,0.1c-0.1,0.1-0.1,0.1-0.1,0.3c0,0.1,0,0.2,0.1,0.3
				c0.1,0.1,0.1,0.1,0.3,0.2c0.1,0,0.2,0.1,0.3,0.1c0.1,0,0.3,0.1,0.4,0.1c0.1,0,0.2,0.1,0.3,0.2c0.1,0.1,0.2,0.2,0.3,0.3
				c0.1,0.1,0.1,0.3,0.1,0.4c0,0.3-0.1,0.6-0.4,0.8c-0.2,0.2-0.6,0.3-1,0.3c-0.4,0-0.7-0.1-1-0.3c-0.2-0.2-0.4-0.5-0.4-0.8h0.9
				c0,0.3,0.2,0.4,0.4,0.4c0.1,0,0.2,0,0.3-0.1c0.1-0.1,0.1-0.2,0.1-0.3c0-0.1,0-0.2-0.1-0.3c-0.1-0.1-0.1-0.1-0.3-0.2
				c-0.1,0-0.2-0.1-0.3-0.1c-0.1,0-0.3-0.1-0.4-0.1c-0.1,0-0.2-0.1-0.3-0.2c-0.1-0.1-0.2-0.2-0.3-0.3c-0.1-0.1-0.1-0.3-0.1-0.4
				c0-0.3,0.1-0.6,0.4-0.8c0.2-0.2,0.6-0.3,1-0.3c0.4,0,0.7,0.1,0.9,0.3c0.2,0.2,0.4,0.5,0.4,0.8h-0.9c0-0.1-0.1-0.2-0.1-0.3
				C24.2,47.1,24.1,47,24,47z"/>
		</g>
		<g id="XMLID_2824_">
			<path id="XMLID_2825_" fill="#020203" d="M29.3,50v-3.6h0.9V50H29.3z"/>
		</g>
		<g id="XMLID_2821_">
			<path id="XMLID_2822_" fill="#020203" d="M34.6,49.5c-0.4-0.3-0.5-0.8-0.5-1.3c0-0.5,0.2-1,0.5-1.3c0.4-0.3,0.8-0.5,1.3-0.5
				c0.4,0,0.8,0.1,1.1,0.3c0.3,0.2,0.5,0.5,0.6,0.9h-1c-0.1-0.3-0.4-0.4-0.7-0.4c-0.3,0-0.5,0.1-0.7,0.3c-0.2,0.2-0.3,0.4-0.3,0.8
				c0,0.3,0.1,0.6,0.3,0.8c0.2,0.2,0.4,0.3,0.7,0.3c0.2,0,0.4-0.1,0.5-0.2s0.2-0.2,0.3-0.4h-1V48h2v0.7c-0.1,0.3-0.2,0.6-0.5,0.9
				c-0.1,0.1-0.3,0.2-0.5,0.3C36.3,50,36.1,50,35.9,50C35.4,50,34.9,49.8,34.6,49.5z"/>
		</g>
		<g id="XMLID_2818_">
			<path id="XMLID_2819_" fill="#020203" d="M43.8,46.4h0.9V50h-0.9l-1.5-2.3V50h-0.9v-3.6h0.9l1.5,2.3V46.4z"/>
		</g>
		<g id="XMLID_2815_">
			<path id="XMLID_2816_" fill="#020203" d="M55.7,46.4h0.9V50h-0.9v-1.5h-1.4V50h-0.9v-3.6h0.9v1.4h1.4V46.4z"/>
		</g>
		<g id="XMLID_2812_">
			<path id="XMLID_2813_" fill="#020203" d="M60.6,48.5v-2.1h0.9v2.1c0,0.2,0.1,0.4,0.2,0.5c0.1,0.1,0.3,0.2,0.5,0.2
				c0.2,0,0.4-0.1,0.5-0.2c0.1-0.1,0.2-0.3,0.2-0.5v-2.1h0.9v2.1c0,0.3-0.1,0.6-0.2,0.8c-0.1,0.2-0.3,0.4-0.6,0.5
				c-0.2,0.1-0.5,0.2-0.7,0.2c-0.4,0-0.8-0.1-1.1-0.4C60.7,49.4,60.6,49,60.6,48.5z"/>
		</g>
		<g id="XMLID_2807_">
			<path id="XMLID_2808_" fill="#020203" d="M67.6,46.4h1.6c0.4,0,0.7,0.1,0.9,0.3c0.2,0.2,0.3,0.4,0.3,0.7c0,0.4-0.2,0.7-0.7,0.8
				c0.2,0,0.4,0.1,0.6,0.3c0.1,0.2,0.2,0.4,0.2,0.6c0,0.3-0.1,0.5-0.3,0.7c-0.2,0.2-0.5,0.3-0.9,0.3h-1.6V46.4z M68.5,47v0.8h0.6
				c0.1,0,0.2,0,0.3-0.1c0.1-0.1,0.1-0.2,0.1-0.3c0-0.1,0-0.2-0.1-0.3c-0.1-0.1-0.2-0.1-0.3-0.1H68.5z M68.5,49.3h0.7
				c0.1,0,0.2,0,0.3-0.1c0.1-0.1,0.1-0.2,0.1-0.3s0-0.2-0.1-0.3c-0.1-0.1-0.2-0.1-0.3-0.1h-0.7V49.3z"/>
		</g>
	</g>
	<g id="XMLID_2801_">
		<g id="XMLID_2802_">
			<path id="XMLID_2803_" fill="#232020" d="M46.6,17.1c0.6-0.6,1.2-1,1.9-1.2c0.2-0.1,0.5-0.1,0.7-0.1c0.3,0,0.7,0.1,1.1,0.2
				c0,0.3-0.3,0.5-0.5,0.7c-1.2,1.1-2.3,2.4-3.4,3.7c-0.2,0.2-0.3,0.5-0.2,0.8c0.1,0.5,0.2,1,0.3,1.5c0.1,0.4,0.1,0.7-0.2,1
				c-0.2,0.2-0.2,0.4-0.1,0.8c0.1-0.3,0.2-0.4,0.2-0.6c0.3,0,0.4,0.6,0.1,0.9c0,0.1-0.1,0.1-0.1,0.1c-0.1,0-0.1,0.1-0.2,0.2
				c0.4,1.3,0.8,2.7,1.1,4c0.1,0.4,0.1,0.7,0.2,1.1c0,1.1,0.4,2.1,0.9,3.1c0.4,0.8,0.7,1.5,1,2.3c0.2,0.6,0.4,1.1,0.5,1.7
				c0.1,0.4,0.2,0.8,0.3,1.3c-0.2-0.1-0.4-0.2-0.6-0.3c0,0.1-0.1,0.2-0.1,0.3c0,0.1,0,0.2,0,0.3c-0.4,0.2-1,0.1-0.8,0.7
				c-0.3,0.2-0.7,0.1-0.9,0c-0.4-0.2-0.8-0.3-1-0.5c-1-0.9-1.9-2-2.5-3.2c-0.1-0.2-0.2-0.4,0-0.7c0.1,0,0-0.3-0.1-0.5
				c-0.2-0.4-0.4-0.8-0.7-1.1c-1.3-2-2.1-4.1-2.9-6.4c-0.1-0.2-0.3-0.5-0.4-0.8c-0.2,0.2-0.4,0.3-0.5,0.4c-0.7,1-1.7,1.6-2.7,2.3
				c-0.8,0.5-1.6,1-2.4,1.5c-0.8,0.6-1.2,1.6-1.4,2.4c-0.4,1.8-1.2,3.5-1.7,5.2c-0.1,0.3-0.3,0.4-0.6,0.6c-1.2,0.4,0.6,1-0.6,1
				c-2.5,1.2-1.9-0.8-3.2-1.8c0.5-1.3,1.1-2.7,1.7-3.9c0.3-0.6,0.7-1.2,1-1.8c0.5-0.9-0.1,0.1,0.3-0.9c-0.2-0.1-0.4-0.2-0.6-0.3
				c-0.4-0.2-0.8-0.3-1.3-0.5c-0.3-0.2-0.5-0.4-0.5-0.8c0.3-0.3,0.7-0.2,1-0.1c0.5,0.1,1.1,0.2,1.7,0.2c0.1,0,0.4-0.1,0.4-0.2
				c0.4-0.8,0.7-1.6,1.1-2.4c0.1-0.2,0.1-0.4,0.1-0.5c1-1.9,1.4-4.1,2.1-6.1c0.8-2.4,1.4-4.9,2.2-7.4c0.3-1,0.4-1.9,0.2-2.8
				c-0.2-1.2-0.3-2.3-0.4-3.4c-0.1-2,0.2-4,0.5-5.9c0.1-0.7,0.3-0.8,0.9-0.8c0.8,0,1.7-0.1,2.5-0.1c0.3,0,0.6,0,0.8,0.2
				c0.5,0.3,1.1,0.6,1.6,0.9c0.2,0.2,0.4,0.5,0.5,0.7c0.6,1.1,0.8,2.2,0.9,3.4c0.2,1.6,0.4,3.1,0.6,4.6c0,0.2,0.1,0.4,0.1,0.6
				c0.3,1.1,0.4,2.3,0.3,3.5c-0.1,0.9,0.1,1.8,0.2,2.7c0.1,0.4,0.2,0.7,0.3,1.1c0.1,0,0.1,0,0.1,0.1C46,17.6,46.3,17.3,46.6,17.1z
				 M39,23.8c0.3-0.3,0.4-0.5,0.3-0.9c-0.2-0.8-0.4-1.7-0.6-2.6c-1.2-5.7-1.7-2.3-2.5,1.6C34.2,26.7,35.8,27.4,39,23.8z"/>
		</g>
	</g>
</g>
</svg>
